<svg xmlns="http://www.w3.org/2000/svg" viewBox="0 0 500 500"><g id="freepik--Trees--inject-84"><g id="freepik--Tree--inject-84"><path d="M134.09,152.52c.35,2.73-3,5-5.87,4.49a2,2,0,0,1-3.07,1.75c.93,1.22,2.45,5.06,0,7.15a6,6,0,0,1-5.61.89s-1.15,2.86-5.5,2.09a5.83,5.83,0,0,1-4.74-6.78c-2.85,1.65-8.66.38-11.26-3.45s-2.39-8.62-.17-10.79a3.6,3.6,0,0,1-.13-4.77,2.8,2.8,0,0,1,2.18-1,1.54,1.54,0,0,1,.21-2.37c-2-1.2-3-5.46.3-8.66s8.2-1.92,8.2-1.92a7,7,0,0,1,1.17-6,6.09,6.09,0,0,1,5-2.17,2.2,2.2,0,0,1,2.09-2.39c-1.29-2.33-.07-5.28,1.63-6.58,3.14-2.4,11.15-3,11.1,3,3.26-2.5,8.15.88,7.36,4.22,2.69-2.33,7,.83,6,4.05,3.89-1.1,7.94,3.52,5.77,7.81,1.51-.87,4.94-.24,4.85,2.64a3.78,3.78,0,0,1,4.69,2.62,4,4,0,0,1-1.85,4.64c1.46-.22,2.36,2.22,1.38,2.94,2.86,0,4.8,6,1.31,8,2,1.41,3,10-3.13,13.42s-15,1.36-15.42-4.25c-2.61-.64-3.7-3.44-1.95-5C136.9,156.78,134.26,154.65,134.09,152.52Z" style="fill:#BA68C8"></path><path d="M156,165.32c6.14-3.46,5.13-12,3.13-13.42,3.49-2,1.55-8-1.31-8,1-.72.08-3.16-1.38-2.94a4,4,0,0,0,1.85-4.64,3.76,3.76,0,0,0-1.81-2.3,4.09,4.09,0,0,1-2.61,6.23,4.41,4.41,0,0,1-4.42-1.44s-.71,1.22-3.85.83a4.62,4.62,0,0,1-3.88-6c1.48-2.5-.83-5.55-3.81-5.09.14,6.29-5.29,8.19-10.42,5.73,2.5,6.29-3,9.33-5.73,6.56-.92,2.31-4,2-5.35.65-1.39,1.48-5.73,0-5.73-3.51-2.59,3.23-7.21,2.31-7.58-1.11-2,2.58-4.43,1.13-4.69.12a4.1,4.1,0,0,0,1.74,2.71,1.54,1.54,0,0,0-.21,2.37,2.8,2.8,0,0,0-2.18,1,3.6,3.6,0,0,0,.13,4.77c-2.22,2.17-2.43,6.95.17,10.79s8.41,5.1,11.26,3.45a5.83,5.83,0,0,0,4.74,6.78c4.35.77,5.5-2.09,5.5-2.09a6,6,0,0,0,5.61-.89c2.45-2.09.93-5.93,0-7.15a2,2,0,0,0,3.07-1.75c2.89.52,6.22-1.76,5.87-4.49.17,2.13,2.81,4.26,4.52,3.58-1.75,1.53-.66,4.33,1.95,5C141,166.68,149.84,168.77,156,165.32Z" style="fill:#BA68C8"></path><path d="M156,165.32c6.14-3.46,5.13-12,3.13-13.42,3.49-2,1.55-8-1.31-8,1-.72.08-3.16-1.38-2.94a4,4,0,0,0,1.85-4.64,3.76,3.76,0,0,0-1.81-2.3,4.09,4.09,0,0,1-2.61,6.23,4.41,4.41,0,0,1-4.42-1.44s-.71,1.22-3.85.83a4.62,4.62,0,0,1-3.88-6c1.48-2.5-.83-5.55-3.81-5.09.14,6.29-5.29,8.19-10.42,5.73,2.5,6.29-3,9.33-5.73,6.56-.92,2.31-4,2-5.35.65-1.39,1.48-5.73,0-5.73-3.51-2.59,3.23-7.21,2.31-7.58-1.11-2,2.58-4.43,1.13-4.69.12a4.1,4.1,0,0,0,1.74,2.71,1.54,1.54,0,0,0-.21,2.37,2.8,2.8,0,0,0-2.18,1,3.6,3.6,0,0,0,.13,4.77c-2.22,2.17-2.43,6.95.17,10.79s8.41,5.1,11.26,3.45a5.83,5.83,0,0,0,4.74,6.78c4.35.77,5.5-2.09,5.5-2.09a6,6,0,0,0,5.61-.89c2.45-2.09.93-5.93,0-7.15a2,2,0,0,0,3.07-1.75c2.89.52,6.22-1.76,5.87-4.49.17,2.13,2.81,4.26,4.52,3.58-1.75,1.53-.66,4.33,1.95,5C141,166.68,149.84,168.77,156,165.32Z" style="opacity:0.2"></path><path d="M121.81,147.57s-5.51,1.64-7-2.31c-2.81,1.62-8.07,1.22-9.84-2.32-3,0-4.79-3.18-4.79-3.18a1.54,1.54,0,0,0-.21,2.37,2.8,2.8,0,0,0-2.18,1,3.6,3.6,0,0,0,.13,4.77,4.88,4.88,0,0,0-.63.78c-.92,2.4,2.24,4.23,4.21,3.08-.75,2.45,2,9.81,9.81,6.74,4.63,2.93,9.33-.61,8.71-7.08C122.28,151.39,123.38,148.87,121.81,147.57Z" style="fill:#BA68C8"></path><path d="M151.17,154.11a7.11,7.11,0,0,0,1.7-5.79s-2.34,3.39-7.22,1.32-2.25-6.9-2.25-6.9-3.74.3-3.06-3c-1.21.6-3.07-.09-3.07-2.47-.54,4.13-4,6.12-8.37,5.18,2.92,1.09,2.72,3.36.68,5-2.31,2.31-2,8.1,3.51,7.89a3.48,3.48,0,0,0,1-2.82c.17,2.13,2.81,4.26,4.52,3.58h0s1.59,1.42,3.5-.42C143.5,157.08,148.79,157,151.17,154.11Z" style="fill:#BA68C8"></path><path d="M144.92,164.65s4.37-6.38,4.13-6.88-4.13,5.85-6.53,7.57S135.3,170,134.1,170s-1.29-1.46-.86-4.29.52-3.61,2.49-6.19,7.63-9.55,7.3-9.88-7.49,8.83-9.28,10-3.27-6.36-3.86-6.36,1.7,5.35,1.85,7.84-.14,5.48-1.25,6.25-4.17-1.63-6.14-3.78-2-11.43-2.8-11.43.5,8.52.5,9.34c0,1.79-7.55-3.11-8.92-2.89s7,3.18,10.23,6.36c2.84,2.76,3.33,3.63,4.3,5.67s1.34,5,1.34,13-2.16,20.79-2.16,25.74a2.22,2.22,0,0,0,1.31,1.82,7,7,0,0,0,6.28,0,2.2,2.2,0,0,0,1.3-1.82h0c0-4.95-2.15-17.75-2.15-25.74s.32-11,2.7-12.66,6.42-4.68,8.21-5.21,7,.34,7,0S144.92,164.65,144.92,164.65Z" style="fill:#37474f"></path></g><g id="freepik--tree--inject-84"><path d="M460.33,191.4c.35,2.73-3,5-5.88,4.49a2,2,0,0,1-3.07,1.75c.93,1.22,2.45,5.06,0,7.15a5.94,5.94,0,0,1-5.6.89s-1.15,2.86-5.51,2.09a5.82,5.82,0,0,1-4.73-6.78c-2.86,1.65-8.66.38-11.26-3.46s-2.39-8.61-.17-10.78A3.59,3.59,0,0,1,424,182a2.79,2.79,0,0,1,2.17-1,1.55,1.55,0,0,1,.22-2.37c-2.05-1.2-3-5.46.3-8.66s8.2-1.92,8.2-1.92a7,7,0,0,1,1.16-6,6.11,6.11,0,0,1,5-2.17,2.2,2.2,0,0,1,2.09-2.39c-1.29-2.33-.07-5.29,1.62-6.58,3.15-2.4,11.16-3,11.11,3,3.25-2.5,8.14.88,7.36,4.22,2.69-2.33,7,.83,6,4,3.89-1.1,7.95,3.52,5.78,7.81,1.51-.87,4.94-.24,4.85,2.64a3.78,3.78,0,0,1,4.69,2.62,4,4,0,0,1-1.85,4.64c1.46-.22,2.36,2.22,1.38,2.94,2.86,0,4.79,6,1.31,8,2,1.41,3,10-3.13,13.41s-15,1.37-15.43-4.24c-2.6-.64-3.7-3.44-2-5C463.14,195.66,460.49,193.52,460.33,191.4Z" style="fill:#f0f0f0"></path><path d="M482.22,204.19c6.14-3.45,5.13-12,3.13-13.41,3.48-2,1.55-8-1.31-8,1-.72.08-3.16-1.38-2.94a4,4,0,0,0,1.85-4.64,3.8,3.8,0,0,0-1.81-2.3,4.09,4.09,0,0,1-2.61,6.23,4.41,4.41,0,0,1-4.42-1.44s-.71,1.22-3.85.83a4.62,4.62,0,0,1-3.88-6c1.48-2.5-.83-5.55-3.81-5.09.14,6.29-5.3,8.19-10.42,5.73,2.49,6.28-3,9.33-5.73,6.56-.92,2.31-4,2-5.36.65-1.38,1.48-5.72,0-5.72-3.51-2.59,3.23-7.21,2.31-7.58-1.11-2,2.58-4.43,1.13-4.69.12a4,4,0,0,0,1.74,2.71,1.55,1.55,0,0,0-.22,2.37,2.79,2.79,0,0,0-2.17,1,3.59,3.59,0,0,0,.13,4.77c-2.22,2.17-2.43,6.95.17,10.78s8.4,5.11,11.26,3.46a5.82,5.82,0,0,0,4.73,6.78c4.36.77,5.51-2.09,5.51-2.09a5.94,5.94,0,0,0,5.6-.89c2.45-2.09.93-5.93,0-7.15a2,2,0,0,0,3.07-1.75c2.9.52,6.23-1.76,5.88-4.49.16,2.12,2.81,4.26,4.51,3.58-1.75,1.53-.65,4.33,2,5C467.25,205.56,476.07,207.65,482.22,204.19Z" style="fill:#e6e6e6"></path><path d="M448.05,186.45s-5.52,1.64-7.05-2.31c-2.81,1.62-8.07,1.22-9.84-2.32-3,0-4.79-3.18-4.79-3.18a1.55,1.55,0,0,0-.22,2.37,2.79,2.79,0,0,0-2.17,1,3.59,3.59,0,0,0,.13,4.77,4.39,4.39,0,0,0-.63.78c-.92,2.4,2.24,4.23,4.21,3.08-.75,2.45,2,9.81,9.8,6.74,4.64,2.93,9.33-.61,8.72-7.08C448.52,190.27,449.62,187.75,448.05,186.45Z" style="fill:#f0f0f0"></path><path d="M477.4,193a7.14,7.14,0,0,0,1.71-5.79s-2.34,3.39-7.22,1.31-2.25-6.89-2.25-6.89-3.75.3-3.07-3c-1.21.6-3.06-.09-3.06-2.47-.54,4.13-4,6.12-8.38,5.18,2.93,1.09,2.73,3.35.68,5-2.31,2.31-2,8.1,3.52,7.89a3.48,3.48,0,0,0,1-2.82c.16,2.12,2.81,4.26,4.51,3.58h0s1.6,1.42,3.51-.42C469.74,196,475,195.83,477.4,193Z" style="fill:#f0f0f0"></path><path d="M471.16,203.53s4.36-6.38,4.12-6.88-4.12,5.85-6.53,7.56-7.21,4.64-8.42,4.64-1.29-1.46-.86-4.29.53-3.61,2.5-6.19,7.62-9.55,7.3-9.88-7.5,8.83-9.28,10-3.27-6.36-3.87-6.36,1.71,5.35,1.85,7.84-.13,5.48-1.24,6.25-4.17-1.63-6.15-3.78-2-11.43-2.79-11.43.5,8.52.5,9.34c0,1.79-7.55-3.11-8.92-2.89s6.95,3.18,10.22,6.36c2.85,2.76,3.34,3.63,4.31,5.67s1.33,5,1.33,13-2.15,20.79-2.15,25.74a2.24,2.24,0,0,0,1.3,1.82,7,7,0,0,0,6.29,0,2.22,2.22,0,0,0,1.3-1.82h0c0-4.95-2.15-17.75-2.15-25.74s.32-11,2.69-12.66,6.43-4.68,8.22-5.21,7,.34,7,0S471.16,203.53,471.16,203.53Z" style="fill:#e0e0e0"></path></g><g id="freepik--tree--inject-84"><path d="M76.17,156.39c.5,3.92-4.27,7.19-8.42,6.44.25,2.36-3.07,3.72-4.4,2.51,1.33,1.74,3.51,7.24,0,10.24s-8,1.28-8,1.28-1.65,4.1-7.89,3-7.52-7.46-6.78-9.72c-4.09,2.36-12.41.55-16.14-4.95s-3.42-12.34-.24-15.46c-2.17-2-1.48-5.3-.19-6.83a4,4,0,0,1,3.12-1.39s-1.76-2,.31-3.4c-2.94-1.71-4.28-7.82.42-12.41S39.69,123,39.69,123a10,10,0,0,1,1.67-8.56,8.76,8.76,0,0,1,7.11-3.11s-.19-3.25,3-3.41c-1.84-3.35-.09-7.58,2.33-9.44,4.51-3.44,16-4.36,15.92,4.23,4.66-3.58,11.67,1.26,10.55,6,3.85-3.35,10.06,1.18,8.62,5.81,5.57-1.59,11.38,5,8.27,11.18,2.17-1.25,7.08-.35,6.95,3.79a5.41,5.41,0,0,1,6.72,3.74,5.76,5.76,0,0,1-2.65,6.65c2.09-.3,3.38,3.2,2,4.22,4.09,0,6.87,8.58,1.87,11.41,2.87,2,4.32,14.27-4.49,19.22s-21.45,2-22.09-6.08c-3.73-.91-5.31-4.93-2.8-7.13C80.2,162.5,76.41,159.44,76.17,156.39Z" style="fill:#BA68C8"></path><path d="M76.17,156.39c.5,3.92-4.27,7.19-8.42,6.44.25,2.36-3.07,3.72-4.4,2.51,1.33,1.74,3.51,7.24,0,10.24s-8,1.28-8,1.28-1.65,4.1-7.89,3-7.52-7.46-6.78-9.72c-4.09,2.36-12.41.55-16.14-4.95s-3.42-12.34-.24-15.46c-2.17-2-1.48-5.3-.19-6.83a4,4,0,0,1,3.12-1.39s-1.76-2,.31-3.4c-2.94-1.71-4.28-7.82.42-12.41S39.69,123,39.69,123a10,10,0,0,1,1.67-8.56,8.76,8.76,0,0,1,7.11-3.11s-.19-3.25,3-3.41c-1.84-3.35-.09-7.58,2.33-9.44,4.51-3.44,16-4.36,15.92,4.23,4.66-3.58,11.67,1.26,10.55,6,3.85-3.35,10.06,1.18,8.62,5.81,5.57-1.59,11.38,5,8.27,11.18,2.17-1.25,7.08-.35,6.95,3.79a5.41,5.41,0,0,1,6.72,3.74,5.76,5.76,0,0,1-2.65,6.65c2.09-.3,3.38,3.2,2,4.22,4.09,0,6.87,8.58,1.87,11.41,2.87,2,4.32,14.27-4.49,19.22s-21.45,2-22.09-6.08c-3.73-.91-5.31-4.93-2.8-7.13C80.2,162.5,76.41,159.44,76.17,156.39Z" style="fill:#fff;opacity:0.2"></path><path d="M107.53,174.73c8.81-4.95,7.36-17.2,4.49-19.22,5-2.83,2.22-11.41-1.87-11.41,1.4-1,.11-4.52-2-4.22a5.76,5.76,0,0,0,2.65-6.65,5.38,5.38,0,0,0-2.59-3.28c1.78,2.88,1,7.9-3.75,8.93a6.34,6.34,0,0,1-6.33-2.07s-1,1.75-5.51,1.19a6.62,6.62,0,0,1-5.56-8.58c2.11-3.57-1.2-7.94-5.47-7.28.21,9-7.58,11.72-14.92,8.21,3.57,9-4.24,13.37-8.21,9.4-1.33,3.31-5.69,2.91-7.68.92-2,2.12-8.21,0-8.21-5-3.71,4.64-10.33,3.31-10.86-1.58-2.82,3.7-6.35,1.62-6.72.16a5.82,5.82,0,0,0,2.5,3.89c-2.07,1.38-.31,3.4-.31,3.4a4,4,0,0,0-3.12,1.39c-1.29,1.53-2,4.78.19,6.83-3.18,3.12-3.49,10,.24,15.46s12.05,7.31,16.14,4.95c-.74,2.26.55,8.62,6.78,9.72s7.89-3,7.89-3,4.52,1.71,8-1.28,1.33-8.5,0-10.24c1.33,1.21,4.65-.15,4.4-2.51,4.15.75,8.92-2.52,8.42-6.44.24,3.05,4,6.11,6.47,5.13-2.51,2.2-.93,6.22,2.8,7.13C86.08,176.68,98.73,179.68,107.53,174.73Z" style="fill:#BA68C8"></path><path d="M58.58,149.31s-7.91,2.34-10.11-3.32c-4,2.33-11.56,1.76-14.1-3.32-4.29,0-6.86-4.56-6.86-4.56-2.07,1.38-.31,3.4-.31,3.4a4,4,0,0,0-3.12,1.39c-1.29,1.53-2,4.78.19,6.83a6.64,6.64,0,0,0-.91,1.12c-1.31,3.44,3.22,6.07,6,4.41-1.08,3.52,2.92,14.06,14.05,9.66,6.64,4.2,13.37-.87,12.49-10.15C59.25,154.77,60.82,151.16,58.58,149.31Z" style="fill:#fff;opacity:0.2"></path><path d="M100.64,158.68a10.21,10.21,0,0,0,2.44-8.3s-3.35,4.86-10.35,1.88-3.22-9.88-3.22-9.88-5.36.44-4.39-4.27c-1.73.86-4.39-.12-4.39-3.54-.77,5.92-5.75,8.78-12,7.42,4.19,1.56,3.9,4.81,1,7.14-3.31,3.31-2.91,11.61,5,11.31a5,5,0,0,0,1.43-4.05c.24,3.05,4,6.11,6.47,5.13h0s2.29,2,5-.6C89.66,162.92,97.23,162.74,100.64,158.68Z" style="fill:#fff;opacity:0.2"></path><path d="M91.69,173.77s6.25-9.13,5.91-9.84-5.91,8.37-9.36,10.83-10.34,6.65-12.06,6.65-1.85-2.09-1.23-6.16.75-5.17,3.57-8.86S89.45,152.7,89,152.23s-10.74,12.65-13.3,14.28S71,157.4,70.14,157.4s2.45,7.66,2.66,11.23-.19,7.85-1.79,9-6-2.34-8.81-5.42-2.89-16.37-4-16.37.72,12.2.72,13.38c0,2.57-10.83-4.46-12.78-4.15s10,4.57,14.65,9.11c4.08,4,4.78,5.21,6.17,8.14,1.48,3.11,1.91,7.13,1.91,18.58s-3.08,29.79-3.08,36.89a3.17,3.17,0,0,0,1.86,2.6,10,10,0,0,0,9,0,3.17,3.17,0,0,0,1.86-2.6h0c0-7.1-3.08-25.44-3.08-36.89s.46-15.72,3.86-18.14,9.21-6.7,11.77-7.47,10,.5,10,0S91.69,173.77,91.69,173.77Z" style="fill:#37474f"></path></g></g><g id="freepik--Bushes--inject-84"><path id="freepik--bushes--inject-84" d="M477.5,277.48c1.35-1.86,2.35-4.18,1.14-6.42-1.12-2-4.29-2.8-5.88-1.1a2.7,2.7,0,0,0-3.55-2.4,12,12,0,0,0,2.94-7.64c-.09-2.78-1.79-5.62-4.45-6.44a6.06,6.06,0,0,0,3.23-4.58c.3-2.52-1-5.21-3.56-5.77a4.09,4.09,0,0,0-5-6.16c1.1-1.12.67-3.16-.53-4.19a7.2,7.2,0,0,0-4.45-1.36c.86-1.86-.72-4.14-2.7-4.67s-4.08.24-5.86,1.26a2.73,2.73,0,0,0-2.34-2.1c-.62-.11-3.32.66-3.66.28-.23-.23.6-2.31.64-2.83a6.7,6.7,0,0,0-10.89-5.89c0-2.33-3.37-3.77-5.06-2.18.17-2.29-2.16-4.28-4.45-4.17a6,6,0,0,0-5.07,4.09c-.36-1.6-2.4-2.2-3.85-2-1.6.2-2.59,1.61-3.72,2.62a5.21,5.21,0,0,0-4.37-3.82,5,5,0,0,0-4.95,3.09c1.2-3.9-4.19-7.85-7.55-5.54a5.86,5.86,0,0,0-4.88-6.91c2.66.69,4.37-3,3.86-5.73s-2.36-5.49-5.07-6.37-6.15.62-6.8,3.39a5.57,5.57,0,0,0-7.77,4,13,13,0,0,0-2.76-.86c-.43-.05-2.41-.09-2.61.44a2.82,2.82,0,0,0-4.78-2.84,2.69,2.69,0,0,0-1.12-3.35,4.92,4.92,0,0,0-3.75-.41,3.08,3.08,0,0,0,.15-4.21,5.33,5.33,0,0,0-4.21-1.66c.28-1.42.46-3.14-.66-4.05a3.19,3.19,0,0,0-2.05-.59,7.5,7.5,0,0,0-4.77,1.76c0-1.75-2.21-2.83-3.89-2.32a6.84,6.84,0,0,0-3.63,3.62c-.65-1.41-2.19-2.69-3.64-2.15a2.72,2.72,0,0,0-1.57,2.15,8,8,0,0,0,.16,2.76,7.4,7.4,0,0,0-3.54-.49,2,2,0,0,0-1.2.82c-.13.19-.58,1-.36,1.23a9.18,9.18,0,0,0-4.06-2.69,3.61,3.61,0,0,0-4.19,1.73,5.59,5.59,0,0,0-1.8-3.84,2.24,2.24,0,0,0-2.37-.62,4.78,4.78,0,0,0-7-5.46,7.31,7.31,0,0,0-6-5.23,5.8,5.8,0,0,0-6.18,4.57,4.17,4.17,0,0,0-7.83-.13,8.75,8.75,0,0,0-4-3.51,4.8,4.8,0,0,0-3-.13c-.69.19-2.08.83-2.06,1.7a2.64,2.64,0,0,0-5.27.17,10.47,10.47,0,0,0-5-1.1c-1.7.18-3.41,1.44-3.5,3.15,0,.87.45,2-.26,2.71s-1.75.75-2.32,1.85a4.41,4.41,0,0,0-.21,3.29,4.1,4.1,0,0,0-5.74-.7,4.93,4.93,0,0,0-1.87-3.95,2.6,2.6,0,0,0-3,0,3.64,3.64,0,0,0-6.84,2.27c-.3-1.64-2.64-1.62-3.79-1.4a3.92,3.92,0,0,0-3.31,2.64,5.92,5.92,0,0,0-8.64,1.79c-.64-4.39-5.58-4.82-8.87-3.83a10.55,10.55,0,0,0-.22-3.63,4,4,0,0,0-2.17-2.52c-1.89-.76-4,.42-5.64,1.57a2.17,2.17,0,0,0-1.33-2.81,2.38,2.38,0,0,0-2.82,1.46,2.57,2.57,0,0,0-2.72-2.45,4.64,4.64,0,0,0-3.4,2.06,4.46,4.46,0,0,0-5.87-2.18,5.49,5.49,0,0,0-2.48,2.4c-.24.46-1,2.61-.37,3a4.43,4.43,0,0,0-5.43.68,4.53,4.53,0,0,0-.4,5.45c-1.19-.1-2.74.15-3.33,1.34a2.33,2.33,0,0,0,.65,2.78,3.8,3.8,0,0,0-6.11,2.62c-.42-1.67-1.5-3.45-3.21-3.63-1.53-.16-2.83,1-3.91,2.11.43-.94.81-2.18,0-2.88a2.05,2.05,0,0,0-.89-.43,8.15,8.15,0,0,0-5,.19,7.81,7.81,0,0,0,.17-2.76,2.72,2.72,0,0,0-1.57-2.15c-1.45-.54-3,.74-3.65,2.15-.82-1.55-2-3.1-3.63-3.62s-3.88.57-3.89,2.32a7.46,7.46,0,0,0-4.76-1.76,3.24,3.24,0,0,0-2.06.59c-1.11.91-.93,2.63-.65,4.05a5.33,5.33,0,0,0-4.21,1.66,3.08,3.08,0,0,0,.15,4.21,5,5,0,0,0-3.76.41,2.7,2.7,0,0,0-1.11,3.35,2.82,2.82,0,0,0-4.78,2.84c-.2-.53-2.18-.49-2.61-.44a13,13,0,0,0-2.76.86,5.57,5.57,0,0,0-7.77-4c-.65-2.77-4.09-4.27-6.8-3.39s-4.54,3.57-5.07,6.37,1.2,6.42,3.86,5.73a5.86,5.86,0,0,0-4.88,6.91c-3.37-2.31-8.75,1.64-7.55,5.54a5,5,0,0,0-5-3.09,5.2,5.2,0,0,0-4.37,3.82c-1.13-1-2.12-2.42-3.72-2.62-1.45-.18-3.5.42-3.85,2a6,6,0,0,0-5.07-4.09C75.37,211,73,213,73.21,215.29c-1.7-1.59-5-.15-5.06,2.18a6.7,6.7,0,0,0-10.89,5.89c0,.52.86,2.6.64,2.83-.34.38-3-.39-3.66-.28A2.73,2.73,0,0,0,51.9,228c-1.78-1-3.88-1.78-5.86-1.26s-3.56,2.81-2.71,4.67a7.18,7.18,0,0,0-4.44,1.36c-1.2,1-1.64,3.07-.53,4.19a4.21,4.21,0,0,0-4.86,1.16c-1.82,2.24-.55,5.58.06,8a5.47,5.47,0,0,0-2.16,9.66,5.67,5.67,0,0,0-5.21,3.83c-.59,2.23,1.06,4.93,3.36,5a4.82,4.82,0,0,0,3.59,5.55,8.48,8.48,0,0,0-7.27,1.68,6,6,0,0,0-1.56,7,3.81,3.81,0,0,0-5,.62,4.83,4.83,0,0,0-.43,5.28A6.7,6.7,0,0,0,23.24,288c-1.94,1.46-1.85,4.68-.21,6.47s4.33,2.29,6.73,1.93H472.65a3.25,3.25,0,0,0,2,0c.93-.28,2.35-2,2.89-3.47A10.73,10.73,0,0,0,478,288a5.37,5.37,0,0,0-1.82-3.06,6.56,6.56,0,0,0,2.54-3.14C479.17,280.44,478.87,278.28,477.5,277.48Z" style="fill:#455a64"></path></g><g id="freepik--Floor--inject-84"><g id="freepik--floor--inject-84"><ellipse id="freepik--floor--inject-84" cx="249.53" cy="339.84" rx="243.78" ry="140.74" style="fill:#ffbda7"></ellipse><ellipse id="freepik--floor--inject-84" cx="249.53" cy="339.84" rx="243.78" ry="140.74" style="fill:#fff;opacity:0.1"></ellipse><path d="M450.09,259.79a201,201,0,0,0-28.18-19.47c-95.2-55-249.55-55-344.76,0C-8.67,289.87-17.11,367.16,51.8,422.18c8.39-2.59,15.82-11,21.84-16.91a126.39,126.39,0,0,1,24.91-19.48c15.67-9.1,37.87-9.77,55.57-11.29,16.9-1.46,34-2.83,50.11-8.22s31.33-15.33,39.53-30.19c5.32-9.65,8.63-20.3,13.87-30s12.47-15.32,22.3-17.76c4.94-1.22,15.06-1.8,22.31-1.61,17.13.46,34.26,4.26,51.35,5.54,28.09,2.09,39.71-3,45.44-4.37,13.47-3.18,26.26-8.81,37.12-17.41C440,267.48,445.65,264,450.09,259.79Z" style="fill:#BA68C8;opacity:0.30000000000000004"></path><path d="M450.09,259.79a201,201,0,0,0-28.18-19.47c-95.2-55-249.55-55-344.76,0C-8.67,289.87-17.11,367.16,51.8,422.18c8.39-2.59,15.82-11,21.84-16.91a126.39,126.39,0,0,1,24.91-19.48c15.67-9.1,37.87-9.77,55.57-11.29,16.9-1.46,34-2.83,50.11-8.22s31.33-15.33,39.53-30.19c5.32-9.65,8.63-20.3,13.87-30s12.47-15.32,22.3-17.76c4.94-1.22,15.06-1.8,22.31-1.61,17.13.46,34.26,4.26,51.35,5.54,28.09,2.09,39.71-3,45.44-4.37,13.47-3.18,26.26-8.81,37.12-17.41C440,267.48,445.65,264,450.09,259.79Z" style="fill:#fff;opacity:0.45"></path><path d="M421.91,240.32c-95.2-55-249.55-55-344.76,0C0,284.87-14.62,351.85,33.3,404.9c11-17.58,26.52-30.1,48.07-37.47,10.75-3.67,17.92-6.56,42.78-7.74,14-.66,28.32-1.32,42.4-1.07,17.61.31,40.9-5.83,52-20.65a.62.62,0,0,1,.09-.12c8.44-9.53,14.89-22.65,22.62-40.41,3.26-7.46,7.3-12.76,14.13-17.5a49.86,49.86,0,0,1,22.62-8.6c6.38-.74,12.82-.22,19.21.29l42.2,3.39c18,1.45,37.86.47,54.58-7,7.92-3.53,14.68-8.54,21.51-13.78,4-3.06,8.69-6.54,13-9.95C426.38,243,424.18,241.63,421.91,240.32Z" style="fill:#BA68C8;opacity:0.5"></path><path d="M421.91,240.32c-95.2-55-249.55-55-344.76,0C0,284.87-14.62,351.85,33.3,404.9c11-17.58,26.52-30.1,48.07-37.47,10.75-3.67,17.92-6.56,42.78-7.74,14-.66,28.32-1.32,42.4-1.07,17.61.31,40.9-5.83,52-20.65a.62.62,0,0,1,.09-.12c8.44-9.53,14.89-22.65,22.62-40.41,3.26-7.46,7.3-12.76,14.13-17.5a49.86,49.86,0,0,1,22.62-8.6c6.38-.74,12.82-.22,19.21.29l42.2,3.39c18,1.45,37.86.47,54.58-7,7.92-3.53,14.68-8.54,21.51-13.78,4-3.06,8.69-6.54,13-9.95C426.38,243,424.18,241.63,421.91,240.32Z" style="fill:#fff;opacity:0.45"></path><path d="M77.15,240.32C18,274.49-4.41,321.86,10,366c21.06-10.25,42.58-21.31,65.48-23.85,16.82-1.87,33.83-1.14,50.74-2l1.69-.09a247.14,247.14,0,0,0,41.66-6c13-3,23-10.79,32.37-19.95,8.47-8.3,12-20.75,16.64-31.34,6.17-14.15,15.8-26.58,27.15-29.73,14.13-3.94,29-2,43.27.1,12.8,1.89,25.9,4.35,38.61,5.27,19,1.37,38.39-1.13,55.55-9.8,8.33-4.2,14.08-11.17,20.45-17.81C307.85,185.57,166.47,188.75,77.15,240.32Z" style="fill:#BA68C8"></path><path d="M77.15,240.32C18,274.49-4.41,321.86,10,366c21.06-10.25,42.58-21.31,65.48-23.85,16.82-1.87,33.83-1.14,50.74-2l1.69-.09a247.14,247.14,0,0,0,41.66-6c13-3,23-10.79,32.37-19.95,8.47-8.3,12-20.75,16.64-31.34,6.17-14.15,15.8-26.58,27.15-29.73,14.13-3.94,29-2,43.27.1,12.8,1.89,25.9,4.35,38.61,5.27,19,1.37,38.39-1.13,55.55-9.8,8.33-4.2,14.08-11.17,20.45-17.81C307.85,185.57,166.47,188.75,77.15,240.32Z" style="fill:#fff;opacity:0.30000000000000004"></path><path d="M233.34,349.41C250.62,336,252,309,267.68,295.7c13.21-11.24,33.67-8.73,88-3.28,0,0-39.6-5.86-61.15-6.8-16.59-.72-25.21,1.62-35.4,13.74C248.18,312.36,248.33,332.9,233.34,349.41Z" style="fill:#fafafa"></path><path d="M444.54,265.74a69.84,69.84,0,0,1,6.6-5.05c-1.15-1-2.33-1.95-3.53-2.91-3,2.45-5.67,5-7.94,7.16-12.57,11.92-29.37,20.22-38.79,22.52C413.33,285.47,427.72,280.32,444.54,265.74Z" style="fill:#fafafa"></path><path d="M189.48,324.72s-13.65,11.87-38.8,16.11C126,345,80.18,339.33,61,344.54c0,0,13.48-6.57,48.56-6.57C152.11,338,161.68,340.13,189.48,324.72Z" style="fill:#fafafa"></path><path d="M57.19,419.64c9.19-3.53,17.7-15.48,29.71-24.62,11-8.36,27.28-17.56,65.14-20.35,0,0-25.62-.55-43.9,5.6s-24.67,12.62-30.88,19.66C66.44,412.2,60.41,417.94,57.19,419.64Z" style="fill:#fafafa"></path><path d="M332.65,274.48c4.07.32,21.23,3.35,36.44,1.14s27.47-6.1,40-16.4c0,0-14.87,9.2-31.19,12.62A156.36,156.36,0,0,1,332.65,274.48Z" style="fill:#fafafa"></path><path d="M193.7,354.41c5.85-2.25,16.39-6.17,25.72-18.75s13-21.45,18.88-34.84S252,282.54,252,282.54s-8.45,10.38-12.71,22.14-9.73,23.72-18.86,33.66S204.2,351.68,193.7,354.41Z" style="fill:#fafafa"></path><path d="M114.32,360.31s-12.4-.69-34.35,5.61a90.56,90.56,0,0,0-26.83,12.37c-6.14,4.27-18,16.59-21.23,23.32-.19.38-.36.74-.53,1.1,1,1.13,2,2.25,3,3.37a55.81,55.81,0,0,1,4.22-6.79,66.09,66.09,0,0,1,6.69-7.85c1.19-1.18,2.43-2.33,3.69-3.47,7.48-6.78,16.46-12,25.59-16.19A143.39,143.39,0,0,1,114.32,360.31Z" style="fill:#fafafa"></path><path d="M368.44,254.45c-9.55,6-24.3,7-45.51,5.09s-60.62-11.33-79.07-5.93c0,0,6.72-5,31-3.41,22.1,1.47,51.38,7.29,66.28,7.31C361.81,257.54,368.44,254.45,368.44,254.45Z" style="fill:#fafafa"></path><path d="M421.91,240.32c-2.27-1.31-4.59-2.58-6.93-3.83a32.33,32.33,0,0,0-3.68,2.39c-2.25,1.72-4.5,3.75-7.75,3.62-2.7-.1-5.5-1.65-8.11-3.17-2.05-1.18-4.29-2.55-5.36-4.58-1.61-3,0-5.7,1-8.23.14-.36.27-.73.39-1.1q-4.32-1.8-8.74-3.47a5.71,5.71,0,0,1-.71,1.5c-3,4.4-12,5.87-20.19,7.11s-17.09,3-19.37,7.61c-1.72,3.48.85,7.78-.11,11.46-1.22,4.55-7.19,6.19-11.75,6.81-6.3.85-13.38-1.06-20.11-2.1a51,51,0,0,0-14.66.06c-6.05.78-15.29,3.86-19.1.31-2.41-2.25,5-3,7.81-4.35,5-2.38,6.27-6.74,4.33-11s-6.7-8.22-12.41-11.62c-2.9-1.71-6.08-3.32-8.26-5.31-5.57-5-1.55-11.45,7.5-12,5.81-.35,12.31,1.33,18.27,1.3,8.74,0,14.54-3.64,20.18-6.72.44-.25.9-.48,1.36-.72-3.81-.62-7.65-1.18-11.49-1.69l-.68.29a30.51,30.51,0,0,1-6.72,2.42c-7.58,1.51-18.63-1.35-24.89,1.29-1.69.69-3.23,1.82-5.63,1.46a6,6,0,0,1-3.89-2.19,19,19,0,0,1-1.41-2.92,11,11,0,0,0-3.74-3.83q-6-.1-12,0c.56.33,1.05.64,1.4.89,5.25,3.81,7.72,9.61,8.86,14.95.39,1.74.73,3.57-.53,5-2.14,2.35-7.88,2.56-12.86,2.83-14.21.8-27.1,3.85-36.92,8.76-2.77,1.37-5.31,2.91-6.84,4.87-2.64,3.36-2.22,7.83-6.7,10.35-6.1,3.42-17.77,1.59-27.55-.39a22.21,22.21,0,0,1-6.1-1.87c-3.77-2.06-3.06-5.2-1-7.27a19,19,0,0,1,6.56-4.11c2.92-1.17,6.44-2,9.1-3.31,5-2.57,6.45-7.16,3.59-11.49a10.36,10.36,0,0,0-4.14-3.6c-2-1-4.44-1.47-6.54-2.38a12.41,12.41,0,0,1-4.87-3.54q-7.65,1.72-15.13,3.76c1,.15,2,.32,3.06.54,8.53,1.84,16.5,7,16,11.63-.86,9.29-17.39,6.2-18,16.09-.13,2.24.19,4.67-.52,6.67-1.06,2.94-4.12,4.34-5.36,7.15-1.48,3.35-.55,7.71.43,11.71,1.07,4.37,2.25,9,.78,12.64a8.37,8.37,0,0,1-5,4.74,45.61,45.61,0,0,1-18.94.83,32.09,32.09,0,0,1-6.13-1.48c-6.22-2.44-6.76-7.38-4.22-10.54s7.24-5.59,8.53-9.12c1.21-3.3-.8-7.21-4.33-10.64s-8.46-6.43-13.61-9.25c-2.07-1.14-4.24-2.29-5.47-3.69a5,5,0,0,1-1.19-4.42,10,10,0,0,1,1.29-3.34q-8,3.9-15.62,8.26C60,250.21,46,261.2,35,272.91A13.57,13.57,0,0,1,29.62,279a122.33,122.33,0,0,0-8.37,11.35,42.11,42.11,0,0,0,4.93.79,22.54,22.54,0,0,0,13.06-2.73c15.62-9,5.39-28.1,21.53-36.78a43.38,43.38,0,0,1,12.06-3.83c5.75-1.11,13.14-1.52,19,1.07,4.09,1.82,6.35,4.71,6.84,7.34s-.48,5.07-1.45,7.47l-4.11,10.07c-1.34,3.34-2.06,7.65,3.38,10.36,5.26,2.61,14.16,2.41,17.07,5.86,1.39,1.64.48,3.31-.77,4.66-7,7.57-22.68,10.69-34,16.17-3.94,1.93-7.47,4.31-8.14,7.46-.39,1.9.27,4,0,5.92s-1.94,3.83-5.3,4.11c-4.91.38-9.73-2.68-14.16-4.82-8.51-4.14-19.39-5.72-28.58-9.27a51.77,51.77,0,0,1-10.8-5.65c-.8,2-1.51,4.05-2.15,6.09.79.32,1.58.63,2.39.92,4.58,1.68,10.2,3.62,11,6.41s-4.29,4.24-7.77,5.82c-6.91,3.18-8.45,9.5-3.71,15.07,2.09,2.44,5.27,4.76,6.25,7.27s-.47,4.9-3,6.61c-2,1.39-4.5,1.87-6.59,3.07q.66,2.66,1.49,5.3c.68-.32,1.38-.63,2.07-.94,5.52-2.42,11.41-4.69,15.42-7.95,3.38-2.75,5.12-6.77,1.1-10.25-1.86-1.63-4.67-2.86-6.73-4.41-6.41-4.77-3.21-11.1,4.54-13.18s18.27-.78,27.68,1.53A121.78,121.78,0,0,1,74.5,337c6.07,2.73,12,6,19,7.29,8.69,1.59,16.61-.37,25.18,0,2.29.09,4.93.44,6.53,1.57a4.74,4.74,0,0,1,1.7,2.46q1.91,5.24,3.81,10.43c.76,2,1.48,4.14.2,5.81s-4.08,2.43-6.71,3.29c-14.94,4.89-26.44,12.44-33,21.63-.48.69-1,1.4-1.48,2.08a102.66,102.66,0,0,1,8.82-5.76,67.24,67.24,0,0,1,19.6-7.12,103.25,103.25,0,0,1,9.54-6.12c3.83-2.19,8.37-4.34,14.47-4.27a74.56,74.56,0,0,1,9.17,1c4.76.6,9.56.82,14.27,1.79a33.5,33.5,0,0,1,6,1.81c3.74-.42,7.47-.89,11.17-1.48a9.26,9.26,0,0,0-.75-.58c-2.83-1.93-7.26-2.81-11.25-3.15s-8-.28-12-1c-9.25-1.54-17-7-18.83-12.25s1.35-10.06,6.82-13.45,13.06-5.47,20.83-7.22c7.24-1.61,16-2.88,24.17-.27,8,2.56,13.06,8.2,21.4,10,6,1.34,13.3.71,17.36,3.72a3.94,3.94,0,0,1,1.82,3,55.46,55.46,0,0,0,11.38-14.2,198.77,198.77,0,0,0,8.37-18.3c-5.25.73-10.07,2.08-12.16,4.74-3.69,4.67,2,12.26-4.77,15.47-4.75,2.26-13.27.9-19.78-1.52s-12-5.76-18.68-8a71.66,71.66,0,0,0-17.06-3.3,8.18,8.18,0,0,0-2.13.11c-3.46,1.13-8.65.85-11.45-1.47s-1.6-5.64.26-7.64c2.67-2.88,8.1-4.5,14.08-5a94.5,94.5,0,0,1,18.95.72c9,1.06,18.7,2.68,26.13.9a22.89,22.89,0,0,0,8-3.71,25.08,25.08,0,0,0,8.81-10.31c1.66-3.86,2-8.11,4.92-11.57,3.53-4.19,11.29-7,20.44-6.36,6.79.47,14,3.17,18,6.65,3.36-.38,7.29-.61,11-.68a4.88,4.88,0,0,0-.45-.74c-2-2.63-8.77-5.34-12.21-6.7-5.33-.32-10.81-.67-16-2.09S257.9,273,257,270c-1.34-4.45,6-7,13-8.12a162.65,162.65,0,0,1,44.18-.63c8.26,1,16.94,2.51,24.38,1.54,11.34-1.46,16.28-8.39,16.14-15.3a10.37,10.37,0,0,1,.35-4.31c2.05-4.75,13.2-5.72,22.4-3.56,8.44,2,16,6.09,19.95,10.81s4.12,9.89.53,13.68c-2.35,2.48-6.16,4.31-9.78,6.17-3.88,2-7.78,5-4.61,8.27,1.87,1.91,5.93,3.44,6.3,5.42.22,1.12-.86,2-2.06,2.72-3.87,2.34-9.35,3.81-15.51,4.13-11.15.59-23.62-2.44-34.88-2a49.09,49.09,0,0,0-7.05.76c7.78,1.07,15.55,2.17,23.31,2.75,28.09,2.09,39.71-3,45.44-4.37,1-.24,2-.5,3-.76.92-2.11.27-4.63-2-6.86a31.7,31.7,0,0,1-3.14-3.08c-2.81-3.83,2.2-6.88,6.46-9.28,4.48-2.51,8.66-5.57,8.43-9.58-.07-1.56-.84-3.2-.63-4.72.29-2,2.16-3.54,4.06-5a24.54,24.54,0,0,1,11.64-5.32Q424.46,241.8,421.91,240.32ZM201.78,303.87c-5.23,1.51-11.94,1.47-18.38,1.42s-13.15-.07-18.32,1.51c-4.92,1.49-7.9,4.28-10.66,7-2,2-4,4.09-3.81,6.62.13,2.37,2.2,4.9,2,7.23s-2.61,4.32-5.54,5.77c-4.54,2.2-6.44,2.47-12.67,3.54,0,0-1.95.24-2.51.39-1.09.3-3.56.59-5.65.88-10,1.42-16.85,3-28,1.09-6.07-1-12.47-3.06-15.91-6.28a8.46,8.46,0,0,1-2.93-6.45c0-9,12-14.85,23.26-19.87l29.77-13.28c9.1-4.06,18.8-8.76,19-16,.19-5.61-5.47-11.87-3.57-17.12,2.18-6.1,14.18-8.73,26-7.78,8.58.71,17.93,3.23,23.64,7.57a20.61,20.61,0,0,1,4.74,5.05c1.36,2,2.31,4.21,1.27,6-.75,1.27-2.48,2.2-3.83,3.28-5,4-4.21,10.34,1.81,15.37,2.08,1.74,4.73,3.36,6.11,5.25C210.3,298.74,207,302.34,201.78,303.87Zm65.61-50.56c-5.34,2.44-9.89,4.69-16.15,6.45-4.85,2-6,6.39-2.57,10.13a15.23,15.23,0,0,1,2,2.31c1.65,3.12-3.75,4.88-7.61,6.55-5.83,2.53-9.06,6.74-8.76,11.38.2,2.92,1.72,6.08.39,8.7s-7.3,4.28-11.79,2.15c-5.24-2.48-2.81-6.8-6.27-10.05-1.5-1.41-4-2.53-5.09-4-1.44-2.05.49-3.85,2.15-5.41,3.58-3.29,6.27-7.15,5.51-11.47-1-5.84-8.1-11.57-15.15-16.75a12.45,12.45,0,0,1-3.23-2.95,3.58,3.58,0,0,1-.22-3c2.2-7.58,14.38-11.65,25.77-15.07,7.74-2.31,15.85-4.65,25.45-4.58s21.16,3.27,25.79,8.66a7.42,7.42,0,0,1,.33,10C275.64,249.18,271.64,251.36,267.39,253.31ZM72.55,394c-2.22-1.83-1.9-4.29-3.46-6.34-2-2.69-4.42-2.61-6.84-2.24-6.47,1-12.63,2.68-18.89,4.12C36.93,391,30.21,392.68,23,391.9a126.27,126.27,0,0,0,11.55,14.35,100.91,100.91,0,0,1,31.12-3.05,58.48,58.48,0,0,0,9.89.06l.2,0c2.85-2.7,5.8-5.31,8.86-7.77C81.21,396.64,75.37,396.25,72.55,394Z" style="fill:#fff;opacity:0.1"></path><path d="M7.24,348.2c-.35-.22-.73-.43-1.11-.65a84.46,84.46,0,0,0,2,12l.5-.38C12.49,355.9,11.89,351.12,7.24,348.2ZM428,267.61c-1.09-.52-2.55-.74-3.74-1.22a5,5,0,0,1-3.3-4.61c-.14-2.82,1.37-5.9,5.44-7.44s9.42-1.17,13.76-2.27q-3.5-2.52-7.24-5c-2.43.63-5.05.34-7.65,1.12a26.91,26.91,0,0,1-7,1.33c-2,.06-5.57-.19-7.15-1.71s-1.13-4.36-2.69-6a19.66,19.66,0,0,0-4.91-3.63c-1.91-1.07-4.07-2.09-5.07-3.52a1.75,1.75,0,0,1-.18-.29,4.2,4.2,0,0,1,.28-4.25,10.33,10.33,0,0,1,.86-1.29c-2-.9-4-1.79-6.06-2.65a10.77,10.77,0,0,0-1.39,1.29,5.66,5.66,0,0,0-.68,7.3c1.73,2.56,5.39,4.5,8.51,6.57s6,4.65,5.43,7.39a6.7,6.7,0,0,1-2,3.23,20.88,20.88,0,0,1-10.88,5.56c-4.68.93-10.31.47-13.86-1.52-1.22-.69-2.17-1.51-3.28-2.26-3.74-2.49-9.48-3.94-15.19-3.83s-11.27,1.79-14.69,4.43c-2.11,1.61-2.68,3.76-4.68,5.42s-5.14,1.1-8,1.06a4.39,4.39,0,0,1-1.82-.28c-1-.49-.54-1.45.17-2.11,5.33-5,18-7,20.61-12.69.89-1.94.44-4.05,1.83-5.88,1.65-2.17,5.5-3.45,8.9-4.8s6.85-3.18,6.92-5.56c.1-2.83-4.6-5-5.74-7.7-.82-2,.28-4,2.18-5.71q-3.21-1-6.45-1.95c-1,.55-2,1.11-2.94,1.65-1.18.68-2.42,1.38-2.82,2.31-1,2.28,3.26,4.05,5.36,6.07a4.08,4.08,0,0,1,.8,5.5,14.76,14.76,0,0,1-5.15,4.16,21.6,21.6,0,0,1-11.61,1.52c-3.4-.69-6.56-2-10.16-1.89-1.89,0-3.94.49-5.57-.06-2.47-.85-1.63-3-2.18-4.61s-3-3-4-4.7c-1.36-2.33.29-4.94,3.09-6.77s6.61-3,10.33-4.19a55.45,55.45,0,0,0,8.66-3.27c-2.78-.67-5.58-1.3-8.39-1.91-2.14.82-4.4,1.55-6.48,2.42a31.37,31.37,0,0,0-9,5.49c-2,1.84-3.58,3.94-3.51,6.13.06,2.72,2.59,5.22,3.33,7.89.79,2.82-.51,5.82-3.47,8.09a14.14,14.14,0,0,1-10.37,2.63c-5.72-1-7.91-4.89-11.28-7.73a3,3,0,0,1-.42-.69,11.42,11.42,0,0,1-1.78-7.86c.29-1.87.95-4-1.13-5.42a13.4,13.4,0,0,1-1.87-1.21c-1.31-1.39,1.13-3,3.73-3.57s5.57-.49,7.87-1.33c3.34-1.24,4.1-3.91,3.52-6.17-.29-1.11-.81-2.21-.49-3.32a2.6,2.6,0,0,1,.31-.68q-7.59-1-15.27-1.7a3,3,0,0,0,1.26,2.18c1.95,1.5,6.12,2,7,3.79.59,1.25-.73,2.54-2.35,3.42a21.1,21.1,0,0,1-8.82,2.29c-3.21.17-6.43-.27-9.66-.34a58.83,58.83,0,0,0-10.05.8c-4.2.66-8.64,1.75-10.7,4-2.9,3.12-.36,7.68-5,10-3.24,1.64-8.34,1.14-12-.11s-6.7-3.13-10.51-4.29a38.25,38.25,0,0,0-10.13-1.35,5.21,5.21,0,0,0-1.33.16c-2.29.86-5.47.9-6.9-.44s-.25-3.5,1.18-4.85c2-1.94,5.6-3.2,9.37-3.81a57.13,57.13,0,0,1,11.64-.35c5.43.29,11.22.89,16.06-.55a19,19,0,0,0,5.42-2.7,23.48,23.48,0,0,0,6.82-6.9c.51-.84.94-1.71,1.37-2.57-1.77-.05-3.55-.08-5.32-.11a5.44,5.44,0,0,1-.81,3.09c-1.15,1.73-5.08,3-7.58,1.87s-1.43-3.2-1.94-5q-4.14,0-8.26.16a6.71,6.71,0,0,1,1.55,1.73c1.16,2.21-1.35,4.63-4.78,5.82s-7.58,1.45-11.57,1.69-8.13.52-11.54,1.75a22,22,0,0,0-7.53,4.9c-1.48,1.34-3,2.76-3.23,4.35s.72,3,.32,4.5-2.18,2.84-4.19,3.88c-3.1,1.6-4.31,1.85-8.31,2.79,0,0-1.24.24-1.61.36-.71.23-2.28.53-3.61.8-6.39,1.33-10.82,2.61-17.5,1.9-3.63-.4-7.32-1.41-9-3.3a4.27,4.27,0,0,1-1-4c1.2-5.7,9.39-9.92,17-13.58q10.08-4.86,20.17-9.69l.57-.28c-4.37.61-8.73,1.27-13.06,2-5.37,5-15.36,7.64-23,11.55-2.69,1.39-5.19,3.05-6,5.07-.49,1.23-.35,2.52-.79,3.75a4.61,4.61,0,0,1-3.82,2.84c-3.09.45-5.68-1.28-8.14-2.45-4.72-2.25-11.24-2.79-16.46-4.64-.45-.16-.93-.35-1.4-.55q-2.59.94-5.16,1.92c2.58.85,5.68,1.84,5.77,3.53s-3.21,2.87-5.57,4c-4.7,2.32-6.49,6.38-4.29,9.71,1,1.45,2.64,2.78,2.92,4.33s-.94,3.12-2.71,4.32c-1.45,1-3.08,1.39-4.54,2.25a38.22,38.22,0,0,1-4.82,2.44,43.38,43.38,0,0,1-10.45,2.73c-6.58.92-13.25.39-19.81.74a25.71,25.71,0,0,1-13.61-2.85c-.21-.12-.4-.24-.59-.37a154.23,154.23,0,0,0-29.39,27.87,6.33,6.33,0,0,0,3.74,4.17,23.47,23.47,0,0,0,8.53,1.71,64.87,64.87,0,0,0,10.8-.3c3.77-.42,7.68-1.16,11.32-.46,4.32.84,6.89,3.62,6.78,6.24s-2.42,5.08-5.31,7.1a24.06,24.06,0,0,1-6.44,3.3,29.12,29.12,0,0,1-18.23-.35c-4.54-1.73-7.49-4.59-12-6.34a35.13,35.13,0,0,0-8.29-1.87c-.54.92-1.07,1.85-1.58,2.77,5.88.8,11.34,2.59,14.65,5.46,4.36,3.79,3.76,9.56-2.52,12.32a26.56,26.56,0,0,1-8.93,1.83,40.55,40.55,0,0,1-11.06-1q-1,3.38-1.73,6.76c4.11,2.34,11.37,3.16,13,6.38,1.45,2.87-2.82,5.71-7.47,7.05-2.35.68-4.89,1.15-7.36,1.69,0,1.32,0,2.64,0,4l.44-.16c1.9-.63,4.46-1.28,6.32-2,2.62-.95,6.3-3.25,9-4.15a29.71,29.71,0,0,1,5.9-1,23.12,23.12,0,0,1,6.9,1,10.65,10.65,0,0,1,4,1.77c1.94,1.67.7,3.9-.51,5.81s-2.28,4.17-.14,5.77c1.5,1.09,4.12,1.46,6.56,1.5s4.89-.16,7.27.1c5.53.57,9.6,3.72,10,7s-2.15,6.43-6,8.8-8.8,4-13.85,5.47c-4.7,1.33-10.29,2.51-15,1.21s-7-4.62-11.93-5.44a36.92,36.92,0,0,0-4.55-.32c.54,1.58,1.11,3.16,1.74,4.74.16.05.34.09.5.15,3.71,1.24,6.7,3.12,10.51,4.28a38.25,38.25,0,0,0,10.13,1.36,5.27,5.27,0,0,0,1.33-.17c2.29-.86,5.47-.9,6.89.44s.25,3.5-1.17,4.85c-2,1.94-5.6,3.2-9.38,3.81a55.59,55.59,0,0,1-11.19.38c.8,1.31,1.65,2.62,2.53,3.93,2-.25,4.05-.38,6.06-.51,4-.24,8.13-.52,11.54-1.74a22.16,22.16,0,0,0,7.53-4.91c1.48-1.34,3-2.76,3.23-4.35s-.72-3-.32-4.49,2.19-2.84,4.19-3.89c3.11-1.6,4.32-1.84,8.32-2.79,0,0,1.23-.23,1.6-.35.71-.24,2.28-.53,3.62-.8,6.38-1.33,10.82-2.61,17.49-1.9,3.63.39,7.33,1.4,9,3.3a4.24,4.24,0,0,1,1,3.95c-1.19,5.71-9.38,9.92-17,13.59l-20.18,9.69c-6.17,3-12.79,6.36-13.88,11-.78,3.23,1.35,6.6.35,9.73q1.88,1.68,3.82,3.32a15.13,15.13,0,0,0,.79-6.45c-.08-2.72-.2-5.62,1.19-8a7.6,7.6,0,0,1,3.73-3.21,29.14,29.14,0,0,1,11.83-1.35,16.78,16.78,0,0,1,3.6.67c3.53,1.28,3.22,4.39,1.22,6.5s-5.22,3.85-6.48,6.15a3.91,3.91,0,0,0-.28.63c3.45-3,6.63-6.41,9.49-9.22,1.86-1.83,3.76-3.62,5.71-5.35l-.06,0c-2.91-1.43-8.45-.92-9.79-3-.64-1,.14-2.08,1.09-3,5.32-5.09,15.45-7.75,23.15-11.7,2.7-1.39,5.2-3.05,6-5.07.49-1.22.36-2.51.8-3.75a4.6,4.6,0,0,1,3.82-2.83c3.09-.46,5.67,1.27,8.13,2.45,4.19,2,9.8,2.64,14.65,4.06,4.67-.67,9.38-1.14,14-1.54a6.7,6.7,0,0,1-.6-2.53c-.06-2.87,2-5.71,1.08-8.43s-4.48-4.41-4.32-7.28c.11-1.83,1.77-3.17,3.42-3.94,4-1.87,8.89-2,12.17-4.92a36.82,36.82,0,0,1,3.16-3.09,10.93,10.93,0,0,1,4.19-1.51,64.22,64.22,0,0,1,28.3.69c3.25.82,6.86,2.28,7.93,5.47a6.94,6.94,0,0,1-1,5.88,13.6,13.6,0,0,1-4.56,4.06c-6.29,3.74-14.4,5.1-18.72,11a19.74,19.74,0,0,0-1.23,2c2.33-.26,4.67-.54,7-.86a8.21,8.21,0,0,1,2.76-2.67,41.79,41.79,0,0,1,6.75-2.63,27.87,27.87,0,0,0,10.68-7.18c3-3.28,5.45-5.94,9.82-7.42a31.07,31.07,0,0,1,12.4-1.22A13.65,13.65,0,0,1,225.3,352a6.4,6.4,0,0,1,2.46,2.09,64,64,0,0,0,5-4.16,8.33,8.33,0,0,0-.73-.48c-7.67-4.41-17.66-.55-25.06-5.59a9.55,9.55,0,0,1-2.12-1.78c-1-1.27-.82-2.41-.22-3.8,1.54-3.55,5.51-6.56,9.47-9.41,3.18-2.29,6.47-4.62,8-7.42s.76-6.22-3.15-8.09a23.63,23.63,0,0,0-8.53-1.71,67.09,67.09,0,0,0-10.8.3c-3.77.42-7.68,1.16-11.31.46-4.32-.84-6.89-3.61-6.78-6.23s2.42-5.09,5.3-7.11a24.11,24.11,0,0,1,6.45-3.29,29.12,29.12,0,0,1,18.23.34c4.54,1.73,7.48,4.6,12,6.35,7.91,3,18.53,1.94,27.6,3.63a5.17,5.17,0,0,1,2.84,1.15c.76,1-.61,2-2.19,2.53s-3.47.63-5,1.16c-2.76,1-3.86,3.07-3.38,4.92s2.25,3.48,4.12,5c.81.66,1.67,1.3,2.57,1.93,2.4-5.65,4.72-11.34,7.64-16.72.25-.48.52-.94.79-1.39-.53-.29-1-.6-1.6-.87-4.7-2.29-11.63-1.66-17.78-1.81-7.88-.19-16-2.11-20.38-5.91s-3.77-9.56,2.51-12.32A26.61,26.61,0,0,1,230.1,282a38.89,38.89,0,0,1,15.11,2.15c2.82,1.05,5.32,2.44,8.5,3a22,22,0,0,0,14.48-2.67c3.71-2.23,5.86-5.14,7.94-8a5.56,5.56,0,0,1,4.4-2.59,4.37,4.37,0,0,1,3.92,2,11.12,11.12,0,0,1,.61,3.21c.47,2.25,2.67,4.38,5.89,5.69l.79.16a27.9,27.9,0,0,1,9-.38,8.81,8.81,0,0,1,5.09,2.32c1.52.08,3,.19,4.55.31a4.05,4.05,0,0,1-1.87-4.27c.32-1.54,1.52-3,2.69-4.4l7.73-9.32c1.86-2.24,4.3-4.74,8.53-5.16,4-.41,8.16,1.28,12.06.6a8.34,8.34,0,0,0,5.79-3.87c1-1.66,1.66-3.48,3.46-4.91,2.73-2.16,7.87-3,12.43-2.52a24.19,24.19,0,0,1,11.39,4.29c1.9,1.38,3.44,3,3.61,4.74.31,3.47-4.77,6.3-10,8s-11.18,2.88-15.17,5.47c-4.61,3-5.68,7.16-7.2,11a19.58,19.58,0,0,1-2.2,4.15c4,.49,7.95.93,11.93,1.23,3.27.24,6.3.38,9.14.45,3.48-.84,7.64-1.3,10.75-.14,3.49-.19,6.55-.51,9.25-.9a44,44,0,0,0-4.28-2.67,8.8,8.8,0,0,1-2.89-2.09,2.84,2.84,0,0,1-.16-2.75c1.05-2.78,4-5.16,7.16-7.33a59.57,59.57,0,0,1,16-7.77,35,35,0,0,1,15.09-1.49c5.05.8,9.31,3.72,8.42,6.69-1.75,5.87-11.44,4.7-13.22,10.83q3.45-1.17,6.81-2.59h0a16.83,16.83,0,0,1,4.59-2.89c2-.86,4.25-1.52,6.08-2.48,3.44-1.84,4.93-4.81,3.73-7.44A4.28,4.28,0,0,0,428,267.61ZM194.87,232.7c3.84-2.38,8.8-4,13.84-5.47,4.7-1.33,10.29-2.51,15-1.21s7,4.63,11.92,5.44c3.52.59,8.15-.13,10.27,1.61,1.23,1,.82,2.43-.21,3.52s-2.62,2-3.83,3c-3.85,3.28-3.24,8.06,1.41,11,1.81,1.13,4.28,2.17,4.43,3.71.12,1.26-1.5,2.4-3.42,3s-4.46,1.27-6.32,2c-2.63.95-6.31,3.26-9,4.15a28.86,28.86,0,0,1-5.9,1,22.89,22.89,0,0,1-6.9-1,10.59,10.59,0,0,1-4-1.76c-1.94-1.68-.71-3.91.51-5.81s2.27-4.17.13-5.77c-1.5-1.09-4.12-1.47-6.55-1.51s-4.89.17-7.28-.09c-5.52-.58-9.59-3.73-10-7S191,235.08,194.87,232.7ZM98.79,259.47c2-2.52,5.7-4.49,9.44-6.27s7.68-3.47,10.59-5.71c2.46-1.88,4.07-4.5,2-6.54-.93-.95-2.51-1.6-3.58-2.49-3.34-2.75-.52-6.9,4.55-8.55s11.41-1.28,16.93-.22a57.32,57.32,0,0,1,11.89,3.6c3.39,1.47,6.61,3.31,10.78,3.81,5.16.63,10.33-.95,15.59-1.1,1.4,0,3,.06,3.83.71a2.08,2.08,0,0,1,.73,1.48c.33,2.16.66,4.3,1,6.44.21,1.24.37,2.56-.65,3.67s-2.84,1.72-4.59,2.38c-9.88,3.74-18,9-23.25,15.11-1.26,1.46-2.42,3-4.67,4s-6,1-7.47-.36c-1.14-1.06-.62-2.63-1.32-3.86-.9-1.62-2.39-1.47-3.94-1.13-4.13.91-8.16,2.24-12.23,3.42-4.42,1.28-9.07,2.74-13.69,2.35-4-.34-8.28-1-10.9-2.82C96.71,265.26,96.77,262,98.79,259.47Zm-33,22.71c-8.35-.86-16.81,1.89-25.12.68-2.22-.33-4.7-1.21-5.42-3.33-.61-1.78.38-3.79,1.83-5a16.12,16.12,0,0,1,5.08-2.39c4.36-1.51,8.41-3.55,10.68-7.67a9.33,9.33,0,0,1,2.11-2.88c2-1.62,5.8-.57,8.19-.53,6.89.11,13.79.23,20.68.3,4.13,0,6.36,1.16,8.31,3.67a25.94,25.94,0,0,1,2.07,3.25,11.3,11.3,0,0,0,8.41,6.09c1.73.2,4.06.44,4.27,2.16a2.4,2.4,0,0,1-1.63,2.31,13.48,13.48,0,0,1-3,.59c-1.76.31-3,1.5-4.59,1.85-1.79.38-3.92-.46-5.49-1.22-1-.5-2.83-2.09-4-2.15a16.79,16.79,0,0,0-8.1,1.8c-1.83.92-3.53,2.15-5.49,2.72C71.75,283.25,68.72,282.5,65.76,282.18Zm-.08,21.23c2.09-2,4.71-3.42,6.59-5.62,2.49-2.91,3.4-6.83,5.86-9.75,2.67-3.16,6.07-6,10.26-4.22,1.69.71,3,1.8,4.75,2.36,2.17.68,4.44,1,6.61,1.71a6.39,6.39,0,0,1,1.93.93l.15.1a6.77,6.77,0,0,1,1.34,1.79c2.26,3.8,4.5,11,9.59,12,4.22,1.45,8.87-.43,13.3.07,1.78.19,3.57.77,5.32.39,2.53-.53,4.63-3,7.19-2.6s3.75,3.18,3.65,5.63-1.17,4.75-1.59,7.17a17.71,17.71,0,0,1-.94,4.54c-.92,2-2.92,3.19-4.87,4.16a50.83,50.83,0,0,1-12.75,4.35c-3.85.77-8.34.9-11.18-1.82a15.63,15.63,0,0,0-2.56-2.52c-2.38-1.43-5.4.08-8.17,0-4.93-.1-8.17-5-12.16-7.85A17.13,17.13,0,0,0,77.08,311c-3.24.2-6.34,1.3-9.51,2a4.61,4.61,0,0,1-2.87-.06,3.26,3.26,0,0,1-1.57-1.77C62,308.49,63.6,305.42,65.68,303.41Zm-3.57,45.14a41.08,41.08,0,0,1-5.55-.22c-2.87-.18-5.81-.11-8.6-.53s-5.56-1.43-6.39-3c-1.33-2.61,2.9-5.14,2.86-7.86,0-1.89-2.43-3.7-5.61-4.2a52.36,52.36,0,0,0-7-.16c-2.35-.06-5-.58-5.81-1.85-.56-.84-.17-1.79-.44-2.69C24.69,324.91,17,324,15.24,321a.79.79,0,0,1-.11-.78c.28-.53,1.42-.71,2.37-.76,4.58-.3,10,.13,13.05-1.87l.63-.15a17,17,0,0,0,7-5.6,17.34,17.34,0,0,1,2.3-3.39,7.26,7.26,0,0,1,5.07-1.87,10.43,10.43,0,0,1,5.37,2c2.09,1.33,4.3,2.86,4.15,4.64-.16,2.06-3.39,3.68-3.68,5.72-.32,2.35,4.33,4.44,8.19,3.65,2.32-.45,3.93-1.64,5.73-2.6a25.86,25.86,0,0,1,6.9-2.44,20,20,0,0,1,8.23-.17,15.87,15.87,0,0,1,5.37,2.49c2.19,1.47,4.23,3.08,5,5,1.54,3.53-1.53,7.15-4.95,10.21a87.39,87.39,0,0,1-14.24,10.23A21.25,21.25,0,0,1,62.11,348.55Zm89.61-9.28c-2,2.52-5.7,4.49-9.45,6.27s-7.68,3.46-10.59,5.7c-2.46,1.88-4.06,4.51-2,6.54.93,1,2.51,1.61,3.58,2.5,3.33,2.74.52,6.9-4.55,8.55s-11.41,1.28-16.94.21a57.23,57.23,0,0,1-11.88-3.6c-3.39-1.47-6.62-3.31-10.78-3.8-5.17-.63-10.33.95-15.59,1.1a6.7,6.7,0,0,1-3.84-.71,2.09,2.09,0,0,1-.73-1.49c-.32-2.15-.66-4.3-1-6.44-.21-1.23-.37-2.56.64-3.67s2.84-1.71,4.59-2.38c9.89-3.73,18-9,23.26-15.11,1.25-1.45,2.42-3,4.67-4s6-1,7.47.36c1.13,1.05.62,2.62,1.31,3.86.91,1.62,2.39,1.47,3.94,1.13,4.14-.92,8.17-2.24,12.23-3.42,4.43-1.29,9.07-2.75,13.69-2.36,4,.35,8.28,1,10.9,2.82C153.79,333.48,153.73,336.72,151.72,339.27Zm33-22.72c8.36.86,16.81-1.88,25.12-.68,2.22.34,4.7,1.21,5.42,3.33.62,1.79-.37,3.79-1.82,5a16.25,16.25,0,0,1-5.09,2.38c-2.21.77-4.79,1.64-6.61,3.16s-2.25,3.76-3.52,5.78a6.28,6.28,0,0,1-6.4,3,50.76,50.76,0,0,0-8.6-.95q-11.67-.17-23.34-.35a2.7,2.7,0,0,1-1.73-.42c-.68-.53-.68-1.52-.72-2.39a11.17,11.17,0,0,0-9.53-10.09c-1.73-.2-4-.45-4.27-2.16-.4-3.19,7-3.1,10.8-2.88l1.86.13c3.1.22,6.26.91,9.24.06a24.74,24.74,0,0,0,3.84-1.69C174.84,315.17,178.91,315.92,184.74,316.55Zm5.17-22.6a38,38,0,0,1-4.62,1.67c-5.63,2-9.52,5.52-10.19,9.29l-.23,1.11a14.83,14.83,0,0,1-6.57,6.57,21.08,21.08,0,0,1-12.28,2c-5.82-.91-9.42-4.54-9.52-8a36.12,36.12,0,0,1,.7-4.82,10.21,10.21,0,0,0-.56-4.65,4,4,0,0,0-2.27-2.55c-2-.85-4.88-.4-7.07.28-2.46.76-5,2.55-7.47,2.91-2.88.4-5.87-.29-8.77-.23a18.43,18.43,0,0,1-7.61-1.39c-4-1.84-7.41-7.49-5.39-11.83,1.65-3.54,6.28-4.7,9.68-5.76a68.19,68.19,0,0,1,18.71-2.95,36.28,36.28,0,0,0,6.11-.38,31,31,0,0,1,4.82-1c2.82-.14,5.14,1.18,7.05,2.38L161,280.8c4.19,2.63,9.5,5.51,15.6,4.91a18,18,0,0,0,8.38-3.22,9.59,9.59,0,0,1,2.67-1.46,4.67,4.67,0,0,1,3.45.16c1.36.84.13,2.16-.67,3.21a4,4,0,0,0,.26,5.28,5.64,5.64,0,0,1,1.17,1.48C192.27,292.19,191.27,293.25,189.91,294Zm45.47-15.4c-.29.54-1.42.72-2.38.77-4.57.29-10-.14-13.05,1.87l-.62.15a16.84,16.84,0,0,0-7,5.59,17.1,17.1,0,0,1-2.31,3.39,7.2,7.2,0,0,1-5.07,1.87,10.29,10.29,0,0,1-5.37-2c-2.09-1.32-4.3-2.85-4.15-4.64.16-2.05,3.4-3.67,3.68-5.71.33-2.36-4.32-4.44-8.19-3.66-2.32.45-3.92,1.65-5.73,2.61a25.44,25.44,0,0,1-6.89,2.43,20.1,20.1,0,0,1-8.24.18,16.07,16.07,0,0,1-5.37-2.5c-2.19-1.47-4.23-3.08-5-5-1.54-3.53,1.52-7.15,4.94-10.22a86.42,86.42,0,0,1,14.25-10.22,21.09,21.09,0,0,1,9.51-3.32,41.23,41.23,0,0,1,5.56.21c2.86.19,5.81.11,8.59.53s5.57,1.44,6.39,3c1.33,2.61-2.9,5.14-2.86,7.86,0,1.89,2.44,3.7,5.61,4.2a54.24,54.24,0,0,0,7,.17c2.34.06,5,.57,5.8,1.84.56.84.18,1.8.44,2.69.9,3.11,8.58,4.06,10.35,7A.85.85,0,0,1,235.38,278.55Zm48.92-10.17c-2.06,1.71-5.22,2.85-7.81,4.29-3.05,1.71-5.26,3.82-7.81,5.77a23.36,23.36,0,0,1-9.62,4.63c-4,.83-9,.34-11.46-1.66-1.47-1.22-1.78-2.8-3.11-4.08-3.44-3.29-12.73-3.83-14.61-7.52-1.45-2.88,2.82-5.72,7.46-7.05s10-1.86,14.12-3.67c1.86-.83,3.46-2,3.71-3.3.39-2.1-2.51-3.86-4.57-5.6-2.21-1.87-3.63-4.23-2.49-6.4,1.36-2.6,5.85-4.15,10-5.45a6.16,6.16,0,0,1,2.15-.38,4.48,4.48,0,0,1,1.55.4,9.85,9.85,0,0,1,5.67,5.74c.82,2.21.91,4.49,1.66,6.7,1.35,4,4.89,7.71,10,10.51a30.12,30.12,0,0,1,4.94,1.38C286.82,264,286.34,266.65,284.3,268.38Zm2.49-9.85c-3.9.25-8.15-.84-9.92-2.86a6.72,6.72,0,0,1-1.43-3.33c-.4-1.83-.79-3.65-1.19-5.47-.52-2.44-1.08-4.94-2.95-7.15a14,14,0,0,0-9.56-4.44c-2.43-.18-5.52,0-6.74-1.21s.65-2.68,2.14-3.82A13.55,13.55,0,0,0,262,224c.52-1.54.63-3.16,1.68-4.6,1.61-2.18,5.49-3.76,9.6-3.9s8.29,1.15,10.34,3.23c1.56,1.58,1.88,3.46,2.18,5.27.8,4.86,1.58,9.71,2.38,14.57.45,2.8.95,5.68,3.32,8.12,1,1,2.35,2,3.31,3,1.46,1.61,2.5,2.6,2.05,4.38a7.68,7.68,0,0,1-.48.83C294.62,256.93,290.71,258.26,286.79,258.53Zm42.14-4.13c-8.44,4.07-14.59,9.7-17.32,15.84a35.58,35.58,0,0,1-2.26,5,13.24,13.24,0,0,1-4.12,3.94,17.15,17.15,0,0,1-8.49,2.57c-3.28.08-6.75-1.06-7.66-2.87-1.7-3.34,5.2-6.25,5.24-9.72,0-2.58-3.74-5.14-1.94-7.5s8.72-2.63,10.95-5.07c1.44-1.55.43-3.5-1.24-5s-4-2.7-5.42-4.25-3.12-4.29-2.13-5.6c.56-.74,2-.76,2.44-.72,4.46.33,6.86,4.13,11.32,4a13,13,0,0,0,4.7-1.26c4.67-2,8.75-4.55,14-6s12.45-1.38,16,1.29,2,6.43-1.41,9S333.25,252.33,328.93,254.4Zm83.57,7.77c-3.7.74-7.45,1.25-11.13,2.08a66.74,66.74,0,0,0-20.63,8.47c-3.57,2.21-7,4.84-9.27,8.36a24.55,24.55,0,0,1-2.64,3.88,13.6,13.6,0,0,1-4.42,2.73c-4.25,1.86-8.83,3.35-13.45,3a1.52,1.52,0,0,1-1.06-.38,1.47,1.47,0,0,1-.31-.85,10.68,10.68,0,0,1,3.27-9c2.21-2.06,5.17-3.06,8-4a91.74,91.74,0,0,0,15.2-6.31c4-2.18,6.42-5.88,11.09-7.26,2.4-.7,4.93-.89,7.37-1.45,5.06-1.17,9.27-3.88,13.75-6.36,2.36-1.31,7.79-2.48,7.9,1.79C416.26,258.93,414.6,261.76,412.5,262.17Z" style="fill:#fff;opacity:0.2"></path></g><g id="freepik--Rock--inject-84"><polygon points="184.58 411.92 202.54 420.46 202.54 406.01 190.71 399 184.58 411.92" style="fill:#263238"></polygon><polygon points="210.42 401.41 202.54 406.01 202.54 420.46 214.36 414.77 210.42 401.41" style="fill:#37474f"></polygon><polygon points="190.71 399 201.44 397.91 210.42 401.41 202.54 406.01 190.71 399" style="fill:#455a64"></polygon><polygon points="209.76 410.15 213.14 412.34 218.71 411.24 214.97 409.51 212.41 409.51 209.76 410.15" style="fill:#455a64"></polygon><polygon points="212.23 419.64 213.14 412.34 218.71 411.24 220.17 414.89 212.23 419.64" style="fill:#37474f"></polygon><polygon points="209.76 410.15 206.93 418.36 212.23 419.64 213.14 412.34 209.76 410.15" style="fill:#263238"></polygon></g></g><g id="freepik--Sun--inject-84"><circle id="freepik--sun--inject-84" cx="189.48" cy="50.43" r="13.63" transform="translate(19.84 148.75) rotate(-45)" style="fill:#ffbda7"></circle></g><g id="freepik--Clouds--inject-84"><path id="freepik--Cloud--inject-84" d="M82.28,45c0-4.1-4.5-7-9.59-7.43-6-.56-10.25,2.11-10.39,6.83-3.92-1.61-8.06-.57-7.75,3.74-1-1.18-4.84-1.15-6.21-.82a5.39,5.39,0,0,0-3.41,2.91,4,4,0,0,0-.36,2.21c-2.29-.75-7.48-1.21-8.79.89-2.31,3.74,6.94,3.85,8.8,2.72.4,2.91,10.34,3.39,12.74.7,1.88,1.9,4.58,2.32,7.5,2.49,4.92.29,7.93-1.37,11.77-3.33,4.17,3.53,11.38,3.6,15.14-.45,1,.91,3.6,1.19,5.72.68,1.39-.33,1.71-.92,1.71-.92a12.73,12.73,0,0,0,2.55.77c2.72.57,7.8,0,5.67-2.49-.73-.84-3.38-1.37-4.5-1.11-1.19-2.34-6-4.56-8.71-2.58-.1-2.83-2.69-5-6.34-5.61C86.61,44,83.68,43.87,82.28,45Z" style="fill:#f0f0f0"></path><path id="freepik--cloud--inject-84" d="M361.13,34.64c0-4.11-4.51-7-9.62-7.46-6-.56-10.28,2.12-10.43,6.86-3.93-1.62-8.08-.58-7.77,3.75-1-1.18-4.85-1.15-6.23-.82a5.41,5.41,0,0,0-3.43,2.92,4,4,0,0,0-.35,2.21c-2.3-.75-7.51-1.21-8.82.9-2.32,3.74,7,3.86,8.83,2.73.4,2.91,10.37,3.39,12.78.7,1.89,1.9,4.6,2.32,7.52,2.49,4.93.3,8-1.37,11.81-3.34,4.18,3.55,11.42,3.61,15.19-.44,1,.9,3.61,1.18,5.74.68,1.39-.34,1.71-.93,1.71-.93a11.81,11.81,0,0,0,2.56.77c2.74.57,7.83,0,5.69-2.5-.72-.83-3.39-1.37-4.52-1.11-1.19-2.35-6-4.57-8.73-2.58-.1-2.85-2.7-5.07-6.36-5.64C365.47,33.64,362.53,33.48,361.13,34.64Z" style="fill:#f0f0f0"></path><path id="freepik--cloud--inject-84" d="M174.62,84.9a7.5,7.5,0,0,0-2.57-.47c-.83-.07-1.09-.23-1.25-.41a6.11,6.11,0,0,0-7.34-2.17,4.7,4.7,0,0,0-5.54-3.14c.09-2.58-3.21-5.35-6.17-6s-5.32-.35-6.94,1.51c-1.74-3.38-8.54-4.34-12.22-2.55-2.11,1-3.91,2.09-4.79,4a8.1,8.1,0,0,0-.79,3.86,6.79,6.79,0,0,0-6.23-.87c-2.06.8-2.22,2.36-2.32,3.94a7.09,7.09,0,0,0-3.76-.06c-1.3.38-2,1.4-1.88,2.23-1-.06-3.48.77-3.2,1.86s3.12,1.1,4.17,1.06a18.87,18.87,0,0,0,2.93-.46,4.56,4.56,0,0,0,1.52.29c1.78,0,2.54-.78,2.83-1.44.87,1.83,4,3.23,6.15,3.79,4.13,1,10,.41,12.5-2.67A4.69,4.69,0,0,0,141,88.74a7.18,7.18,0,0,0,3.82,1.55c1.69.16,6.24.38,7.52-2.32.9,1.79,5,2.61,8,2.17a12.37,12.37,0,0,0,3.44-1,18.86,18.86,0,0,0,2-1.19,1.65,1.65,0,0,1,1.69-.11,10.13,10.13,0,0,0,6.72,0C175.87,87.07,176.23,85.63,174.62,84.9Z" style="fill:#f0f0f0"></path></g><g id="freepik--Shadows--inject-84"><path id="freepik--Shadow--inject-84" d="M260.63,401c-4.51,1.29-9.08,2.9-12.55,6s-5.74,8.56-4,13.08a13.79,13.79,0,0,0,4.52,5.56c6.77,5.33,15.66,7.1,24.24,7.71,13,.93,26-.39,39-.24a95.3,95.3,0,0,1,24.71,3.07c8.68,2.43,15,7.82,23,11.42,13.49,6,54.5,3.07,41.72-20.77-3.75-7-10.58-11.69-17.36-15.37-36.5-19.82-83.35-21.86-122.9-10.64Z" style="opacity:0.1"></path><polygon id="freepik--shadow--inject-84" points="191.82 406.64 183.92 408.89 177.14 412.84 183.21 418.53 202.54 422.87 208.45 421.14 216.2 420.46 222.57 414.89 209.22 410.92 191.82 406.64" style="opacity:0.1"></polygon></g><g id="freepik--Birds--inject-84"><g id="freepik--birds--inject-84"><path d="M444.19,64c-7.88-3-16.58,3.44-22.29,12.26-5.06-6.35-17.56-13.75-24.26-7.58,9-2.88,18.11,2.65,23.32,9.82.36.45,1.48,1,2,.12C428.38,68.82,436.85,63.72,444.19,64Z" style="fill:#455a64"></path><path d="M477.41,79.23c-6.36-1.58-12.3,6.18-14,12.42-4.5-4.41-11.75-9.21-17.74-5.22,7.36-1.8,12.54,2,17.23,7,.32.31,1.34.66,1.53-.09C466.19,86.16,471.72,79.68,477.41,79.23Z" style="fill:#455a64"></path></g></g><g id="freepik--Character--inject-84"><g id="freepik--Kayak--inject-84"><path d="M199.09,238.51c-2.55-108.86,31.24-172.2,43-192.37s28.64-23.86,28.64-23.86c-16.46,20.47-47.8,102.94-55.11,177.8-6.06,91,12.62,179.14,45.53,215.3C218.3,380.21,200.52,299.37,199.09,238.51Z" style="fill:#BA68C8"></path><path d="M261.15,415.38c-19.12-21-33.44-59.58-40.89-106h0s-.12,17.4-8.22,0-14-78.76-11.51-120.77h0a470.24,470.24,0,0,0-1.43,50C200.52,299.37,218.3,380.21,261.15,415.38Z" style="opacity:0.15"></path><path d="M270.73,22.28l-9.58,393.1s22.58-133.22,24.38-201.07C287.08,156.15,270.73,22.28,270.73,22.28Z" style="fill:#BA68C8"></path><path d="M270.73,22.28l-9.58,393.1s22.58-133.22,24.38-201.07C287.08,156.15,270.73,22.28,270.73,22.28Z" style="fill:#fff;opacity:0.35000000000000003"></path><path d="M270.73,22.27l-9.58,393.11c-32.91-36.17-51.59-124.31-45.53-215.31C222.93,125.22,254.26,42.76,270.73,22.27Z" style="fill:#BA68C8"></path><path d="M270.73,22.27l-9.58,393.11c-32.91-36.17-51.59-124.31-45.53-215.31C222.93,125.22,254.26,42.76,270.73,22.27Z" style="fill:#fff;opacity:0.45"></path><path d="M270.73,22.28c-16.46,20.47-47.8,102.94-55.11,177.8,0,0,6.74-4.71,11-16.69s4.56-49.52,18.45-95C259.55,41.11,270.73,22.28,270.73,22.28Z" style="fill:#fff;opacity:0.4"></path><path d="M287.83,196.75c0,19-11.37,43.31-27.85,52.83-7.23,4.17-13.48,4.36-18.21,1.66l-4-2.3c-6.06-3.46-9.64-11.66-9.64-22.33,0-19,11.37-43.32,27.85-52.83,7.28-4.2,13.55-4.37,18.3-1.61l3.91,2.26C284.25,177.89,287.83,186.08,287.83,196.75Z" style="fill:#BA68C8"></path><path d="M287.83,196.75c0,19-11.37,43.31-27.85,52.83-7.23,4.17-13.48,4.36-18.21,1.66l-4-2.3c-6.06-3.46-9.64-11.66-9.64-22.33,0-19,11.37-43.32,27.85-52.83,7.28-4.2,13.55-4.37,18.3-1.61l3.91,2.26C284.25,177.89,287.83,186.08,287.83,196.75Z" style="opacity:0.15"></path><path d="M260,249.58c-16.48,9.51-27.85-1.65-27.85-20.68S243.5,185.59,260,176.07s27.85,1.65,27.85,20.68S276.46,240.06,260,249.58Z" style="fill:#BA68C8"></path><path d="M260,249.58c-16.48,9.51-27.85-1.65-27.85-20.68S243.5,185.59,260,176.07s27.85,1.65,27.85,20.68S276.46,240.06,260,249.58Z" style="fill:#fff;opacity:0.55"></path><path d="M245.1,197.49c-5.67,9.83-9,21.57-9,31.41,0,9.09,2.85,16.16,7.62,18.92s10.43.63,14.35-1.64c6.31-3.64,12.13-9.87,16.83-18,5.68-9.83,9.06-21.57,9.06-31.41,0-9.09-2.85-16.16-7.62-18.92s-10.43-.63-14.35,1.64c-6.31,3.64-12.13,9.87-16.83,18Z" style="fill:#BA68C8"></path><path d="M245.1,197.49c-5.67,9.83-9,21.57-9,31.41,0,9.09,2.85,16.16,7.62,18.92s10.43.63,14.35-1.64c6.31-3.64,12.13-9.87,16.83-18,5.68-9.83,9.06-21.57,9.06-31.41,0-9.09-2.85-16.16-7.62-18.92s-10.43-.63-14.35,1.64c-6.31,3.64-12.13,9.87-16.83,18Z" style="opacity:0.25"></path><path d="M271,176.59l-.1-.05a19.81,19.81,0,0,0-9,2.93c-6.31,3.64-12.13,9.87-16.83,18-5.67,9.82-9.06,21.57-9.06,31.42,0,6.92,1.66,12.67,4.55,16.24l.05,0,.41.49c8,9.61,18.52,8.27,28.87.46a27.6,27.6,0,0,0,9.34-11.6,20.06,20.06,0,0,0,.65-15.15c-2.72-7.33-6.86-11.86-8-18C270,191,273.9,183.05,271,176.59Z" style="fill:#37474f"></path><path d="M272.88,241c3.93-3.44,7.82-10.18,8.21-14.93a21.8,21.8,0,0,1-1.82,8.44,27.6,27.6,0,0,1-9.34,11.6c-10.35,7.81-20.83,9.15-28.87-.46l-.41-.49-.05,0a17.68,17.68,0,0,1-2.76-5c.14.21,6.27,8.12,14.11,9.6C259.42,251.11,268.9,244.5,272.88,241Z" style="fill:#455a64"></path><path d="M272.29,306.24c3.17,1.95,4.78,6.73,4.61,12.75-.29,10.3-7.13,23.72-14.79,27.72-3.23,1.69-6.27,1.55-8.69.05l-1.66-1.06c-3.32-2-5.46-6.63-5.29-12.58.29-10.3,6-22.36,15.1-27.26,3.77-2,6.82-2.07,9.08-.68C271,305.38,272.05,306.1,272.29,306.24Z" style="fill:#37474f"></path><path d="M262.11,346.71c-7.66,4-14.27-2.22-14-12.52s6-22.36,15.1-27.26,14,1.76,13.67,12.06S269.77,342.71,262.11,346.71Z" style="fill:#455a64"></path><polygon points="263.53 383.04 263.53 364.66 267.51 362.36 267.51 380.74 263.53 383.04" style="fill:#455a64"></polygon><polygon points="263.53 364.66 259.55 364.65 263.53 362.35 267.51 362.36 263.53 364.66" style="fill:#37474f"></polygon><path d="M259.55,362.35a4.38,4.38,0,0,1,2-3.44c1.1-.64,2-.12,2,1.15v2.29l-4,2.3Z" style="fill:#455a64"></path><path d="M259.55,380.82c0,1.27.89,1.78,2,1.15a4.39,4.39,0,0,0,2-3.44v-2.3l-4,2.3Z" style="fill:#455a64"></path><path d="M261.54,380.83c-.36.21-.65,0-.65-.38a1.46,1.46,0,0,1,.65-1.14c.36-.2.66,0,.66.38A1.47,1.47,0,0,1,261.54,380.83Z" style="fill:#e0e0e0"></path><polygon points="263.53 383.04 259.55 378.52 263.53 376.23 263.53 383.04" style="fill:#263238"></polygon><path d="M261.56,362.09c-.37.21-.66,0-.66-.38a1.44,1.44,0,0,1,.66-1.14c.36-.21.65,0,.65.38A1.46,1.46,0,0,1,261.56,362.09Z" style="fill:#e0e0e0"></path><polygon points="267.94 68.69 267.94 50.32 271.92 48.02 271.92 66.4 267.94 68.69" style="fill:#455a64"></polygon><polygon points="267.94 50.32 263.96 50.31 267.94 48.01 271.92 48.02 267.94 50.32" style="fill:#37474f"></polygon><path d="M264,48a4.38,4.38,0,0,1,2-3.44c1.1-.64,2-.12,2,1.15V48l-4,2.3Z" style="fill:#455a64"></path><path d="M264,66.48c0,1.27.89,1.78,2,1.15a4.39,4.39,0,0,0,2-3.45V61.89l-4,2.29Z" style="fill:#455a64"></path><path d="M266,66.49c-.36.21-.66,0-.66-.38A1.47,1.47,0,0,1,266,65c.36-.2.65,0,.65.38A1.46,1.46,0,0,1,266,66.49Z" style="fill:#e0e0e0"></path><polygon points="267.94 68.69 263.96 64.19 267.94 61.89 267.94 68.69" style="fill:#263238"></polygon><path d="M266,47.75c-.36.2-.65,0-.65-.38a1.46,1.46,0,0,1,.65-1.14c.36-.21.66,0,.66.38A1.47,1.47,0,0,1,266,47.75Z" style="fill:#e0e0e0"></path><path d="M264.84,288.07a1.84,1.84,0,0,1-2.53.61.9.9,0,0,1-.36-.86,2.86,2.86,0,0,1,1.36-2.22.93.93,0,0,1,.93-.07A1.84,1.84,0,0,1,264.84,288.07Z" style="fill:#455a64"></path><path d="M239.9,310.71a1.85,1.85,0,0,1-2.59-.32.91.91,0,0,1,0-.93,2.89,2.89,0,0,1,2.06-1.61,1,1,0,0,1,.89.26A1.87,1.87,0,0,1,239.9,310.71Z" style="fill:#455a64"></path><path d="M276.71,290.46a1.84,1.84,0,0,1-2.41,1,.93.93,0,0,1-.49-.79,2.9,2.9,0,0,1,1-2.41,1,1,0,0,1,.91-.21A1.84,1.84,0,0,1,276.71,290.46Z" style="fill:#455a64"></path><path d="M281.68,260.2a1.84,1.84,0,0,1-2.06,1.6.91.91,0,0,1-.68-.63,2.87,2.87,0,0,1,.33-2.59.9.9,0,0,1,.81-.44A1.84,1.84,0,0,1,281.68,260.2Z" style="fill:#455a64"></path><path d="M236.72,282.52a1.84,1.84,0,1,0,.6,2.53A1.84,1.84,0,0,0,236.72,282.52Z" style="fill:#455a64"></path><path d="M239.32,309.84l-.6-.77c.85-.65,1.83-1.38,2.93-2.19,5.77-4.26,14.5-10.69,21.44-19.94,8.19-10.92,16.6-26.95,16.68-27.11l.87.45c-.09.17-8.53,16.26-16.77,27.25-7,9.37-15.82,15.85-21.64,20.14C241.14,308.47,240.16,309.2,239.32,309.84Z" style="fill:#455a64"></path><path d="M275.33,290.28a81.34,81.34,0,0,1-11.91-2.55c-13.55.81-27.66-3.13-27.8-3.17l.27-.94c.14,0,14.14,3.95,27.56,3.12h.09l.08,0a78.9,78.9,0,0,0,11.84,2.55Z" style="fill:#455a64"></path><path d="M230.64,151.11a1.62,1.62,0,1,0,.53,2.23A1.62,1.62,0,0,0,230.64,151.11Z" style="fill:#455a64"></path><path d="M233.39,136.38a1.62,1.62,0,1,0,.53,2.23A1.62,1.62,0,0,0,233.39,136.38Z" style="fill:#455a64"></path><path d="M236.13,121.64a1.62,1.62,0,1,0,.53,2.23A1.62,1.62,0,0,0,236.13,121.64Z" style="fill:#455a64"></path><path d="M238.88,106.91a1.62,1.62,0,1,0,.53,2.23A1.62,1.62,0,0,0,238.88,106.91Z" style="fill:#455a64"></path><path d="M281.74,124.72a1.62,1.62,0,0,1-1.49,1.74.79.79,0,0,1-.7-.42,2.57,2.57,0,0,1-.18-2.29.81.81,0,0,1,.63-.52A1.62,1.62,0,0,1,281.74,124.72Z" style="fill:#455a64"></path><path d="M281.14,112.41a1.62,1.62,0,0,1-1.49,1.74.81.81,0,0,1-.7-.42,2.51,2.51,0,0,1-.18-2.29.79.79,0,0,1,.62-.52A1.62,1.62,0,0,1,281.14,112.41Z" style="fill:#455a64"></path><path d="M278.65,86.78a1.62,1.62,0,0,1-1.5,1.74.8.8,0,0,1-.69-.42,2.51,2.51,0,0,1-.18-2.29.8.8,0,0,1,.62-.52A1.63,1.63,0,0,1,278.65,86.78Z" style="fill:#455a64"></path><path d="M280.17,99.09a1.62,1.62,0,0,1-1.49,1.74.8.8,0,0,1-.7-.42,2.51,2.51,0,0,1-.18-2.29.81.81,0,0,1,.62-.53A1.63,1.63,0,0,1,280.17,99.09Z" style="fill:#455a64"></path><path d="M229.79,152.92a.42.42,0,0,1-.41-.31.43.43,0,0,1,.27-.52c.27-.1,18.82-6.86,33.69-19.27a136.73,136.73,0,0,1-30.78,5.37.43.43,0,0,1-.2-.82c14.54-6.82,24.14-12.35,31.29-18.67a117.47,117.47,0,0,1-28.35,4.75h0a.43.43,0,0,1-.42-.37.42.42,0,0,1,.32-.47c.24-.06,17-4.37,29.5-16.19-10.51,3-21.59,3.06-26.71,2.29a.44.44,0,0,1-.37-.39.43.43,0,0,1,.3-.44c.18-.06,18.77-6.18,28.23-11.3,6.37-3.44,10.72-9.83,10.76-9.89a.43.43,0,0,1,.78.35,41.82,41.82,0,0,1-9.93,17.51,38.83,38.83,0,0,0,10.77-5.66.44.44,0,0,1,.54,0,.44.44,0,0,1,.11.53,67.15,67.15,0,0,1-12.25,17.41c7.5-2.34,12.47-4.5,12.58-4.54a.43.43,0,0,1,.47.08.44.44,0,0,1,.1.47c-2.72,6.75-7.47,12.71-13,17.84a66.91,66.91,0,0,0,13.06-6.19.44.44,0,0,1,.64.5c0,.1-3.28,10.16-15.46,16.74s-35.19,11.13-35.42,11.18Zm35.65-20.77c-10.8,9.47-24,15.88-30.83,18.85,7.45-1.71,21.69-5.38,30.28-10a32.75,32.75,0,0,0,14.58-15.07A71.28,71.28,0,0,1,265.44,132.15Zm.11-14c-7,6.57-16.41,12.19-30.8,19a133.54,133.54,0,0,0,30.26-5.8c5.79-5.1,10.87-11.09,13.84-17.89C276.87,114.31,272,116.22,265.55,118.15Zm.91-12.26c-9.53,9.57-21.94,14.58-27.77,16.54a124.34,124.34,0,0,0,26.4-5,62.74,62.74,0,0,0,12.45-16.73A43.2,43.2,0,0,1,266.46,105.89ZM240,108.08a72.56,72.56,0,0,0,26-2.94,42,42,0,0,0,10.15-16,33.83,33.83,0,0,1-9.6,8.23C258.77,101.54,245,106.4,240,108.08Z" style="fill:#455a64"></path></g><g id="freepik--character--inject-84"><g id="freepik--Bottom--inject-84"><path d="M363,402.26c-1.6-12.64-.11-37.31-.56-44.07a95.34,95.34,0,0,0-2-15.5c-2.32-10.3-4-19.22-4.38-22,0,0-1.94-28.63-4.23-60.49-1.07-15-5.77-19.34-9.69-27.16l-44.48.29c-4.76,19.39-3.21,66.1-2.25,86.35.49,10.33,2.67,46.07,2.81,62.87a19.35,19.35,0,0,1-2.19,10c-2.45,4.73-9.93,11.34-18,15.78-1.24,2.7,12.82,2.87,18.07,0a159.9,159.9,0,0,0,13.66-8.87c3.84-3,4-6.81,4.77-11,.32-1.72,7-41.16,7.18-49.75.14-7.39-1.3-19.87-1.3-19.87l3.66-31.43s4.57,31.13,7.5,43.78,5.21,23.46,8.15,34.2,8.83,31.63,9.81,38.88c.28,1.73,3.6,14.31,4.6,18.19s9.84,3.61,10.14-3.13C364.46,414.78,363.26,404.39,363,402.26Z" style="fill:#ffa8a7"></path><path d="M350.87,424.45c.43,4.25,1.16,7.16,2.83,9.6s4.66,3.1,7.62,2.25a11.31,11.31,0,0,0,7.43-6.68c1.12-3,1.11-6.25.27-10.17Z" style="fill:#263238"></path><path d="M362.15,397.18a6.06,6.06,0,0,1,1.56,1.87,40.78,40.78,0,0,1,1.3,5.76c1.46,6,3,8.57,3.91,13.57a19.45,19.45,0,0,1,.22,7.29c-.32,1.54-1.13,4.9-3.22,4a5.08,5.08,0,0,0-1.53-.58,3.36,3.36,0,0,0-1.18.15l-2.45.61a4.32,4.32,0,0,0-2.24,1.05c-.48.52-.67,1.26-1.14,1.79-1.43,1.63-3.21.3-4.09-1.05A15.45,15.45,0,0,1,351.1,426c-.49-2.63-.48-5.34-.73-8-.4-4.13-.59-5.56-1.23-9.81-.27-1.8-.39-3.63-.73-5.41a5,5,0,0,1-.12-1.08,6.44,6.44,0,0,1,1.18-2.69c.49-.89.79-1.88,1.33-2.75a5.52,5.52,0,0,1,2.88-2.25,7.47,7.47,0,0,1,5,0,6.1,6.1,0,0,1,2.7,2.3A8.82,8.82,0,0,0,362.15,397.18Z" style="fill:#BA68C8"></path><path d="M275,411.87a3.77,3.77,0,0,0,1.42,3.92c1.74,1.26,6.72,3.2,13.07,2s9.68-3.34,12.11-5.57,5.83-5.38,8.68-6.18c2.66-.75,6.11-2.33,6.92-3.19s.46-4.41.46-4.41C299.41,402.24,280,405.86,275,411.87Z" style="fill:#263238"></path><path d="M314.39,387.26a1.3,1.3,0,0,1,.72-.25c1.13,4,3.44,8.34,2.54,12.65-.38,1.83-5.15,3.63-7.88,4.84a35.66,35.66,0,0,0-8.72,6.11,25,25,0,0,1-9,4.82c-2.77.89-4.92,1-7.39-.77-1-.71-1.84-1.55-2.85-2.21a9.63,9.63,0,0,0-3.46-1.38,4,4,0,0,0-1.95,0A2.42,2.42,0,0,0,275,412c-.41-1.36.69-2.74,1.77-3.66,2.09-1.75,4.68-2.8,7-4.27a38.57,38.57,0,0,0,7.5-6.47,30.9,30.9,0,0,0,5.21-7.91,3.11,3.11,0,0,1,.41-.65,2.43,2.43,0,0,1,1.68-.59,7.76,7.76,0,0,1,1.86.16,6.12,6.12,0,0,1,3.08,2.17,11.59,11.59,0,0,0,1.21,1.7c1.43,1.35,3.8.74,5.4-.39a10.94,10.94,0,0,0,3.06-3.26A4.79,4.79,0,0,1,314.39,387.26Z" style="fill:#BA68C8"></path><path d="M346,230.61c5.44,8.72,10.31,18.51,10.46,42.51.17,26.56.14,44.11.38,47.31s1.84,7.63,4.18,23.32,1.28,34.13,1.28,34.13-2.2,2.52-8.42,3.32a19.73,19.73,0,0,1-10.2-1.44s-7.4-25.13-11.34-40.1c-3.26-12.4-7.89-45.78-7.89-45.78l-2.74,25.47s2.35,9.27.49,23.19-4.42,27.56-4.42,27.56a41.67,41.67,0,0,1-9.5,1.16,31.83,31.83,0,0,1-10.4-1.92s-2.95-40.08-3.59-55.74-1.41-61.92,3.54-80.88Z" style="fill:#455a64"></path><path d="M318.06,264s-10.89-.3-17.17-6.15c1.36,5.17,10.16,9.21,14.12,9.95l6.18,27,.51,24.61,2.74-25.47Z" style="fill:#37474f"></path></g><g id="freepik--Top--inject-84"><path d="M326.59,140.74c4.41-3.8,12.71-4,17.09,3.52s4.29,22.2,4.29,31.28V202s-.28,4.05-10.69,4.05-12.37-1.81-12.37-1.81V145.1Z" style="fill:#263238"></path><path d="M336.05,140.48a12.76,12.76,0,0,1,2.27,4,3,3,0,0,1-.29,2.84,2.4,2.4,0,0,1-2.12.73c-2.62-.32-5-3.11-6.37-5.16-1.18-1.76-2.75-5.22.54-5.78C332.2,136.8,334.42,138.46,336.05,140.48Z" style="fill:#BA68C8"></path><path d="M331,175.66c0-3,4.15-8.06,6.45-13.3s2.6-13.5-2.2-16.51c-.57-8.19-17-12.54-27.58-6.52s-9.81,17.78-3.11,21S331,175.66,331,175.66Z" style="fill:#263238"></path><g id="freepik--Arm--inject-84"><path d="M278.5,190.05c-.28-1.77-.52-3.23-.56-3.55a22.37,22.37,0,0,0-3.74-9.56c-.62-1-1.28-1.93-1.94-2.85-.46-.64-.92-1.27-1.39-1.9a8.19,8.19,0,0,1-.65-.93c-.18-.32-.34-.57-.78-.48a1.38,1.38,0,0,0-.74.59,3.79,3.79,0,0,0-.38,3.06,13.28,13.28,0,0,0,.87,2.27c.12.23.21.45.32.68.32.75-.58.54-1,.37a5.85,5.85,0,0,1-1.16-.64,24.51,24.51,0,0,0-5.42,2.36,33.49,33.49,0,0,0-3.84,2.58,20.64,20.64,0,0,0,2.11,3.49,20.94,20.94,0,0,0,3.93,4.27,14,14,0,0,1,3.43,4.16,4.63,4.63,0,0,1,.31,1.58C272.19,195.27,275.88,193.73,278.5,190.05Z" style="fill:#ffa8a7"></path><path d="M286.64,199.79l-3.23,3.86c-2.2,2.67-3,3.74-3,3.74s-1.09-8.52-1.11-11.13c-.46-2.94-.44-4.12-.76-6.21-2.62,3.68-6.31,5.22-10.62,5.5a134.81,134.81,0,0,0-2.54,15.92c-.59,6.23-.95,11,1.58,17.47a5.38,5.38,0,0,0,5,3.78c2.59.08,5.85-1.37,9.35-4.32,3.76-3.18,21.75-20.47,21.75-20.47l4.42-23.62C298.39,185.08,294.64,190.23,286.64,199.79Z" style="fill:#f0f0f0"></path><path d="M280.37,207.39c.58,5.29,0,12.05-1.11,13.4,4.42-4.09,3.23-13.78,3.06-15.81Z" style="fill:#e0e0e0"></path><path d="M269.81,180.34a14.11,14.11,0,0,0,2,7.54,5.8,5.8,0,0,1-2.55-3.15A5.44,5.44,0,0,1,269.81,180.34Z" style="fill:#f28f8f"></path></g><g id="freepik--Head--inject-84"><g id="freepik--head--inject-84"><path d="M314.74,183.84l-7.26.88s-7.76,9.1-9.32,19.43c-.76,5-3.44,48.84-3.44,48.84s3.63,3.24,15.12,5.55,22.66,1.79,30.44-.41c12.53-3.55,14.41-8.64,14.41-8.64s-2.63-7.76-3.63-12.54-2.41-16.16-2.41-16.16l.2-1.95a186.73,186.73,0,0,0,2.15-19c.38-8.56-8.49-13.76-8.49-13.76l-11.39-1.81Z" style="fill:#37474f"></path><path d="M314.88,183.5l-7.4.81a53.39,53.39,0,0,0-7.68,13.62L313,185.69s-1.13,3.66,5.76,4.54S332.36,186,332.36,186l17.48,26.11c.48-3.6,1-8.11,1.16-12.2.38-8.56-8.29-14.19-8.29-14.19l-11.47-1.75Z" style="fill:#e0e0e0"></path><g id="freepik--head--inject-84"><path d="M333.46,171.25a4.57,4.57,0,0,0,4.61-1.58c2.73-2.93,2.42-5.95,1.19-8-1-1.67-3.55-2.76-5.35-1.66s-2,2.15-2.73,3.49-2.58.27-1.89-5.16c-3.69-1.79-1.65-6.87-3.62-9.43-2.51-3.26-7.3-1.7-9.9-.51a2.09,2.09,0,0,1-2.29-.35,5.54,5.54,0,0,0-6.24-.89c-2.28,1.18-3.38,2.85-3.05,8.36a14.4,14.4,0,0,1-.24,3.76,39.49,39.49,0,0,0-.68,4c-.33,5.19,1.21,11.32,3.9,13.91a10.43,10.43,0,0,0,7.71,2.64v3.68s-.54,3.09,3.25,4c8.54,1.5,13.11-3.52,13.11-3.52V169.38A2.68,2.68,0,0,0,333.46,171.25Z" style="fill:#ffa8a7"></path><path d="M313.2,170.23l5.4-1.35a2.92,2.92,0,0,1-2.09,3.45A2.71,2.71,0,0,1,313.2,170.23Z" style="fill:#b16668"></path><path d="M314.51,172a2.66,2.66,0,0,0,2,.29,2.84,2.84,0,0,0,2-2.06A4.74,4.74,0,0,0,314.51,172Z" style="fill:#f28f8f"></path><path d="M305.71,155.34l3.58-1.07A2,2,0,0,0,306.9,153,1.83,1.83,0,0,0,305.71,155.34Z" style="fill:#263238"></path><path d="M321.8,155.84l-3.36-1.67a2,2,0,0,1,2.58-.86A1.83,1.83,0,0,1,321.8,155.84Z" style="fill:#263238"></path><path d="M318.13,159.35a1.53,1.53,0,1,0,1.57-1.55A1.55,1.55,0,0,0,318.13,159.35Z" style="fill:#263238"></path><path d="M306.87,159.24a1.55,1.55,0,0,0,1.62,1.49,1.59,1.59,0,1,0-1.62-1.49Z" style="fill:#263238"></path><path d="M314.88,179.82c6-.14,11.54-2.81,13.47-5.94-.72,4.16-5.5,6.24-8.33,6.9a15.77,15.77,0,0,1-5.14.56Z" style="fill:#f28f8f"></path><path d="M300.68,156.49a2.92,2.92,0,0,0,.69,1.49,1.27,1.27,0,0,1,.28.53,26.4,26.4,0,0,0,1,4,4.58,4.58,0,0,0,4.4,2.88,6.67,6.67,0,0,0,1.48-.12,4,4,0,0,0,2.22-1.23,5.54,5.54,0,0,0,.94-1.53c.61-1.41.41-3.38,1.44-3.6l.13,0h.13c1.41,0,1.29,2.17,2.1,3.71a5.37,5.37,0,0,0,5.18,3.08,4.71,4.71,0,0,0,3.6-1.26,4.81,4.81,0,0,0,.9-1.42,24.69,24.69,0,0,0,.77-4,2,2,0,0,1,.22-.58,2.62,2.62,0,0,0,.67-1.43,1.28,1.28,0,0,0-.87-1.27l-.75-.1a22.88,22.88,0,0,0-7.42.07c-2.35.63-3.15,1.38-4.47,1.36s-2-.81-4.28-1.55a20.27,20.27,0,0,0-7-.37l-.69.07A1.15,1.15,0,0,0,300.68,156.49Zm15.51,1.5a1.89,1.89,0,0,1,.66-.54,8.62,8.62,0,0,1,3.49-1c2.27-.18,3.69.36,4.21.82s.34,2.56.14,3.62a5.68,5.68,0,0,1-.81,2.21,3.49,3.49,0,0,1-3.14,1.48,4.47,4.47,0,0,1-3.37-1.28h0a4.8,4.8,0,0,1-1.13-2.14C315.94,160,315.76,158.63,316.19,158Zm-13.35-1.14a1.8,1.8,0,0,1,.55-.34,5.66,5.66,0,0,1,2.52-.38,10.38,10.38,0,0,1,1,.1c1.62.24,3.32,1,3.77,1.65s.38,2,.19,3.21a4.84,4.84,0,0,1-.63,1.72,3.48,3.48,0,0,1-3.34,1.52,4.06,4.06,0,0,1-1.71-.41,4.87,4.87,0,0,1-2.26-3.44C302.71,159.41,302.37,157.31,302.84,156.85Z" style="fill:#455a64"></path><path d="M314.66,160.13l-.89,7.15-4.61-2.15-.85-.4L309,164l1.7-2,1.63-1.88,1-1.19h.07C314.09,158.93,314.41,159.43,314.66,160.13Z" style="fill:#f28f8f"></path></g></g></g><path d="M352.57,241.13c-1.88-7.74-2.57-10.34-2.62-17.61,0-3.74.42-6.14-.95-6.3l-.19,1.85c-19.77,5-12.67-30.39-11.81-34.25,0,0-5.73-.93-5.76-.88-1.26,4.8-19.59,29.55-20.69,30.71-.28-11.79.72-22.54,4.33-31.15,0,0-2.85.33-4.91.61-1.38,2.21-12.36,20.53-13.08,26.11-.16,1.39-1,8.53-1.24,11.24-.7,9.44-1,12.89-1.14,22.35,0,2.92.58,2.95,2,3.54,3.65,1.7,9.76,4.6,12.4-.26.51,6.7,16.95,6.91,27.05,5.35C343.69,251.23,354.22,246.5,352.57,241.13Z" style="fill:#BA68C8"></path><path d="M295,230.61c12,7.28,37.35,10.84,55.48.84-.16-1.08-.28-2.17-.36-3.36-18,9.69-42.89,6.24-54.89-.89C295.14,228.4,295.06,229.53,295,230.61Z" style="fill:#fafafa"></path><path d="M351.85,238.15c-.28-1.16-.52-2.21-.74-3.19-18.61,10.49-45.06,6.89-56.33-.63,0,1.08-.1,2.19-.14,3.39C305.91,245.43,333.08,249.16,351.85,238.15Z" style="fill:#fafafa"></path><path d="M310.61,214.61c-1.49,7.86-1.73,22.93-1.73,32.62C307.26,240,307.52,222.72,310.61,214.61Z" style="opacity:0.15"></path><path d="M391.11,230.58a47.49,47.49,0,0,1,4.92-1.74c1.27-.39,2.08,0,5.38,1.39s4.08,2.16,4.48,3.11a2.14,2.14,0,0,1-.58,2.45,1.89,1.89,0,0,1-.16,3.23,1.71,1.71,0,0,1-.36,2.82,2.32,2.32,0,0,1-1.29,3.35,34.66,34.66,0,0,1-4.94,1.24Z" style="fill:#f28f8f"></path><path d="M403.84,159.39h0c4.38-10,9.7-19,11.42-29.72l1.05-6.51a22.34,22.34,0,0,0-7.3-20.41,37,37,0,0,0-4.24-3.21,26.55,26.55,0,0,0-6.25-3.1,5.59,5.59,0,0,0-7.31,5.41l.11,6.45c.26,15.74,4.44,32.86,8.06,48.19Z" style="fill:#BA68C8"></path><path d="M403.84,159.39h0c4.38-10,9.7-19,11.42-29.72l1.05-6.51a22.34,22.34,0,0,0-7.3-20.41,37,37,0,0,0-4.24-3.21,26.55,26.55,0,0,0-6.25-3.1,5.59,5.59,0,0,0-7.31,5.41l.11,6.45c.26,15.74,4.44,32.86,8.06,48.19Z" style="opacity:0.15"></path><path d="M399.38,156.49s1.18-32.06,4-30.47.5,33.37.5,33.37Z" style="opacity:0.2"></path><path d="M404,156.74a5.05,5.05,0,0,0-4.6-.25,1.62,1.62,0,0,0-1,1.27c0,.23-.06,1.12-.07,1.35a1.61,1.61,0,0,0,.87,1.38,5.11,5.11,0,0,0,4.6.25,1.6,1.6,0,0,0,1-1.27c0-.23.07-1.13.08-1.36A1.62,1.62,0,0,0,404,156.74Z" style="fill:#455a64"></path><path d="M403.76,160.74c1.31-.67,1.38-1.86.15-2.66a5.11,5.11,0,0,0-4.6-.25c-1.31.67-1.38,1.86-.15,2.66A5.11,5.11,0,0,0,403.76,160.74Z" style="fill:#37474f"></path><path d="M402.55,158.76a2.23,2.23,0,0,0-2-.11.72.72,0,0,0-.44.56c0,.1-11.2,207-11.21,207.05a.72.72,0,0,0,.39.6,2.21,2.21,0,0,0,2,.11.71.71,0,0,0,.45-.56c0-.1,11.2-206.95,11.2-207A.69.69,0,0,0,402.55,158.76Z" style="fill:#455a64"></path><path d="M391.28,367a.62.62,0,0,0,.07-1.16,2.23,2.23,0,0,0-2-.11.61.61,0,0,0-.06,1.16A2.21,2.21,0,0,0,391.28,367Z" style="fill:#37474f"></path><path d="M392.71,364.25a5.08,5.08,0,0,0-4.6-.25,1.62,1.62,0,0,0-1,1.27c0,.23-.06,1.12-.07,1.35a1.6,1.6,0,0,0,.88,1.38,5.09,5.09,0,0,0,4.59.25,1.58,1.58,0,0,0,1-1.27c0-.23.07-1.13.08-1.36A1.63,1.63,0,0,0,392.71,364.25Z" style="fill:#455a64"></path><path d="M392.49,368.25c1.31-.66,1.38-1.85.15-2.65a5.05,5.05,0,0,0-4.6-.25c-1.31.66-1.37,1.85-.14,2.65A5.09,5.09,0,0,0,392.49,368.25Z" style="fill:#37474f"></path><path d="M392.5,368.26h0c3.05,14.8,7.06,29.91,7.54,42.08l.29,7.38c.34,8.63-3,12.44-8.93,9.84a30.47,30.47,0,0,1-4.29-2.35,39.86,39.86,0,0,1-6.14-5c-3.52-3.48-6.7-10.76-6.25-14.25l.78-5.88c1.88-14.34,7.57-25,12.55-34.74Z" style="fill:#BA68C8"></path><path d="M392.5,368.26h0c3.05,14.8,7.06,29.91,7.54,42.08l.29,7.38c.34,8.63-3,12.44-8.93,9.84a30.47,30.47,0,0,1-4.29-2.35,39.86,39.86,0,0,1-6.14-5c-3.52-3.48-6.7-10.76-6.25-14.25l.78-5.88c1.88-14.34,7.57-25,12.55-34.74Z" style="opacity:0.15"></path><path d="M388.05,365.36s-2.26,31.35.5,33.37,3.95-30.47,3.95-30.47Z" style="opacity:0.2"></path><g id="freepik--Flag--inject-84"><path d="M398.56,246.43c-.62.08-1.53-.82-2.18-1.41s-1.48-1.3-1.49-1.87c0-.8,1.1-.93,1.1-.93a5.35,5.35,0,0,1-.6-.43c-.78-.6.38-1.67,1.56-1.38,0,0-.52-.23-.57-.55a1.47,1.47,0,0,1,1.4-1.59c-.84-.3-.7-1.46-.25-2.39a2.86,2.86,0,0,1,1.26,0C399.93,238.93,399.29,242.52,398.56,246.43Z" style="fill:#f28f8f"></path><path d="M404.79,241.84a16.65,16.65,0,0,1-2.18.9,22.25,22.25,0,0,1-2.24.69,3.36,3.36,0,0,1-2.21-.28c-.74-.27-1.46-.59-2.17-.93a13.53,13.53,0,0,0,2.08,1.14,3.53,3.53,0,0,0,2.37.35,16.13,16.13,0,0,0,2.25-.77A10.24,10.24,0,0,0,404.79,241.84Z" style="fill:#b16668"></path><path d="M397,240.41a18.41,18.41,0,0,0,2.07.65,2.84,2.84,0,0,0,1.13.06,7,7,0,0,0,1-.34,40.06,40.06,0,0,0,4-1.76c-1.37.45-2.71,1-4.06,1.5-.33.12-.67.26-1,.35a3.26,3.26,0,0,1-1,0C398.36,240.73,397.66,240.55,397,240.41Z" style="fill:#b16668"></path><path d="M397.78,238.27a4.14,4.14,0,0,0,2,.21,11.8,11.8,0,0,0,1.9-.77,38.68,38.68,0,0,0,3.59-1.92c-1.26.5-2.48,1.1-3.71,1.66a18.37,18.37,0,0,1-1.83.82A5.12,5.12,0,0,1,397.78,238.27Z" style="fill:#b16668"></path></g><path d="M370,238s8.1,2.43,13.54,4c4.16,1.2,4.51,1.92,6,3.14,1.63,1.37,5.82,1.25,5.82,1.25h0l.11-2.19c-.36-.44-.59-.68-.6-1a.94.94,0,0,1,.75-.86l0-.31-.27-.19c-.48-.38-.23-.92.3-1.22l.09-1.76a11.51,11.51,0,0,0,1.46-2.09h0a5.58,5.58,0,0,0,.29-.84s.21,0,.5,0a5.69,5.69,0,0,1,2.86.56c.82,1.16,2,2.55,3.82,2.36,1.45-.16,1.38-.84.51-2.24a22.4,22.4,0,0,0-2.5-3.83c-.6-.64-2.79-1.41-4.55-2l-2-.59-.21,0c-1.26-.32-2.3-.15-4.54.42a7.79,7.79,0,0,1-4.34.11c-1.22-.22-7.78-3.07-7.78-3.07Z" style="fill:#ffa8a7"></path><path d="M389.83,241.83a10.54,10.54,0,0,0,5.35-.69,1.08,1.08,0,0,1,.51-.56l.09-1.76C394.7,240.65,392.1,241.7,389.83,241.83Z" style="fill:#f28f8f"></path><path d="M342.71,185.69c10.14,1.45,12.87,4.74,17.94,18,4.34,11.4,6.07,15.23,6.07,15.23L386,230.28s-4.92,1.2-3.16,11.56c0,0-12.46-3.33-21.65-6.59-6-2.13-8-4.12-10.21-9.38-2.87-6.73-5.91-13.36-5.91-13.36s-3.11-8.18-3.77-13.38C340.18,190.42,342.71,185.69,342.71,185.69Z" style="fill:#f0f0f0"></path></g></g></g><g id="freepik--speech-bubble--inject-84"><g id="freepik--speech-bubble--inject-84"><g id="freepik--speech-bubble--inject-84"><path d="M353.78,100.89a21.64,21.64,0,0,1-10.62,12l-2.29,1a21.76,21.76,0,0,1-18.3-39.34l2.23-1.1a21.76,21.76,0,0,1,29,27.49Z" style="fill:#fff"></path><path d="M341.42,71.23A23.62,23.62,0,0,0,321.65,114l.14,7.34a1.37,1.37,0,0,0,2.41.87l4.83-5.52a23.62,23.62,0,0,0,12.39-45.42Zm12.36,29.66a21.68,21.68,0,0,1-10.62,12l-2.29,1a21.76,21.76,0,0,1-18.3-39.34l2.23-1.1a21.76,21.76,0,0,1,29,27.49Z" style="fill:#455a64"></path></g><path id="freepik--Heart--inject-84" d="M333.32,106.67c-15.37-8.19-16.6-17-12.14-21.27,4-3.85,11.33-1.31,12.14,4.19.82-5.5,8.14-8,12.14-4.19C349.93,89.7,348.69,98.48,333.32,106.67Z" style="fill:#BA68C8"></path></g></g></svg>
