<svg xmlns="http://www.w3.org/2000/svg" viewBox="0 0 750 500"><g id="freepik--background-simple--inject-236"><path d="M57.22,376.64s-15.3-105,40.53-193.18S236.18,71.53,338.67,65.89,526.81,31.35,610.18,92.55s73.42,164.58,68.83,214,22.18,103.15,3.82,137.92S629.3,503,514.57,475.69s-208-30.22-270-18.15S66.4,479.72,57.22,376.64Z" style="fill:#92E3A9"></path><path d="M57.22,376.64s-15.3-105,40.53-193.18S236.18,71.53,338.67,65.89,526.81,31.35,610.18,92.55s73.42,164.58,68.83,214,22.18,103.15,3.82,137.92S629.3,503,514.57,475.69s-208-30.22-270-18.15S66.4,479.72,57.22,376.64Z" style="fill:#fff;opacity:0.7000000000000001"></path></g><g id="freepik--Clouds--inject-236"><path d="M556.74,205.08c-4.25,3.25-7,6.65-9.33,8.43-4.35,3.26-12-2.18-17.4-2.18s-15.22,12-15.22,12H719.23s-8.7-8.7-17.4-12-14.14,1.09-20.66,3.27a106.83,106.83,0,0,0-5.77-19.75" style="fill:none;stroke:#263238;stroke-miterlimit:10"></path><path d="M672.52,188.35c-4.72-9.58-11.71-19.19-21.8-23.78C626.8,153.7,599.61,175.45,592,193.93s-6.53,1.09-20.66,4.35a39.33,39.33,0,0,0-7.89,2.71" style="fill:none;stroke:#263238;stroke-miterlimit:10"></path><path d="M497.28,73a23.13,23.13,0,0,0-8.94-7.69c-13.65-6.21-29.17,6.21-33.52,16.76s-3.72.62-11.79,2.48-11.18,6.83-13.66,8.69S422.54,92,419.44,92s-8.69,6.83-8.69,6.83h116.7s-5-5-9.93-6.83-8.07.62-11.8,1.86A60,60,0,0,0,500,77.4" style="fill:none;stroke:#263238;stroke-miterlimit:10"></path><path d="M135.45,202.69h45.12s-5-5-9.94-6.83-8.07.62-11.79,1.86c0,0-3.72-22.35-17.38-28.55s-29.18,6.2-33.52,16.76-3.72.62-11.79,2.48S85,195.24,82.49,197.1s-6.83-1.24-9.93-1.24-8.69,6.83-8.69,6.83h63.25" style="fill:none;stroke:#263238;stroke-miterlimit:10"></path></g><g id="freepik--Iceberg--inject-236"><path d="M118.83,391.81,103,263.57s-.65-16.24,9.09-23.38,57.8-6.5,64.29-7.79,13.64-13,25.33-17.54,53.25.65,53.25.65,63.64-27.92,76.63-39.61,57.15-37,81.17-32.47,102.6,92.2,108.45,99.35,16.45,6.81,24.42,9.42c6.8,2.22,9.22,8.94,13.48,13.95a26.7,26.7,0,0,0,20.55,9.11c7.79,0,32.47-3.25,52.6-1.95s34.42,13.63,34.42,13.63,11.69,3.25,13,6.5S668.19,392,668.19,392Z" style="fill:#fff;stroke:#263238;stroke-miterlimit:10"></path><path d="M116.67,234.62s-14,3.22-18.78,11.27-3.76,14.48-1.07,22,7,28.44,7,38.63,10.2,3.76,11.27-1.07S113.45,269,117.74,262s5.91,3.76,8.59,4.3,9.66,1.07,14.49-6.44,8.05-7,16.63-5.37,11.81-1.07,15-4.83,8.58-2.14,10.73,2.69,18.24,8.58,24.14-.54,5.91-19.85,13.42-20.93,20.93,5.37,25.76,3.76S261,221.2,266.92,225s3.22,18.24,9.12,24.68,15,1.08,18.78-10.19,4.29-24.69,7.51-27.37,38.64-22.54,45.61-27.36,15.56,7.51,23.61,7.51,13.42-15.56,16.1-20.93,20.39-11.8,23.61-8.59,3.76,39.18,8.05,52,20.93-5.36,27.9-19.31,8.05-5.91,10.73,4.29S466,247,475.11,248s10.74-17.7,14-16.63,4.83,7.51,6.44,11.27-2.15,20.39,8.58,26.29,14.49-13.95,19.32-10.73,2.68,10.19,9.12,9.12,10.73-2.15,13.42,3.76,1.61,24.14,7,36.49,21.46,5.36,24.68-1.08,7.52-18.24,10.2-17.17,10.2,13.42,16.63,7.51,7-10.19,11.81-11.27,9.66,13.42,15,19.86,15,10.73,24.15,1.61S669.9,299,671,306s-3.22,29.51,4.29,25.22,10.74-22.54,10.74-30-5.37-11.27-9.66-11.81-3.76-1.07-12.88-7.51S623.75,269,613,270.57s-44.54,8.05-47.76,2.15-7.51-18.25-17.17-20.93-22-7-24.14-9.66-48.3-56.88-67.62-72.44-37-30.59-51.51-32.2-32.19,5.91-44.54,12.88S262.62,211,255.65,213.15s-42.93-7.51-52.05-3.21-16.1,18.78-23.07,21.46S128.48,226,116.67,234.62Z" style="fill:#263238;stroke:#263238;stroke-miterlimit:10"></path><path d="M116.67,229.9s-14,3.22-18.78,11.27-3.76,14.49-1.07,22,7,28.44,7,38.63,10.2,3.76,11.27-1.07-1.61-36.49,2.68-43.46,5.91,3.75,8.59,4.29,9.66,1.07,14.49-6.44,8.05-7,16.63-5.37,11.81-1.07,15-4.82,8.58-2.15,10.73,2.68,18.24,8.58,24.14-.54,5.91-19.85,13.42-20.93,20.93,5.37,25.76,3.76,14.48-13.41,20.39-9.66,3.22,18.25,9.12,24.69,15,1.07,18.78-10.2,4.29-24.68,7.51-27.37S341,184.83,347.94,180s15.56,7.51,23.61,7.51S385,172,387.65,166.58,408,154.78,411.26,158s3.76,39.17,8.05,52.05,20.93-5.37,27.9-19.32,8.05-5.9,10.73,4.29,8.05,47.22,17.17,48.3,10.74-17.71,14-16.64,4.83,7.51,6.44,11.27-2.15,20.39,8.58,26.29,14.49-14,19.32-10.73,2.68,10.2,9.12,9.12,10.73-2.14,13.42,3.76,1.61,24.15,7,36.49,21.46,5.36,24.68-1.08,7.52-18.24,10.2-17.17,10.2,13.42,16.63,7.52,7-10.2,11.81-11.27,9.66,13.41,15,19.85,15,10.73,24.15,1.61,14.49-8,15.56-1.07-3.22,29.51,4.29,25.22S686,304,686,296.44s-5.37-11.27-9.66-11.81-3.76-1.07-12.88-7.51S623.75,264.24,613,265.85s-44.54,8-47.76,2.15-7.51-18.25-17.17-20.93-22-7-24.14-9.66-48.3-56.88-67.62-72.44-37-30.58-51.51-32.19-32.19,5.9-44.54,12.88-97.66,60.63-104.63,62.78-42.93-7.52-52.05-3.22S187.5,224,180.53,226.68,128.48,221.32,116.67,229.9Z" style="fill:#fff;stroke:#263238;stroke-miterlimit:10"></path><line x1="153" y1="267.11" x2="152.62" y2="256.19" style="fill:none;stroke:#263238;stroke-miterlimit:10"></line><polyline points="147.26 250.83 156.38 364.59 153.23 273.74" style="fill:none;stroke:#263238;stroke-miterlimit:10"></polyline><line x1="207.75" y1="337.05" x2="207.35" y2="329.17" style="fill:none;stroke:#263238;stroke-miterlimit:10"></line><line x1="210.57" y1="393.03" x2="208.1" y2="344.04" style="fill:none;stroke:#263238;stroke-miterlimit:10"></line><line x1="599.1" y1="374.93" x2="597.67" y2="386.49" style="fill:none;stroke:#263238;stroke-miterlimit:10"></line><line x1="609.8" y1="288.93" x2="599.98" y2="367.88" style="fill:none;stroke:#263238;stroke-miterlimit:10"></line><line x1="519.65" y1="259.41" x2="517.51" y2="278.19" style="fill:none;stroke:#263238;stroke-miterlimit:10"></line><line x1="509.83" y1="339.52" x2="504.63" y2="385.51" style="fill:none;stroke:#263238;stroke-miterlimit:10"></line><line x1="511.07" y1="328.63" x2="510.3" y2="335.41" style="fill:none;stroke:#263238;stroke-miterlimit:10"></line><line x1="666.14" y1="301.8" x2="662.92" y2="332.39" style="fill:none;stroke:#263238;stroke-miterlimit:10"></line></g><g id="freepik--Floor--inject-236"><line x1="75.42" y1="392.15" x2="725.87" y2="392.15" style="fill:#fff;stroke:#263238;stroke-miterlimit:10"></line><line x1="53.01" y1="392.15" x2="66.92" y2="392.15" style="fill:#fff;stroke:#263238;stroke-miterlimit:10"></line><line x1="147.21" y1="392.01" x2="147.21" y2="410.29" style="fill:none;stroke:#263238;stroke-miterlimit:10"></line><line x1="168.54" y1="423.98" x2="168.54" y2="454.47" style="fill:none;stroke:#263238;stroke-miterlimit:10"></line><line x1="168.54" y1="408" x2="168.54" y2="419.04" style="fill:none;stroke:#263238;stroke-miterlimit:10"></line><line x1="541.06" y1="392.01" x2="541.06" y2="410.29" style="fill:none;stroke:#263238;stroke-miterlimit:10"></line><line x1="562.39" y1="443.77" x2="562.39" y2="454.47" style="fill:none;stroke:#263238;stroke-miterlimit:10"></line><line x1="562.39" y1="408" x2="562.39" y2="438" style="fill:none;stroke:#263238;stroke-miterlimit:10"></line><line x1="336.14" y1="408" x2="336.14" y2="436.95" style="fill:none;stroke:#263238;stroke-miterlimit:10"></line><line x1="636.28" y1="392.01" x2="636.28" y2="410.29" style="fill:none;stroke:#263238;stroke-miterlimit:10"></line><line x1="657.61" y1="408" x2="657.61" y2="454.47" style="fill:none;stroke:#263238;stroke-miterlimit:10"></line></g><g id="freepik--Penguin--inject-236"><path d="M400.74,431.39s7.1,32.15,20,41.33,20.46,7.1,21.71,5,.84-7.94,2.09-8.36,9.6,2.51,14.2.42-1.67-8.35-1.67-10.44,7.09-.83,8.35-5.42-18-7.94-28-10.86S417,431.39,416.19,430.14,407,431,400.74,431.39Z" style="fill:#92E3A9;stroke:#263238;stroke-miterlimit:10"></path><path d="M355.65,219.29s-12.95,22.12-28.81,62.21-27.56,108.14-27.56,108.14,7.52,15.45,12.94,14.61S323.91,397.57,326,398s16.7,12.52,39.67,20,32.56,5.84,33.82,9.18.83,7.1,6.68,7.94,16.7-4.18,19.62-8.35,5.43-7.52,5.43-7.52S463,395.48,471.3,380s5-15.44-1.67-12.52L463,370.43s11.27-7.51,6.68-44.68a607.52,607.52,0,0,0-13.36-70.56s-17.54,6.68-58.45-9.6S355.65,219.29,355.65,219.29Z" style="fill:#263238;stroke:#263238;stroke-miterlimit:10"></path><ellipse cx="387.29" cy="324.71" rx="65.23" ry="88.31" style="fill:#fff;stroke:#263238;stroke-miterlimit:10"></ellipse><path d="M361.91,197.57s-8.77,17.12-9.19,23.39,2.09,29.22,38.83,38.83,65.56,4.17,69.73-2.93,4.18-23,4.18-23-54.28,3.76-76.41-9.19S361.91,197.57,361.91,197.57Z" style="fill:#92E3A9;stroke:#263238;stroke-miterlimit:10"></path><path d="M366.7,248.19,378,217.12a71.44,71.44,0,0,1-7.17-6.61l-11.13,30.64A40.87,40.87,0,0,0,366.7,248.19Z" style="fill:#263238"></path><path d="M411,263.66l8.42-30.72c-3-.35-6-.78-9-1.3l-8.37,30.54C405.16,262.78,408.15,263.26,411,263.66Z" style="fill:#263238"></path><path d="M462.37,234.07c-2.14.1-5.29.22-9.12.29l-3.74,28.54a28.45,28.45,0,0,0,9.58-3.83Z" style="fill:#263238"></path><path d="M443.84,234.38c-2.9,0-6-.12-9.14-.26L428.36,265c3.28,0,6.37-.08,9.25-.29Z" style="fill:#263238"></path><path d="M380.44,256.08a83,83,0,0,0,8.5,3l10.77-29.91a55,55,0,0,1-8.41-3.22Z" style="fill:#263238"></path><path d="M401.69,113.13s46.25-12.62,60.61-15.77,21-1,23.12.35S511.35,125,517,140.81s9.46,28.73,8.41,29.78-4.91-3.51-9.81-6.31-10.16-6.66-10.16-6.66a177.74,177.74,0,0,1,.7,19.62A64.39,64.39,0,0,1,503.29,193S491,151.67,464.05,133.8s-72.87-15.07-72.87-15.07Z" style="fill:#263238;stroke:#263238;stroke-miterlimit:10"></path><path d="M366.65,154.47c-.82.65-1.4-7,1.4-11.91s9.46-19.27,15.77-23.13,39.24-21.72,83,7S504,188.81,504,196.86s-8.76,15.42-10.86,17.87-5.25,7.71-10.86,9.11-8.41.35-8.41.35A51,51,0,0,0,483,189.51c-2.1-20.67-22.77-46.25-50.45-52.91S393.28,133.45,366.65,154.47Z" style="fill:#fff;stroke:#263238;stroke-miterlimit:10"></path><path d="M446.67,243.08s13.36,6.27,15,25.06,15,42.17,34.65,46.76,29.23,1.67,29.23,1.67l3.76-26.3s-21.3,5.42-30.9-12.11-16.7-32.57-23-38.42-10-5.84-10-5.84S454.18,241.83,446.67,243.08Z" style="fill:#92E3A9;stroke:#263238;stroke-miterlimit:10"></path><path d="M457.35,253.8l21.47-10.2a29.39,29.39,0,0,0-3.34-3.86,36.69,36.69,0,0,0-3.48-2.87l-20.43,9.71A29.56,29.56,0,0,1,457.35,253.8Z" style="fill:#263238"></path><path d="M504.43,285.43l-25.89,19a43.17,43.17,0,0,0,7.2,5.88L513.44,290A24.22,24.22,0,0,1,504.43,285.43Z" style="fill:#263238"></path><path d="M493.54,269.06q-2.22-4.15-4.25-7.95l-26.74,12.78a61,61,0,0,0,2.49,8.79Z" style="fill:#263238"></path><ellipse cx="422.6" cy="187.37" rx="56.93" ry="67.12" transform="translate(110.89 528.73) rotate(-71.51)" style="fill:#263238;stroke:#263238;stroke-miterlimit:10"></ellipse><circle cx="530.27" cy="180.75" r="10.86" transform="translate(39.65 451.22) rotate(-47.69)" style="fill:#fff;stroke:#263238;stroke-miterlimit:10"></circle><path d="M495.19,118.92c-1.05-2.2-2.2-4.38-3.46-6.49" style="fill:none;stroke:#969696;stroke-miterlimit:10"></path><path d="M505.4,157.62a124.91,124.91,0,0,0-7.67-32.81" style="fill:none;stroke:#969696;stroke-miterlimit:10"></path><path d="M443.35,156.94c-9.27-.51-24.54,12.52-30.05,23.53l-5.26-6s7.76-4.5,10.52-20-22-21.53-44.58-10l-1.34.74a49.56,49.56,0,0,0-13.7,20.93c-10,29.82,10.44,63.52,45.6,75.28,18.51,6.19,37.42,5,52.63-1.76,4.71-6.58,10.18-16.95,14-32.58C479.16,174,452.61,157.44,443.35,156.94Z" style="fill:#fff;stroke:#263238;stroke-miterlimit:10"></path><path d="M403,165.47c-.9,2.43-3,3.9-4.66,3.28s-2.29-3.1-1.39-5.53,3-3.91,4.67-3.29S403.9,163,403,165.47Z" style="fill:#263238;stroke:#263238;stroke-miterlimit:10"></path><path d="M430.9,175.72c-.9,2.43-3,3.9-4.66,3.28s-2.29-3.1-1.39-5.53,3-3.91,4.67-3.29S431.81,173.28,430.9,175.72Z" style="fill:#263238;stroke:#263238;stroke-miterlimit:10"></path><ellipse cx="442.45" cy="200.17" rx="14.49" ry="16.99" transform="translate(185.95 612.52) rotate(-82.46)" style="fill:#92E3A9"></ellipse><ellipse cx="378.08" cy="170.03" rx="13.2" ry="16.02" transform="translate(90.47 468.59) rotate(-70.29)" style="fill:#92E3A9"></ellipse><path d="M401.06,182.55s-2.33,3.72-2.57,6.59,0,6.94.83,7.44,6.69-.46,10.65-1.15,7.28-2.43,8.7-3.9,3-5.62,3-5.62l-18.55-7.38Z" style="fill:#92E3A9;stroke:#263238;stroke-miterlimit:10"></path><path d="M403.89,179.75a21.65,21.65,0,0,0-2.82,7.87,57.94,57.94,0,0,0-.44,7s8.34-1.19,11.78-2.49a28.5,28.5,0,0,0,7-3.77,4.91,4.91,0,0,0,1.06-2.37Z" style="fill:#263238;stroke:#263238;stroke-miterlimit:10"></path><path d="M406.41,182c-1.09-.44-4.28,8.21-2,8.87,1.23.35,8.94-1.77,10.93-3.11S406.46,182,406.41,182Z" style="fill:#fff;stroke:#263238;stroke-miterlimit:10"></path><path d="M422.77,186s.07-5.27-8.67-10.2-19.13-3-18.94-.87,8.36,9.48,13.33,11.3S419.48,190.42,422.77,186Z" style="fill:#92E3A9;stroke:#263238;stroke-miterlimit:10"></path><path d="M312.22,403.21a148.25,148.25,0,0,1-18.74-31.34c-7.21-17.1-9.61-32.29-15.86-30.39s-3.84,10.92-7.21,14.24-9.61-17.09-16.82-14.24-2.4,13.29-1.44,17.09-6.73-5.22-6.73,2.85-.48,17.57,20.19,36.09S307.9,415.08,312.22,403.21Z" style="fill:#92E3A9;stroke:#263238;stroke-miterlimit:10"></path><path d="M263.62,134a4.27,4.27,0,0,1-1.06-.13,4.56,4.56,0,0,1-3.38-5.5l23.54-98.74a4.57,4.57,0,0,1,6.51-3L330.7,47.65a4.57,4.57,0,0,1-4.14,8.14l-36.3-18.46-22.2,93.11A4.57,4.57,0,0,1,263.62,134Z" style="fill:#fff;stroke:#263238;stroke-miterlimit:10"></path><ellipse cx="273.28" cy="144.15" rx="70.7" ry="54.23" transform="translate(-25.56 65.69) rotate(-13.1)" style="fill:none;stroke:#263238;stroke-miterlimit:10"></ellipse><ellipse cx="275.1" cy="159.4" rx="81.32" ry="42.11" transform="translate(-28.97 66.5) rotate(-13.1)" style="fill:#92E3A9;stroke:#263238;stroke-miterlimit:10"></ellipse><path d="M385.19,301.52,349.13,145.28c-4.53-19.46-41-27.6-81.54-18.18S197.92,160,202.45,179.41a17.94,17.94,0,0,0,.71,2.26l47.3,151.21c4.16,17.88,37.7,25.35,74.9,16.69S389.36,319.4,385.19,301.52Z" style="fill:#92E3A9;stroke:#263238;stroke-miterlimit:10"></path><path d="M216.34,223.82c5.25-10.35,11.3-21.54,18.14-33.14a492.79,492.79,0,0,1,46.27-66c-4.31.62-8.71,1.43-13.16,2.46-4.69,1.09-9.22,2.38-13.57,3.82a528.55,528.55,0,0,0-34.19,51.13c-3.79,6.44-7.35,12.74-10.66,18.84Z" style="fill:#fff;stroke:#263238;stroke-miterlimit:10"></path><path d="M354.6,169l-4.87-21.06Q313.31,191,279.12,251.1c-13.71,24.1-25.06,46.78-33.78,65.41l5.12,16.37a17.13,17.13,0,0,0,3.11,6.48c9.06-20.31,22.7-48.84,40.33-79.86C314.87,222.62,335.36,192.9,354.6,169Z" style="fill:#fff;stroke:#263238;stroke-miterlimit:10"></path><path d="M293.27,353.15a908.49,908.49,0,0,1,52.24-93c6.85-10.58,14.4-21.65,22.56-32.75l-5-21.66q-16.11,20.88-32,45.4a930.07,930.07,0,0,0-55.73,100A89.76,89.76,0,0,0,293.27,353.15Z" style="fill:#fff;stroke:#263238;stroke-miterlimit:10"></path><path d="M258.41,232.64c16.51-29.79,41-67.62,74.27-103.86a70.47,70.47,0,0,0-18.6-4.76A568.07,568.07,0,0,0,243.32,224.8c-6.33,11.44-11.84,22.25-16.6,32.19l7.59,24.26C240.41,267.37,248.37,250.74,258.41,232.64Z" style="fill:#fff;stroke:#263238;stroke-miterlimit:10"></path><ellipse cx="318.04" cy="313.69" rx="67.89" ry="34.44" transform="translate(-68.22 89.29) rotate(-14.45)" style="fill:#92E3A9;stroke:#263238;stroke-miterlimit:10"></ellipse><path d="M446.67,264.38s-36.74,9.6-61,12.94-48.85-2.09-48.85,3.34,17.95,23,52.19,28.39,61.79-3.34,66-5" style="fill:#263238;stroke:#263238;stroke-miterlimit:10"></path></g></svg>
