<svg xmlns="http://www.w3.org/2000/svg" viewBox="0 0 750 500"><g id="freepik--background-complete--inject-36"><polygon points="440.76 370.17 427.86 361.02 425.98 348.58 419.32 343.89 415.62 334.03 408.83 327.35 384.35 328.11 375.31 342.72 368.6 358.73 359.15 365.21 351.85 384.24 446.39 384.24 440.76 370.17" style="fill:#ebebeb"></polygon><path d="M426.1,382.15c0-.34-5.72-12.78-5.72-12.78L404,360.17l-19,4.71,17.86-2.69L418.09,371Z" style="fill:#fafafa"></path><path d="M386.74,364.47l.08,0,.25-.05,1-.23,3.58-.86,12.45-3.06H404l7.58,4.27,8.77,4.92,0,0,5.13,10.7,1.48,3.06.4.81.1.2,0,.07,0-.07-.09-.22-.38-.81-1.44-3.08-5.08-10.72v0h0l-8.76-4.94-7.59-4.26H404l-12.43,3.12-3.58.91-.95.24-.24.07Z" style="fill:#e0e0e0"></path><path d="M121.64,476.73c-.11.08-2.93-3.83-6.29-8.73s-6-8.94-5.86-9,2.93,3.83,6.29,8.73S121.76,476.65,121.64,476.73Z" style="fill:#e0e0e0"></path><path d="M126.79,475.63a4,4,0,0,1-.45-.87c-.26-.58-.62-1.42-1-2.48a90,90,0,0,1-4.67-17c-.18-1.11-.31-2-.38-2.64a3.26,3.26,0,0,1-.05-1c.07,0,.33,1.36.8,3.57s1.14,5.24,2,8.55,1.87,6.27,2.6,8.4A29.15,29.15,0,0,1,126.79,475.63Z" style="fill:#e0e0e0"></path><path d="M130.18,476.64a97.13,97.13,0,0,1,0-10,91.92,91.92,0,0,1,.51-10,97.13,97.13,0,0,1,0,10A95.06,95.06,0,0,1,130.18,476.64Z" style="fill:#e0e0e0"></path><path d="M51.82,428.72c-.12.08-2.94-3.82-6.29-8.72s-6-8.94-5.87-9S42.6,414.8,46,419.7,51.94,428.64,51.82,428.72Z" style="fill:#e0e0e0"></path><path d="M57,427.63a3.28,3.28,0,0,1-.46-.88c-.26-.57-.61-1.42-1-2.47-.82-2.11-1.84-5.06-2.76-8.39s-1.54-6.39-1.91-8.62c-.19-1.11-.32-2-.38-2.65a3.47,3.47,0,0,1-.06-1,30.77,30.77,0,0,1,.8,3.56c.46,2.21,1.14,5.24,2,8.55s1.87,6.27,2.6,8.4A34,34,0,0,1,57,427.63Z" style="fill:#e0e0e0"></path><path d="M60.36,428.63a95.14,95.14,0,0,1,0-10,98.09,98.09,0,0,1,.51-10,97,97,0,0,1,0,10A96.55,96.55,0,0,1,60.36,428.63Z" style="fill:#e0e0e0"></path><path d="M444.58,480.07c-.1.07-2.51-3.27-5.38-7.46s-5.12-7.65-5-7.72,2.51,3.27,5.38,7.46S444.68,480,444.58,480.07Z" style="fill:#e0e0e0"></path><path d="M449,479.13a3.17,3.17,0,0,1-.39-.75c-.22-.49-.52-1.21-.87-2.11a74.87,74.87,0,0,1-2.36-7.18c-.78-2.84-1.32-5.46-1.64-7.37-.16-1-.27-1.73-.32-2.26a3.22,3.22,0,0,1,0-.85,28.8,28.8,0,0,1,.68,3.05c.4,1.89,1,4.48,1.76,7.32s1.6,5.36,2.22,7.18A26.39,26.39,0,0,1,449,479.13Z" style="fill:#e0e0e0"></path><path d="M451.88,480a82.46,82.46,0,0,1,0-8.56,85.53,85.53,0,0,1,.43-8.55,79.31,79.31,0,0,1,0,8.56A81.84,81.84,0,0,1,451.88,480Z" style="fill:#e0e0e0"></path><path d="M500.1,435.47c-.1.07-2.51-3.27-5.38-7.46s-5.11-7.65-5-7.72,2.51,3.27,5.38,7.47S500.21,435.4,500.1,435.47Z" style="fill:#e0e0e0"></path><path d="M504.51,434.53a2.77,2.77,0,0,1-.39-.75c-.23-.49-.53-1.21-.88-2.11-.7-1.8-1.57-4.33-2.36-7.17a73.6,73.6,0,0,1-1.63-7.38c-.16-.95-.27-1.72-.33-2.26a3.14,3.14,0,0,1-.05-.84,26.45,26.45,0,0,1,.69,3c.39,1.89,1,4.49,1.75,7.32s1.6,5.36,2.23,7.18A29.27,29.27,0,0,1,504.51,434.53Z" style="fill:#e0e0e0"></path><path d="M507.41,435.39a159.28,159.28,0,0,1,.42-17.11,82.61,82.61,0,0,1,0,8.56A85,85,0,0,1,507.41,435.39Z" style="fill:#e0e0e0"></path><path d="M352.21,470.44c-.12.08-2.93-3.83-6.29-8.73s-6-8.94-5.86-9,2.93,3.83,6.29,8.73S352.33,470.36,352.21,470.44Z" style="fill:#e0e0e0"></path><path d="M357.36,469.34a4,4,0,0,1-.45-.87c-.27-.58-.62-1.42-1-2.48-.82-2.1-1.84-5.06-2.76-8.38s-1.54-6.4-1.91-8.63c-.18-1.11-.31-2-.38-2.64a4.11,4.11,0,0,1-.06-1,30.68,30.68,0,0,1,.8,3.57c.46,2.2,1.15,5.24,2.06,8.55s1.87,6.27,2.6,8.4A31.68,31.68,0,0,1,357.36,469.34Z" style="fill:#e0e0e0"></path><path d="M360.75,470.35a97.13,97.13,0,0,1,0-10,96.87,96.87,0,0,1,.5-10,95.22,95.22,0,0,1,0,10A98.42,98.42,0,0,1,360.75,470.35Z" style="fill:#e0e0e0"></path><path d="M272.67,421.3c-.12.08-2.94-3.83-6.29-8.73s-6-8.94-5.87-9,2.94,3.83,6.3,8.73S272.79,421.22,272.67,421.3Z" style="fill:#e0e0e0"></path><path d="M277.82,420.2a4,4,0,0,1-.45-.87c-.27-.58-.62-1.42-1-2.48-.82-2.1-1.84-5.06-2.76-8.38s-1.54-6.4-1.91-8.63c-.19-1.11-.32-2-.38-2.64a4.11,4.11,0,0,1-.06-1,30.68,30.68,0,0,1,.8,3.57c.46,2.2,1.15,5.24,2.05,8.55s1.88,6.27,2.61,8.4A31.68,31.68,0,0,1,277.82,420.2Z" style="fill:#e0e0e0"></path><path d="M281.21,421.21a95.29,95.29,0,0,1,0-10,98.42,98.42,0,0,1,.51-10,97.13,97.13,0,0,1,0,10A96.87,96.87,0,0,1,281.21,421.21Z" style="fill:#e0e0e0"></path><path d="M676.53,423.52c-.12.08-2.94-3.83-6.29-8.73s-6-8.93-5.87-9,2.94,3.83,6.3,8.73S676.65,423.44,676.53,423.52Z" style="fill:#e0e0e0"></path><path d="M681.68,422.42a3.7,3.7,0,0,1-.45-.87c-.27-.58-.62-1.42-1-2.47-.82-2.11-1.84-5.06-2.76-8.39s-1.54-6.39-1.91-8.62c-.19-1.12-.31-2-.38-2.65a4.11,4.11,0,0,1-.06-1,30.68,30.68,0,0,1,.8,3.57c.46,2.2,1.15,5.24,2.05,8.55s1.88,6.27,2.61,8.4A31.68,31.68,0,0,1,681.68,422.42Z" style="fill:#e0e0e0"></path><path d="M685.07,423.43a95.22,95.22,0,0,1,0-10,98.42,98.42,0,0,1,.51-10,95.29,95.29,0,0,1,0,10A98.42,98.42,0,0,1,685.07,423.43Z" style="fill:#e0e0e0"></path><path d="M565.82,453.6c-.11.08-2.93-3.83-6.29-8.73s-6-8.94-5.86-9,2.93,3.83,6.29,8.73S565.94,453.52,565.82,453.6Z" style="fill:#e0e0e0"></path><path d="M571,452.5a3.7,3.7,0,0,1-.45-.87c-.26-.58-.61-1.42-1-2.47a85.27,85.27,0,0,1-2.76-8.39,86.49,86.49,0,0,1-1.92-8.62c-.18-1.12-.31-2-.38-2.65a3.26,3.26,0,0,1-.05-1c.07,0,.33,1.36.8,3.57s1.14,5.24,2,8.55,1.87,6.27,2.6,8.4A29.15,29.15,0,0,1,571,452.5Z" style="fill:#e0e0e0"></path><path d="M574.36,453.51a97,97,0,0,1,0-10,95.06,95.06,0,0,1,.51-10,97.13,97.13,0,0,1,0,10A95.06,95.06,0,0,1,574.36,453.51Z" style="fill:#e0e0e0"></path><path d="M646,467.47a106.63,106.63,0,0,1-6.29-8.72c-3.36-4.9-6-8.94-5.87-9s2.94,3.82,6.3,8.73S646.09,467.39,646,467.47Z" style="fill:#e0e0e0"></path><path d="M651.12,466.38a4,4,0,0,1-.45-.88c-.27-.57-.62-1.41-1-2.47-.82-2.1-1.84-5.06-2.76-8.39s-1.54-6.39-1.91-8.62c-.19-1.11-.32-2-.38-2.65a4,4,0,0,1-.06-1,30.77,30.77,0,0,1,.8,3.56c.46,2.21,1.15,5.24,2,8.56s1.88,6.27,2.61,8.4A31.68,31.68,0,0,1,651.12,466.38Z" style="fill:#e0e0e0"></path><path d="M654.51,467.39a95.29,95.29,0,0,1,0-10,98.42,98.42,0,0,1,.51-10,93.7,93.7,0,0,1,0,10A97.12,97.12,0,0,1,654.51,467.39Z" style="fill:#e0e0e0"></path><path d="M226.76,476c-.13,0,1.39-4.1,3.4-9.09a92.78,92.78,0,0,1,3.89-9c.13,0-1.39,4.1-3.4,9.09A92.78,92.78,0,0,1,226.76,476Z" style="fill:#e0e0e0"></path><path d="M221.56,476.54a24.66,24.66,0,0,1,.23-3.18c.18-2,.37-4.67.43-7.65s0-5.67-.14-7.62a25.62,25.62,0,0,1-.11-3.16,2.63,2.63,0,0,1,.19.83c.09.53.19,1.31.29,2.28a66.83,66.83,0,0,1,.28,7.64,65.82,65.82,0,0,1-.58,7.68c-.13,1-.26,1.78-.37,2.33A3.33,3.33,0,0,1,221.56,476.54Z" style="fill:#e0e0e0"></path><path d="M218.56,478.34a71.49,71.49,0,0,1-2.94-8.07,70.18,70.18,0,0,1-2.45-8.24,71.24,71.24,0,0,1,2.94,8.08A69.74,69.74,0,0,1,218.56,478.34Z" style="fill:#e0e0e0"></path><polyline points="274.67 301.35 250.87 301.35 250.87 384.79 274.67 384.79" style="fill:#f5f5f5"></polyline><path d="M339.71,308.44s-1-.68,1.21-3.6-1.21-4.49-1.21-4.49c-9.73,5.62-23.3,0-23.3,0s16-4.94,18-9.66c1.51-3.52-1.15-3.91-2.6-3.88,1.63-.17,5.17-.75,6.25-2.63,1.42-2.47-4.15-5.39-4.15-5.39s.91-1.35,0-3.82-21.79-6.06-21.79-6.06c6.08.67,8.31-5.39,8.31-5.39s10.33.23,12.77-3.82-1.63-5.16-8.51-8.53-22.09-15.95-22.09-15.95,9.52-.89,12.16-3.14.2-2.69.2-2.69c11.35,1.12,7.5-4.94,7.5-4.94a50.73,50.73,0,0,1-23.3-15s7.09-1.57,10.73-4.94-3-4.27-3-4.27,13.38-1.8,5.68-6.74c-5.85-3.75-15.22-8.8-18.13-10.32,3.19,1.17,10.43-.23,10.43-.23,8.51-3.82,0-9.43,0-9.43-9.93-5.62-24.52-19.77-24.52-19.77s7.3,3.82,10.94,2.7-4-5.62-4-5.62,3.85,1.13,5.47,0-4.25-6.28-4.25-6.28c-8.74-5.68-19.5-20.57-24-27-4.5,6.4-15.27,21.29-24,27,0,0-5.88,5.16-4.26,6.28s5.47,0,5.47,0-7.7,4.5-4.05,5.62,10.94-2.7,10.94-2.7S234,167.85,224,173.47c0,0-8.51,5.61,0,9.43,0,0,7.24,1.4,10.43.23-2.91,1.52-12.27,6.57-18.13,10.32-7.7,4.94,5.68,6.74,5.68,6.74s-6.69.9-3,4.27,10.74,4.94,10.74,4.94a50.8,50.8,0,0,1-23.3,15s-3.85,6.06,7.49,4.94c0,0-2.43.44.2,2.69s12.16,3.14,12.16,3.14-15.19,12.58-22.08,15.95-10.94,4.49-8.51,8.53,12.76,3.82,12.76,3.82,2.23,6.06,8.31,5.39c0,0-20.87,3.59-21.78,6.06s0,3.82,0,3.82-5.57,2.92-4.16,5.39c1.08,1.88,4.62,2.46,6.25,2.63-1.44,0-4.11.36-2.6,3.88,2,4.72,18,9.66,18,9.66s-13.57,5.62-23.3,0c0,0-3.44,1.57-1.21,4.49s1.21,3.6,1.21,3.6-5.06-3.82-2.83,2,14,9.43,14,9.43-6.69,1.12-4.66,4.71,10.53,7.86,19.85,8.76,21.89-2.47,21.89-2.47-8.51,4.49-2.64,7,12.56-3.14,12.56-3.14-1.21,5.75,3.65,3.77a33.18,33.18,0,0,0,8.92-5.79s1.51,8.47,4.55,6.44c3,2,4.56-6.44,4.56-6.44a33,33,0,0,0,8.91,5.79c4.86,2,3.65-3.77,3.65-3.77s6.68,5.61,12.56,3.14-2.63-7-2.63-7,12.56,3.37,21.88,2.47,17.83-5.16,19.86-8.76-4.67-4.71-4.67-4.71,11.76-3.59,14-9.43S339.71,308.44,339.71,308.44Z" style="fill:#f5f5f5"></path><polyline points="110.94 295.72 85.53 295.72 85.53 384.79 110.94 384.79" style="fill:#ebebeb"></polyline><path d="M180.36,303.29s-1.08-.72,1.3-3.84-1.3-4.79-1.3-4.79c-10.38,6-24.87,0-24.87,0s17.09-5.28,19.25-10.31c1.62-3.76-1.23-4.18-2.78-4.15,1.75-.18,5.52-.8,6.67-2.8,1.52-2.64-4.43-5.76-4.43-5.76s1-1.43,0-4.07S151,261.1,151,261.1c6.49.72,8.87-5.76,8.87-5.76s11,.24,13.62-4.07-1.73-5.51-9.08-9.11-23.58-17-23.58-17,10.17-1,13-3.36.22-2.87.22-2.87c12.11,1.2,8-5.28,8-5.28a54.12,54.12,0,0,1-24.87-16.06s7.57-1.68,11.46-5.27-3.24-4.56-3.24-4.56,14.27-1.91,6-7.19c-6.25-4-16.24-9.4-19.35-11,3.41,1.25,11.13-.24,11.13-.24,9.09-4.08,0-10.07,0-10.07-10.59-6-26.17-21.1-26.17-21.1s7.79,4.08,11.68,2.88-4.32-6-4.32-6,4.11,1.19,5.84,0-4.55-6.72-4.55-6.72c-9.32-6-20.81-21.95-25.62-28.78-4.81,6.83-16.3,22.73-25.62,28.78,0,0-6.28,5.52-4.55,6.72s5.84,0,5.84,0-8.22,4.79-4.32,6,11.68-2.88,11.68-2.88-15.58,15.11-26.17,21.1c0,0-9.09,6,0,10.07,0,0,7.72,1.49,11.13.24-3.11,1.62-13.1,7-19.35,11-8.22,5.28,6.05,7.19,6.05,7.19s-7.13,1-3.24,4.56,11.46,5.27,11.46,5.27a54.12,54.12,0,0,1-24.87,16.06s-4.11,6.48,8,5.28c0,0-2.59.48.22,2.87s13,3.36,13,3.36-16.22,13.42-23.58,17S24,247,26.6,251.27s13.62,4.07,13.62,4.07,2.38,6.48,8.87,5.76c0,0-22.28,3.83-23.25,6.47s0,4.07,0,4.07-5.95,3.12-4.43,5.76c1.15,2,4.93,2.62,6.67,2.8-1.55,0-4.39.39-2.78,4.15,2.16,5,19.25,10.31,19.25,10.31s-14.49,6-24.87,0c0,0-3.68,1.68-1.3,4.79s1.3,3.84,1.3,3.84-5.41-4.08-3,2.15,14.92,10.07,14.92,10.07-7.13,1.2-5,5,11.24,8.39,21.19,9.35,23.36-2.64,23.36-2.64-9.08,4.79-2.81,7.43,13.41-3.36,13.41-3.36-1.3,6.14,3.89,4a35.54,35.54,0,0,0,9.52-6.18s1.62,9,4.86,6.87c3.24,2.17,4.86-6.87,4.86-6.87a35.54,35.54,0,0,0,9.52,6.18c5.19,2.11,3.89-4,3.89-4s7.14,6,13.41,3.36-2.81-7.43-2.81-7.43,13.41,3.59,23.36,2.64,19-5.52,21.19-9.35-5-5-5-5,12.54-3.83,14.92-10.07S180.36,303.29,180.36,303.29Z" style="fill:#ebebeb"></path><path d="M700.85,72.92a18.55,18.55,0,0,0-2.15-4.46,6.15,6.15,0,0,0-4.05-2.63,3.75,3.75,0,0,0-4,2.25c-.24-3.53-.74-7.15-2.51-10.22s-5.07-5.48-8.6-5.26c-3.33.2-6.18,2.68-7.77,5.61s-2.13,6.31-2.65,9.61c-1.26-1.55-3.93-1.06-5.24.44s-1.66,3.6-1.94,5.58l39.37.41Z" style="fill:#ebebeb"></path><path d="M304.62,82a25.29,25.29,0,0,0-3-6.19A8.55,8.55,0,0,0,296,72.11a5.23,5.23,0,0,0-5.56,3.13c-.32-4.91-1-9.94-3.48-14.2s-7-7.61-11.94-7.31c-4.63.28-8.59,3.72-10.79,7.8s-3,8.76-3.68,13.34c-1.76-2.15-5.46-1.47-7.29.61s-2.3,5-2.69,7.76l54.68.57Z" style="fill:#ebebeb"></path><path d="M414.31,149.54a32.09,32.09,0,0,0-3.77-7.82,10.77,10.77,0,0,0-7.09-4.61c-2.88-.35-6.07,1.2-7,3.95-.41-6.19-1.29-12.54-4.39-17.91s-8.87-9.59-15.06-9.21c-5.84.35-10.83,4.69-13.61,9.83s-3.73,11-4.64,16.83c-2.21-2.72-6.88-1.87-9.19.77s-2.89,6.31-3.38,9.78l68.94.71Z" style="fill:#ebebeb"></path><path d="M624.08,155.35A26.27,26.27,0,0,0,621,149a8.82,8.82,0,0,0-5.79-3.76,5.38,5.38,0,0,0-5.72,3.22c-.33-5.05-1-10.23-3.57-14.61s-7.24-7.82-12.29-7.51c-4.76.29-8.84,3.82-11.1,8s-3,9-3.79,13.72c-1.8-2.21-5.61-1.52-7.49.63s-2.36,5.15-2.77,8l56.24.58Z" style="fill:#f5f5f5"></path><path d="M513.74,93a26.36,26.36,0,0,0-3.12-6.48,8.94,8.94,0,0,0-5.88-3.83,5.46,5.46,0,0,0-5.81,3.28c-.35-5.13-1.07-10.4-3.64-14.85s-7.36-8-12.49-7.64c-4.84.29-9,3.89-11.29,8.16s-3.09,9.16-3.84,13.94c-1.84-2.25-5.71-1.54-7.62.64s-2.4,5.24-2.81,8.11l57.17.6Z" style="fill:#f5f5f5"></path><path d="M442.62,49a20.58,20.58,0,0,0-2.39-5,6.86,6.86,0,0,0-4.5-2.93,4.18,4.18,0,0,0-4.45,2.51c-.26-3.93-.81-7.95-2.78-11.36s-5.63-6.08-9.55-5.84c-3.7.22-6.87,3-8.63,6.24s-2.37,7-2.94,10.66c-1.41-1.72-4.37-1.18-5.83.49s-1.84,4-2.15,6.2l43.73.46Z" style="fill:#f5f5f5"></path><path d="M216.65,57.48a20.58,20.58,0,0,0-2.39-4.95,6.82,6.82,0,0,0-4.5-2.93,4.17,4.17,0,0,0-4.44,2.5c-.27-3.92-.82-8-2.79-11.35s-5.63-6.08-9.55-5.84c-3.7.22-6.87,3-8.63,6.23s-2.36,7-2.94,10.67c-1.41-1.72-4.37-1.18-5.83.49s-1.84,4-2.15,6.2l43.73.46Z" style="fill:#f5f5f5"></path><path d="M93.24,72.92a18.18,18.18,0,0,0-2.15-4.46,6.13,6.13,0,0,0-4-2.63,3.76,3.76,0,0,0-4,2.25c-.23-3.53-.73-7.15-2.5-10.22s-5.07-5.48-8.6-5.26c-3.33.2-6.19,2.68-7.77,5.61S62,64.52,61.52,67.82c-1.26-1.55-3.93-1.06-5.25.44s-1.65,3.6-1.93,5.58l39.36.41Z" style="fill:#f5f5f5"></path><polyline points="539.69 325.98 522.76 325.98 522.76 385.33 539.69 385.33" style="fill:#ebebeb"></polyline><path d="M586,331s-.72-.48.86-2.55-.86-3.2-.86-3.2c-6.92,4-16.58,0-16.58,0s11.39-3.51,12.83-6.87c1.08-2.5-.82-2.78-1.85-2.76,1.16-.12,3.68-.53,4.45-1.87,1-1.76-3-3.83-3-3.83a3.09,3.09,0,0,0,0-2.72c-.65-1.76-15.49-4.31-15.49-4.31,4.32.48,5.91-3.84,5.91-3.84s7.35.16,9.08-2.71-1.16-3.68-6.06-6.07-15.71-11.35-15.71-11.35,6.78-.64,8.65-2.23.15-1.92.15-1.92c8.07.8,5.33-3.51,5.33-3.51a36.15,36.15,0,0,1-16.58-10.71s5-1.12,7.64-3.51-2.16-3-2.16-3,9.51-1.28,4-4.79c-4.17-2.67-10.83-6.27-12.9-7.34,2.27.83,7.42-.17,7.42-.17,6.05-2.71,0-6.71,0-6.71-7.06-4-17.44-14.06-17.44-14.06s5.19,2.72,7.78,1.92-2.88-4-2.88-4,2.74.8,3.89,0-3-4.48-3-4.48c-6.21-4-13.87-14.63-17.07-19.18-3.21,4.55-10.87,15.15-17.08,19.18,0,0-4.18,3.68-3,4.48s3.89,0,3.89,0-5.47,3.19-2.88,4,7.79-1.92,7.79-1.92S510.73,231,503.67,235c0,0-6.06,4,0,6.71,0,0,5.14,1,7.41.17-2.07,1.07-8.73,4.67-12.89,7.34-5.48,3.51,4,4.79,4,4.79s-4.75.64-2.16,3,7.64,3.51,7.64,3.51a36.08,36.08,0,0,1-16.57,10.71s-2.74,4.31,5.33,3.51c0,0-1.73.32.14,1.92s8.65,2.23,8.65,2.23-10.81,8.95-15.71,11.35-7.78,3.19-6.05,6.07,9.08,2.71,9.08,2.71,1.58,4.32,5.91,3.84c0,0-14.85,2.55-15.5,4.31a3.09,3.09,0,0,0,0,2.72s-4,2.07-3,3.83c.76,1.34,3.28,1.75,4.44,1.87-1,0-2.92.26-1.85,2.76,1.44,3.36,12.83,6.87,12.83,6.87s-9.66,4-16.58,0c0,0-2.45,1.12-.86,3.2s.86,2.55.86,2.55-3.6-2.71-2,1.44,9.94,6.71,9.94,6.71-4.75.8-3.31,3.35,7.49,5.6,14.12,6.24S513.18,347,513.18,347s-6.06,3.19-1.88,4.95,8.94-2.24,8.94-2.24-.86,4.09,2.6,2.69a23.89,23.89,0,0,0,6.34-4.12s1.08,6,3.24,4.58c2.16,1.44,3.24-4.58,3.24-4.58A23.69,23.69,0,0,0,542,352.4c3.46,1.4,2.59-2.69,2.59-2.69s4.76,4,8.94,2.24-1.87-4.95-1.87-4.95,8.93,2.39,15.56,1.76,12.69-3.68,14.13-6.24-3.32-3.35-3.32-3.35,8.36-2.56,10-6.71S586,331,586,331Z" style="fill:#e0e0e0"></path><polyline points="675.02 316.24 655.31 316.24 655.31 385.35 675.02 385.35" style="fill:#ebebeb"></polyline><path d="M728.89,322.11s-.84-.56,1-3-1-3.72-1-3.72c-8,4.65-19.3,0-19.3,0s13.26-4.09,14.94-8c1.25-2.92-1-3.25-2.16-3.22,1.36-.14,4.29-.62,5.18-2.18,1.18-2-3.44-4.46-3.44-4.46a3.58,3.58,0,0,0,0-3.16c-.75-2-18-5-18-5,5,.56,6.88-4.46,6.88-4.46s8.56.19,10.57-3.16-1.34-4.28-7-7.07-18.29-13.21-18.29-13.21,7.89-.74,10.07-2.6.17-2.23.17-2.23c9.4.93,6.21-4.09,6.21-4.09a42,42,0,0,1-19.3-12.47s5.87-1.3,8.89-4.09-2.51-3.53-2.51-3.53,11.07-1.49,4.7-5.58c-4.85-3.11-12.61-7.3-15-8.55,2.65,1,8.64-.19,8.64-.19,7.05-3.17,0-7.82,0-7.82-8.22-4.65-20.31-16.36-20.31-16.36s6,3.16,9.07,2.23-3.36-4.65-3.36-4.65,3.19.93,4.53,0-3.52-5.21-3.52-5.21c-7.24-4.7-16.16-17-19.89-22.34-3.73,5.3-12.65,17.64-19.88,22.34,0,0-4.87,4.28-3.52,5.21s4.53,0,4.53,0-6.38,3.72-3.36,4.65,9.06-2.23,9.06-2.23-12.08,11.71-20.3,16.36c0,0-7.05,4.65,0,7.82,0,0,6,1.16,8.63.19-2.41,1.25-10.16,5.44-15,8.55-6.38,4.09,4.7,5.58,4.7,5.58s-5.54.74-2.52,3.53,8.9,4.09,8.9,4.09a42.09,42.09,0,0,1-19.3,12.47s-3.19,5,6.21,4.09c0,0-2,.37.16,2.23s10.07,2.6,10.07,2.6-12.58,10.42-18.29,13.21-9.06,3.72-7,7.07,10.58,3.16,10.58,3.16,1.84,5,6.88,4.46c0,0-17.29,3-18,5a3.58,3.58,0,0,0,0,3.16s-4.62,2.41-3.44,4.46c.89,1.56,3.82,2,5.17,2.18-1.2,0-3.41.3-2.15,3.22,1.68,3.9,14.93,8,14.93,8s-11.24,4.65-19.3,0c0,0-2.85,1.31-1,3.72s1,3,1,3-4.19-3.16-2.35,1.67,11.58,7.82,11.58,7.82-5.53.92-3.86,3.9,8.73,6.51,16.45,7.26,18.12-2.05,18.12-2.05-7,3.72-2.18,5.76,10.41-2.6,10.41-2.6-1,4.76,3,3.13a27.65,27.65,0,0,0,7.38-4.8s1.26,7,3.77,5.33c2.52,1.68,3.78-5.33,3.78-5.33a27.45,27.45,0,0,0,7.38,4.8c4,1.63,3-3.13,3-3.13s5.54,4.65,10.4,2.6-2.18-5.76-2.18-5.76,10.41,2.79,18.13,2.05,14.76-4.28,16.44-7.26-3.86-3.9-3.86-3.9,9.74-3,11.58-7.82S728.89,322.11,728.89,322.11Z" style="fill:#ebebeb"></path><path d="M54.49,384.24c-.12.08-2.94-3.83-6.29-8.73s-6-8.94-5.87-9,2.94,3.83,6.29,8.73S54.61,384.16,54.49,384.24Z" style="fill:#263238"></path><path d="M59.64,384.24a3.28,3.28,0,0,1-.46-.88c-.26-.57-.61-1.42-1-2.47-.82-2.1-1.84-5.06-2.76-8.39s-1.54-6.39-1.91-8.62c-.19-1.11-.32-2-.38-2.65a3.47,3.47,0,0,1-.06-1,30.77,30.77,0,0,1,.8,3.56c.46,2.21,1.14,5.24,2,8.55s1.87,6.27,2.6,8.4A34,34,0,0,1,59.64,384.24Z" style="fill:#263238"></path><path d="M63,384.15a95.29,95.29,0,0,1,0-10,98.42,98.42,0,0,1,.51-10,97,97,0,0,1,0,10A96.87,96.87,0,0,1,63,384.15Z" style="fill:#263238"></path><path d="M404,423.52c-.12.08-2.94-3.83-6.29-8.73s-6-8.93-5.87-9,2.94,3.83,6.3,8.73S404.14,423.44,404,423.52Z" style="fill:#e0e0e0"></path><path d="M409.17,422.42a3.7,3.7,0,0,1-.45-.87c-.27-.58-.62-1.42-1-2.47-.82-2.11-1.84-5.06-2.76-8.39s-1.54-6.39-1.91-8.62c-.19-1.12-.32-2-.38-2.65a4.11,4.11,0,0,1-.06-1,30.68,30.68,0,0,1,.8,3.57c.46,2.2,1.15,5.24,2.05,8.55s1.88,6.27,2.61,8.4A31.68,31.68,0,0,1,409.17,422.42Z" style="fill:#e0e0e0"></path><path d="M412.56,423.43a95.22,95.22,0,0,1,0-10,98.42,98.42,0,0,1,.51-10,93.84,93.84,0,0,1,0,10A96.87,96.87,0,0,1,412.56,423.43Z" style="fill:#e0e0e0"></path></g><g id="freepik--Floor--inject-36"><path d="M727.4,384.24c0,.14-159.58.26-356.38.26s-356.42-.12-356.42-.26S174.14,384,371,384,727.4,384.09,727.4,384.24Z" style="fill:#263238"></path></g><g id="freepik--Trees--inject-36"><rect x="143.98" y="281.86" width="25.52" height="102.13" style="fill:#6f4439"></rect><path d="M60,281.57s1.26-.83-1.51-4.44S60,271.58,60,271.58c12.06,6.94,28.9,0,28.9,0S69,265.47,66.48,259.64c-1.87-4.35,1.44-4.83,3.23-4.8-2-.21-6.41-.92-7.75-3.25-1.76-3.05,5.15-6.66,5.15-6.66s-1.13-1.67,0-4.72,27-7.5,27-7.5c-7.54.84-10.31-6.66-10.31-6.66S71,226.33,68,221.33s2-6.38,10.56-10.55,27.39-19.71,27.39-19.71S94.13,190,90.86,187.19s-.25-3.33-.25-3.33c-14.07,1.38-9.3-6.11-9.3-6.11a62.92,62.92,0,0,0,28.9-18.6s-8.79-2-13.32-6.11,3.77-5.27,3.77-5.27-16.59-2.23-7-8.33c7.26-4.65,18.88-10.89,22.48-12.77-3.95,1.45-12.93-.28-12.93-.28-10.55-4.72,0-11.66,0-11.66,12.32-6.94,30.41-24.43,30.41-24.43S124.53,95,120,93.63s5-6.94,5-6.94-4.78,1.39-6.79,0,5.28-7.77,5.28-7.77c10.83-7,24.19-25.43,29.77-33.34,5.59,7.91,18.94,26.32,29.78,33.34,0,0,7.28,6.38,5.27,7.77s-6.78,0-6.78,0,9.55,5.55,5,6.94S173,90.3,173,90.3s18.09,17.49,30.4,24.43c0,0,10.56,6.94,0,11.66,0,0-9,1.73-12.93.28,3.61,1.88,15.22,8.12,22.48,12.77,9.55,6.1-7,8.33-7,8.33s8.29,1.11,3.76,5.27-13.31,6.11-13.31,6.11a62.92,62.92,0,0,0,28.9,18.6s4.77,7.49-9.3,6.11c0,0,3,.55-.25,3.33s-15.08,3.88-15.08,3.88,18.85,15.55,27.39,19.71,13.57,5.56,10.55,10.55-15.83,4.72-15.83,4.72-2.76,7.5-10.3,6.66c0,0,25.89,4.45,27,7.5s0,4.72,0,4.72,6.9,3.61,5.15,6.66c-1.34,2.33-5.73,3-7.76,3.25,1.8,0,5.11.45,3.23,4.8-2.51,5.83-22.36,11.94-22.36,11.94s16.83,6.94,28.9,0c0,0,4.27,1.94,1.5,5.55s-1.5,4.44-1.5,4.44,6.28-4.71,3.51,2.5-17.34,11.66-17.34,11.66,8.3,1.39,5.78,5.83-13.06,9.72-24.62,10.83-27.14-3.05-27.14-3.05,10.55,5.55,3.26,8.6-15.58-3.88-15.58-3.88,1.51,7.1-4.52,4.66A41.17,41.17,0,0,1,159,311.56s-1.88,10.47-5.65,8c-3.76,2.51-5.65-8-5.65-8a41,41,0,0,1-11.05,7.16c-6,2.44-4.53-4.66-4.53-4.66s-8.29,6.94-15.58,3.88,3.27-8.6,3.27-8.6-15.58,4.16-27.14,3.05S70.51,306,68,301.56s5.78-5.83,5.78-5.83-14.57-4.44-17.34-11.66S60,281.57,60,281.57Z" style="fill:#455a64"></path><path d="M116.58,115.57l.4-.18A1.32,1.32,0,0,0,116.58,115.57Z"></path><g style="opacity:0.1"><path d="M135.52,87.1l6-2.34s3.31,4.91,9.57,1.67a25.27,25.27,0,0,0,9.6-9.59s8.78,5.8,9.69,2.12-2.76-5.13-2.76-5.13a2.31,2.31,0,0,1,.23,2c-.39.66-1.26.64-2,.47a11.19,11.19,0,0,1-6-3.89c-1.75,4.17-5.34,7-9,9.19-1.62.93-3.47,1.79-5.22,1.22s-2.91-3.27-1.61-4.68a15.79,15.79,0,0,1-11.15,6.27c-.92.07-2.1-.17-2.28-1.16a2.27,2.27,0,0,1,.55-1.62,19.38,19.38,0,0,1,4.69-4.82A27,27,0,0,1,122.23,82l-4.25.57a1,1,0,0,0,.27,1.17c2,1.39,6.79,0,6.79,0s-9.55,5.55-5,6.94,13.57-3.33,13.57-3.33l-1.11,1.06Z"></path></g><g style="opacity:0.1"><path d="M189,124.43l-11.61-4.19s-1.3,7.07-8.41,6.67c0,0-6.16.53-6.63-6.67,0,0-5.92,5.76-17.89,4.06,0,0-2-.27-1.54-3.54,0,0-3.2,4.06-8.65,1.18s-.71-7.72-.71-7.72l.73-.39a3.83,3.83,0,0,0-.57,3.13c.61,1.44,2.47,1.34,3.85.9A30.12,30.12,0,0,0,148.06,112a11.42,11.42,0,0,0-2.18,3.33,4.19,4.19,0,0,0,.37,3.89,4.34,4.34,0,0,0,3.34,1.33,19.82,19.82,0,0,0,16.16-7.35c.06,1.86-.39,3.71-.32,5.57s.86,3.91,2.47,4.47c1.91.66,3.86-1.13,4.7-3.13s1-4.3,1.93-6.27a25,25,0,0,0,9.92,6.07,6.82,6.82,0,0,0,3.18.41,3.17,3.17,0,0,0,2.48-2,2.45,2.45,0,0,0-.8-2.69c4.65,2.11,15.42,5.87,17.54.62,1.13,2.27.89,5-4.14,7.26,0,0-9,1.73-12.93.28l2.81,1.49Z"></path></g><g style="opacity:0.1"><path d="M108.09,158.56a21.69,21.69,0,0,0,8.5-3.26,4.88,4.88,0,0,0,5.56,2.92c2.19-.41,4.08-1.89,5.88-3.33a8.84,8.84,0,0,0,6.79,3.91,8.73,8.73,0,0,0,7.06-3.29c7.33,5.41,16.05,9.39,24.8,8.22a6.27,6.27,0,0,0,4.39-2.08c1-1.38.88-3.91-.63-4.58,5.35,1.16,10.9,2.3,16.18.83s9.55-5.86,8.41-12.72a14,14,0,0,1-1.38,3.83,5.2,5.2,0,0,1-3,2,34.21,34.21,0,0,1-26.86-2.24c1.76,1.94.54,5.57-1.67,6.82s-4.86.87-7.31.4a30.51,30.51,0,0,1-7.86-2.33,12.72,12.72,0,0,1-6-5.84,16.37,16.37,0,0,1-3.6,4.87c-1.55,1.24-3.73,1.76-5.38.7s-2.21-4-.73-5.33a35.38,35.38,0,0,1-11.42,4.6c-1,.21-2.19.31-2.89-.51a2.61,2.61,0,0,1,.18-3.1,4.2,4.2,0,0,1,.88-.81,31.74,31.74,0,0,1-18,2.95l-.09,1.11a41.65,41.65,0,0,0,10.31,3.94S109.49,157.12,108.09,158.56Z"></path></g><g style="opacity:0.1"><path d="M205.51,196.68c-5.53-.33-10.89-2.22-16.1-4.3a25.91,25.91,0,0,1-30.29-.16A19.8,19.8,0,0,1,134,193.69c-4,1.83-8.29,3.28-12.5,2.35s-8.14-4.89-8-9.63a12.81,12.81,0,0,0,20.13,0,14.35,14.35,0,0,0,12.16,5.76,14.74,14.74,0,0,0,11.42-7.37,26.16,26.16,0,0,0,20.44,6,10.05,10.05,0,0,0,5.7-2.4,5.75,5.75,0,0,0,1.48-6.15,26.81,26.81,0,0,0,32.22.15l.08.18a4.74,4.74,0,0,1-1.43,1.72c-3.26,2.77-15.08,3.88-15.08,3.88s4.71,3.88,10.48,8.28A25,25,0,0,1,205.51,196.68Z"></path></g><g style="opacity:0.1"><path d="M75.36,222.32a42.6,42.6,0,0,0,8.46.79s2.77,7.5,10.31,6.67c0,0-3.75.64-8.46,1.6a18.61,18.61,0,0,0,17.41-2.18,25.18,25.18,0,0,0,34.2,1.15,25.5,25.5,0,0,0,33.32.35c5.14,4.65,11.9,7.37,18.5,6.43A18.63,18.63,0,0,0,204,224.27a27.23,27.23,0,0,1-34.12-2.57,5.77,5.77,0,0,1-3.64,4.76,13.48,13.48,0,0,1-5.89.61c-8.12-.42-16.7-1.68-23-7.35a18.8,18.8,0,0,1-16.61,7.48,19.66,19.66,0,0,1-15-10.8,38.19,38.19,0,0,1-36.48-.77Z"></path></g><g style="opacity:0.1"><path d="M126.1,259.06a7.47,7.47,0,0,0,3.37,6.41,12.65,12.65,0,0,0,6.78,1.84,29.18,29.18,0,0,0,19.92-7.22,21.36,21.36,0,0,0,34-.08,60.76,60.76,0,0,0,47.71-6.77l2.17,1.19a5.77,5.77,0,0,1-.56,2.27c-2.51,5.83-22.36,11.94-22.36,11.94a42.22,42.22,0,0,0,5.14,1.63c-3.42,1-6.39,1.89-8.27,2.49-7,2.24-15.2.95-20.46-4.63a24.09,24.09,0,0,1-37.75-.38c-4.57,5.17-10.6,9.21-17.14,9.45s-13.44-4.12-15.21-11.08c-8.09,2.94-17.76-.71-22.53-8.51A26,26,0,0,0,126.1,259.06Z"></path></g><rect x="593.68" y="302.65" width="20.46" height="81.39" transform="translate(1207.81 686.69) rotate(180)" style="fill:#6f4439"></rect><path d="M681.5,302.42s-1-.67,1.21-3.56-1.21-4.46-1.21-4.46c-9.67,5.57-23.17,0-23.17,0s15.92-4.89,17.93-9.57c1.5-3.49-1.15-3.87-2.59-3.84,1.63-.17,5.14-.75,6.22-2.61,1.41-2.45-4.13-5.34-4.13-5.34s.9-1.34,0-3.78-21.66-6-21.66-6c6,.67,8.26-5.34,8.26-5.34s10.27.22,12.69-3.79-1.61-5.12-8.46-8.45-22-15.8-22-15.8,9.47-.89,12.09-3.12.2-2.67.2-2.67c11.28,1.11,7.45-4.9,7.45-4.9a50.43,50.43,0,0,1-23.16-14.91s7-1.56,10.67-4.89-3-4.23-3-4.23,13.3-1.78,5.64-6.68c-5.82-3.72-15.12-8.73-18-10.23,3.17,1.16,10.37-.23,10.37-.23,8.46-3.78,0-9.34,0-9.34-9.87-5.57-24.38-19.59-24.38-19.59s7.25,3.78,10.88,2.67-4-5.56-4-5.56,3.83,1.11,5.44,0-4.23-6.23-4.23-6.23c-8.68-5.63-19.39-20.39-23.87-26.73-4.48,6.34-15.18,21.1-23.87,26.73,0,0-5.84,5.12-4.23,6.23s5.44,0,5.44,0-7.65,4.45-4,5.56,10.88-2.67,10.88-2.67-14.5,14-24.37,19.59c0,0-8.46,5.56,0,9.34,0,0,7.19,1.39,10.36.23-2.89,1.5-12.2,6.51-18,10.23-7.65,4.9,5.64,6.68,5.64,6.68s-6.65.89-3,4.23,10.68,4.89,10.68,4.89A50.43,50.43,0,0,1,549,219.18s-3.83,6,7.45,4.9c0,0-2.41.44.21,2.67s12.08,3.12,12.08,3.12-15.11,12.46-22,15.8-10.87,4.45-8.46,8.45S551,257.91,551,257.91s2.22,6,8.26,5.34c0,0-20.75,3.56-21.65,6s0,3.78,0,3.78-5.54,2.89-4.13,5.34c1.07,1.86,4.59,2.44,6.21,2.61-1.44,0-4.09.35-2.59,3.84,2,4.68,17.93,9.57,17.93,9.57s-13.49,5.57-23.16,0c0,0-3.43,1.56-1.21,4.46s1.21,3.56,1.21,3.56-5-3.79-2.82,2,13.9,9.35,13.9,9.35-6.65,1.11-4.64,4.67,10.48,7.79,19.75,8.68,21.75-2.45,21.75-2.45-8.46,4.45-2.62,6.9,12.49-3.12,12.49-3.12-1.21,5.7,3.63,3.74a33.09,33.09,0,0,0,8.86-5.74s1.51,8.4,4.53,6.39c3,2,4.53-6.39,4.53-6.39a33.09,33.09,0,0,0,8.86,5.74c4.84,2,3.63-3.74,3.63-3.74s6.65,5.57,12.49,3.12-2.62-6.9-2.62-6.9S646,328,655.31,327.12,673,322,675.05,318.44s-4.63-4.67-4.63-4.67,11.68-3.56,13.9-9.35S681.5,302.42,681.5,302.42Z" style="fill:#455a64"></path><path d="M636.1,169.34l-.32-.14A1.15,1.15,0,0,1,636.1,169.34Z"></path><g style="opacity:0.1"><path d="M620.92,146.52l-4.8-1.88s-2.65,3.94-7.67,1.34a20.21,20.21,0,0,1-7.69-7.69s-7,4.65-7.77,1.7,2.21-4.12,2.21-4.12a1.85,1.85,0,0,0-.18,1.65c.31.53,1,.51,1.56.37a9,9,0,0,0,4.8-3.12c1.41,3.35,4.28,5.65,7.24,7.37,1.3.75,2.78,1.43,4.18,1s2.34-2.63,1.29-3.76a12.68,12.68,0,0,0,8.95,5c.73.06,1.68-.13,1.82-.93a1.81,1.81,0,0,0-.44-1.3,15.69,15.69,0,0,0-3.76-3.86,21.56,21.56,0,0,0,10.91,4.13l3.41.46a.77.77,0,0,1-.22.94c-1.61,1.11-5.44,0-5.44,0s7.66,4.45,4,5.57-10.88-2.67-10.88-2.67l.9.85Z"></path></g><g style="opacity:0.1"><path d="M578.08,176.44l9.31-3.36s1,5.67,6.74,5.35c0,0,4.94.42,5.32-5.35,0,0,4.75,4.62,14.34,3.25,0,0,1.61-.21,1.23-2.83,0,0,2.57,3.25,6.94.95s.57-6.19.57-6.19l-.58-.32a3.11,3.11,0,0,1,.45,2.52c-.49,1.15-2,1.06-3.09.72a24.14,24.14,0,0,1-8.44-4.74,9.27,9.27,0,0,1,1.74,2.66,3.35,3.35,0,0,1-.3,3.13,3.48,3.48,0,0,1-2.67,1.06,15.89,15.89,0,0,1-12.95-5.89c-.05,1.49.31,3,.25,4.46s-.69,3.14-2,3.59c-1.53.53-3.09-.91-3.77-2.52s-.82-3.44-1.54-5a20.13,20.13,0,0,1-8,4.87,5.45,5.45,0,0,1-2.55.33,2.52,2.52,0,0,1-2-1.62,1.94,1.94,0,0,1,.64-2.15c-3.73,1.69-12.36,4.7-14.06.5-.91,1.81-.71,4,3.31,5.82,0,0,7.2,1.39,10.37.22l-2.25,1.19Z"></path></g><g style="opacity:0.1"><path d="M642.91,203.8a17.52,17.52,0,0,1-6.82-2.61,3.91,3.91,0,0,1-4.45,2.34,11.38,11.38,0,0,1-4.71-2.67,7.16,7.16,0,0,1-5.45,3.14,7,7,0,0,1-5.66-2.64c-5.88,4.33-12.87,7.53-19.88,6.59a5.07,5.07,0,0,1-3.52-1.67c-.83-1.11-.71-3.14.5-3.67-4.28.92-8.74,1.84-13,.66s-7.65-4.7-6.73-10.19a10.92,10.92,0,0,0,1.1,3.07,4.19,4.19,0,0,0,2.4,1.58,27.49,27.49,0,0,0,21.54-1.8c-1.41,1.55-.44,4.46,1.33,5.47s3.9.69,5.86.31a24.48,24.48,0,0,0,6.31-1.86,10.17,10.17,0,0,0,4.82-4.68,12.92,12.92,0,0,0,2.89,3.9,3.76,3.76,0,0,0,4.31.56c1.33-.84,1.77-3.19.59-4.27a28.31,28.31,0,0,0,9.15,3.69,2.31,2.31,0,0,0,2.32-.41,2.1,2.1,0,0,0-.15-2.48,3,3,0,0,0-.71-.66,25.49,25.49,0,0,0,14.42,2.37l.07.89a33.45,33.45,0,0,1-8.26,3.16A24.78,24.78,0,0,0,642.91,203.8Z"></path></g><g style="opacity:0.1"><path d="M564.81,234.36c4.43-.27,8.73-1.78,12.91-3.44a20.76,20.76,0,0,0,24.28-.14A15.86,15.86,0,0,0,622.17,232c3.18,1.46,6.65,2.62,10,1.88s6.52-3.92,6.42-7.73a10.27,10.27,0,0,1-16.14,0,11.5,11.5,0,0,1-9.75,4.62,11.81,11.81,0,0,1-9.15-5.91,20.92,20.92,0,0,1-16.39,4.79,8.1,8.1,0,0,1-4.57-1.92,4.59,4.59,0,0,1-1.18-4.93,21.48,21.48,0,0,1-25.83.12l-.06.15a3.58,3.58,0,0,0,1.14,1.37c2.62,2.23,12.09,3.12,12.09,3.12s-3.77,3.11-8.4,6.64A20.54,20.54,0,0,0,564.81,234.36Z"></path></g><g style="opacity:0.1"><path d="M669.15,254.91a34.12,34.12,0,0,1-6.79.64s-2.22,6-8.26,5.34c0,0,3,.52,6.78,1.29a14.91,14.91,0,0,1-14-1.75,20.19,20.19,0,0,1-27.42.92,20.45,20.45,0,0,1-26.71.28c-4.12,3.73-9.55,5.91-14.83,5.15a14.94,14.94,0,0,1-12-10.3,21.84,21.84,0,0,0,27.36-2.06,4.61,4.61,0,0,0,2.91,3.81,10.67,10.67,0,0,0,4.73.49c6.5-.33,13.38-1.35,18.43-5.89a15.08,15.08,0,0,0,13.32,6,15.76,15.76,0,0,0,12-8.66,30.6,30.6,0,0,0,29.24-.62Z"></path></g><g style="opacity:0.1"><path d="M628.47,284.37a6,6,0,0,1-2.7,5.14,10.2,10.2,0,0,1-5.43,1.47,23.4,23.4,0,0,1-16-5.79,17.1,17.1,0,0,1-27.27-.06,48.72,48.72,0,0,1-38.25-5.43l-1.74,1a4.83,4.83,0,0,0,.44,1.82c2,4.67,17.93,9.57,17.93,9.57a34.31,34.31,0,0,1-4.12,1.3c2.75.83,5.13,1.52,6.63,2,5.62,1.79,12.19.76,16.4-3.71a19.31,19.31,0,0,0,30.26-.31c3.67,4.15,8.5,7.39,13.75,7.58A12.25,12.25,0,0,0,630.58,290c6.49,2.36,14.24-.57,18.06-6.83A20.84,20.84,0,0,1,628.47,284.37Z"></path></g><line x1="488.91" y1="112.28" x2="515.32" y2="155.24" style="fill:none"></line></g><g id="freepik--speech-bubble-2--inject-36"><path d="M490.68,154.5l5.88-2.74a20.87,20.87,0,1,0-6.37-3.93h0Z" style="fill:#fff"></path><path d="M490.68,154.5s0-.16,0-.45,0-.74-.07-1.29c-.07-1.14-.18-2.8-.31-4.94l-.14.1h0a.09.09,0,0,0,.13,0,.11.11,0,0,0,0-.12,20.91,20.91,0,0,1-5.62-8.46,21,21,0,0,1,0-13.89,20.76,20.76,0,0,1,11.52-12.12,20.7,20.7,0,0,1,18.65,1.44l1.07.68,1,.77a22.76,22.76,0,0,1,1.88,1.66,20.71,20.71,0,0,1-22.21,33.83h-.08l-4.32,2.07-1.13.55-.39.2.37-.15,1.12-.5,4.43-2h-.07a20.69,20.69,0,0,0,10.18,1.32,21.08,21.08,0,0,0,18.44-22.45,21.34,21.34,0,0,0-6-13.2,24,24,0,0,0-1.92-1.7l-1-.78-1.1-.7a21,21,0,0,0-30.76,10.94,20.9,20.9,0,0,0,5.81,22.63l.11-.16h0a.11.11,0,0,0-.13,0,.13.13,0,0,0,0,.06c.18,2.16.33,3.84.43,5,.05.54.09,1,.11,1.26S490.68,154.51,490.68,154.5Z" style="fill:#263238"></path><path d="M513.29,131.24a5.63,5.63,0,0,0-1.31-3.16,5.47,5.47,0,0,0-2.76-1.89,4.52,4.52,0,0,0-3.48.51,4.42,4.42,0,0,0-1.48,1.53,4.61,4.61,0,0,0-1.25-1.49,4.47,4.47,0,0,0-3.41-.84,5.52,5.52,0,0,0-2.94,1.62,5.61,5.61,0,0,0-1.6,3,6.94,6.94,0,0,0,.65,4.3,9.92,9.92,0,0,0,3.22,3.32c2.15,1.43,5,3.23,5,3.23s2.54-1.71,4.81-2.94a9.79,9.79,0,0,0,3.52-3A6.88,6.88,0,0,0,513.29,131.24Z" style="fill:#FF725E"></path></g><g id="freepik--speech-bubble-1--inject-36"><path d="M302.21,185.09l5.87-2.73a20.85,20.85,0,1,0-6.35-3.92h0Z" style="fill:#fff"></path><path d="M302.21,185.09s0-.16,0-.45-.05-.74-.08-1.29l-.3-4.92-.14.09h0a.1.1,0,0,0,.13,0,.11.11,0,0,0,0-.12,20.79,20.79,0,0,1-5.61-8.44,20.92,20.92,0,0,1,.05-13.84,20.55,20.55,0,0,1,30.07-10.64l1.07.67,1,.77a24.65,24.65,0,0,1,1.88,1.65,21.56,21.56,0,0,1,3,3.9,20.85,20.85,0,0,1,2.88,9,20.68,20.68,0,0,1-28,20.86H308l-4.31,2.06-1.12.55-.4.2.37-.15,1.12-.5,4.42-2h-.07a20.66,20.66,0,0,0,10.15,1.32,21,21,0,0,0,18.37-22.39,21.29,21.29,0,0,0-6-13.15,22.2,22.2,0,0,0-1.92-1.7l-1-.78-1.1-.69A21,21,0,0,0,295.88,156a21.21,21.21,0,0,0,0,14.07,20.82,20.82,0,0,0,5.76,8.49l.1-.16h0a.11.11,0,0,0-.13,0s0,0,0,.06c.19,2.16.33,3.82.43,5,.05.53.09.95.12,1.25S302.21,185.1,302.21,185.09Z" style="fill:#263238"></path><path d="M312.45,152.14l.82,12.88a2.08,2.08,0,0,0,2,2h0a2.09,2.09,0,0,0,2.2-1.86l1.43-13a1.64,1.64,0,0,0-1.65-1.82l-3.15.05A1.64,1.64,0,0,0,312.45,152.14Z" style="fill:#FF725E"></path><path d="M318.64,174.22a3.14,3.14,0,1,1-2-4A3.14,3.14,0,0,1,318.64,174.22Z" style="fill:#FF725E"></path></g><g id="freepik--Plants--inject-36"><path d="M688,379l-4.3,3,2.44-4.27c-1.11-.77-2.24-1.55-3.4-2.31l-4.27,4.84,2.55-6c-1.14-.74-2.31-1.48-3.5-2.2l-3.81,7.49,2.14-8.5-1.76-1-4.46,9.72,2.71-10.7q-2.62-1.46-5.42-2.82c-2.49,3.63-7.25,10.47-7.25,10.47l3.66-12.15a115.08,115.08,0,0,0-11.08-4.32L646.75,375l2.37-15.71c-3.16-.95-6.45-1.8-9.89-2.52l-5.47,17.43L635.37,356l-2.33-.38-2.61,18.57L628.81,355c-4.2-.52-8.6-.87-13.23-1l-2.89,18.73-1.24-18.79-3.17,0-.15,18.71-3.06-18.62-1.48.05c-2.61.12-5.12.29-7.59.47l-3.41,23.05,0-22.77-2.95.27L588,377.47l-2.39-21.93c-4.49.52-8.72,1.14-12.72,1.84l-2.67,20.75-1.91-19.9c-.78.15-1.52.31-2.27.47l.85,19.27L562,359.6q-5.24,1.23-9.83,2.62l1.7,16-4.84-15c-4.11,1.34-7.82,2.74-11.17,4.17l3.05,12s-4.2-6.64-6.57-10.44q-3,1.43-5.63,2.83L530.86,382l-3.77-9.29c-.65.37-1.29.74-1.89,1.1l1.59,7.81-3.11-6.87c-1.29.81-2.47,1.6-3.54,2.36l1.87,5-3.21-4c-1.37,1-2.52,2-3.47,2.8l1.38,2.69-2.38-1.8c-1,.91-1.68,1.64-2.13,2.14l.16.25h92.26l91,.07C693.17,382.38,690.63,380.92,688,379Z" style="fill:#455a64"></path><path d="M268.32,378.33l-4.43,3.51,2.51-5.07q-1.71-1.38-3.5-2.75l-4.4,5.76,2.63-7.1c-1.18-.88-2.38-1.76-3.6-2.62L253.61,379l2.19-10.11L254,367.65l-4.59,11.56,2.79-12.73q-2.7-1.71-5.58-3.35c-2.56,4.32-7.46,12.45-7.46,12.45l3.77-14.45A112.5,112.5,0,0,0,231.51,356l-5.64,17.52,2.44-18.69c-3.25-1.13-6.64-2.14-10.18-3l-5.63,20.73,1.65-21.62c-.79-.16-1.59-.31-2.39-.45l-2.69,22.08-1.66-22.79a125.7,125.7,0,0,0-13.63-1.19l-3,22.27-1.28-22.34c-1.07,0-2.16,0-3.26,0l-.16,22.26L183,348.65l-1.52.06c-2.68.14-5.27.34-7.82.56l-3.51,27.41,0-27.08-3,.32-1.63,26.58L163,350.42q-6.91.93-13.09,2.18l-2.75,24.68-2-23.67-2.33.57.87,22.92-5-21.85c-3.58,1-7,2-10.11,3.11l1.75,19-5-17.84a125.07,125.07,0,0,0-11.5,5l3.13,14.28s-4.32-7.89-6.76-12.41c-2.09,1.13-4,2.26-5.8,3.37l2.18,12.15-3.88-11.05q-1,.66-2,1.32l1.64,9.28-3.21-8.17q-2,1.46-3.64,2.81L97.45,382l-3.31-4.74c-1.41,1.22-2.59,2.34-3.58,3.34l1.24,3.91,90.79.62,93.33-.61C273.41,382.27,271.06,380.59,268.32,378.33Z" style="fill:#455a64"></path><path d="M607.59,406a7.34,7.34,0,0,1,4.32,3.81,12.88,12.88,0,0,1,1.24,5.74c.05,3.83-1.61,7.9-3.53,11.21-3.52-2.37-4.87-7.11-5.4-9.56-.83-3.87,0-11.36,3.37-11.2" style="fill:#FF725E"></path><path d="M614.1,432.52a6.27,6.27,0,0,1,1.26-6.18,8.36,8.36,0,0,1,5.86-2.68,3.53,3.53,0,0,1,2.83.86,2.7,2.7,0,0,1,.39,2.7,5.57,5.57,0,0,1-1.75,2.22c-2.54,2.08-5.37,3.62-8.59,3.08" style="fill:#FF725E"></path><path d="M611.49,444.59a4.3,4.3,0,0,1,0-.79c0-.56.07-1.28.11-2.14a22.13,22.13,0,0,1,1.32-7,13.45,13.45,0,0,1,4.15-5.71,9.18,9.18,0,0,1,1.85-1.11,4.29,4.29,0,0,1,.54-.21c.13-.05.2-.07.2-.06a12.59,12.59,0,0,0-6.49,7.19,23.84,23.84,0,0,0-1.37,6.88c-.08.9-.15,1.63-.21,2.13A4.41,4.41,0,0,1,611.49,444.59Z" style="fill:#263238"></path><path d="M607.46,411.78a2.25,2.25,0,0,1,.08.33q.06.38.18,1c.15.84.35,2.06.59,3.56.48,3,1.09,7.17,1.65,11.79s1,8.8,1.24,11.83c.13,1.52.23,2.75.28,3.6,0,.4,0,.73.06,1a.17.17,0,1,1-.06,0c0-.25-.06-.57-.11-1-.09-.88-.21-2.1-.36-3.59-.31-3-.76-7.21-1.32-11.82s-1.14-8.78-1.57-11.79c-.21-1.48-.38-2.69-.51-3.57-.05-.4-.09-.72-.13-1A1.74,1.74,0,0,1,607.46,411.78Z" style="fill:#263238"></path><path d="M608.9,435.51a14.7,14.7,0,0,0-9.32-9.67c-1.12-.37-2.55-.53-3.32.37s-.4,2.29.17,3.34a12.55,12.55,0,0,0,12.43,6.28" style="fill:#FF725E"></path><path d="M600.55,429.35a3.71,3.71,0,0,1,.71.21,5,5,0,0,1,.81.31,11.45,11.45,0,0,1,1,.48,11.83,11.83,0,0,1,1.21.69,12.82,12.82,0,0,1,1.32.93,15,15,0,0,1,4.51,5.74,14.15,14.15,0,0,1,.56,1.51,12,12,0,0,1,.37,1.35c.11.41.14.8.2,1.13a8.24,8.24,0,0,1,.08.87,3.21,3.21,0,0,1,0,.74c-.06,0-.09-1.05-.48-2.7-.11-.41-.22-.86-.39-1.32s-.37-1-.59-1.47a16.29,16.29,0,0,0-1.88-3.09,17.15,17.15,0,0,0-2.55-2.56,13.66,13.66,0,0,0-1.28-.93,13.41,13.41,0,0,0-1.18-.72C601.54,429.72,600.53,429.41,600.55,429.35Z" style="fill:#263238"></path><path d="M403.25,344.8a7.39,7.39,0,0,0-4,4.16,12.85,12.85,0,0,0-.77,5.84c.26,3.82,2.25,7.76,4.45,10.9,3.32-2.65,4.27-7.5,4.6-10,.52-3.93-.92-11.35-4.27-10.91" style="fill:#FF725E"></path><path d="M398.91,371.81a6.3,6.3,0,0,0-1.76-6.07,8.39,8.39,0,0,0-6.08-2.19,3.51,3.51,0,0,0-2.75,1.09,2.72,2.72,0,0,0-.17,2.73,5.55,5.55,0,0,0,1.93,2.07c2.7,1.87,5.65,3.17,8.83,2.37" style="fill:#FF725E"></path><path d="M402.51,383.66a5.44,5.44,0,0,0-.08-.79c-.08-.55-.18-1.27-.3-2.13a22,22,0,0,0-1.88-6.84,13.47,13.47,0,0,0-4.61-5.36,8.94,8.94,0,0,0-1.94-1,3.18,3.18,0,0,0-.56-.17c-.13,0-.2-.05-.2,0a14.35,14.35,0,0,1,2.59,1.33A14,14,0,0,1,400,374a23.94,23.94,0,0,1,1.94,6.75c.15.9.28,1.62.38,2.12A3.86,3.86,0,0,0,402.51,383.66Z" style="fill:#263238"></path><path d="M403.85,350.55a1.38,1.38,0,0,0-.05.34c0,.25-.06.58-.11,1-.08.85-.18,2.08-.3,3.6-.23,3-.5,7.25-.68,11.91s-.26,8.87-.27,11.92c0,1.53,0,2.76,0,3.62,0,.4,0,.72,0,1a1.55,1.55,0,0,0,0,.34,2.3,2.3,0,0,0,0-.34c0-.26,0-.58,0-1,0-.89.05-2.12.08-3.62.06-3.05.16-7.26.34-11.91s.42-8.86.61-11.91c.09-1.49.16-2.72.21-3.6l.05-1A1.55,1.55,0,0,0,403.85,350.55Z" style="fill:#263238"></path><path d="M404.35,374.37A14.75,14.75,0,0,1,412.86,364c1.1-.46,2.51-.74,3.35.1s.59,2.26.11,3.35a12.57,12.57,0,0,1-11.9,7.29" style="fill:#FF725E"></path><path d="M412.18,367.54a3.32,3.32,0,0,0-.69.26,7.73,7.73,0,0,0-.78.38c-.3.17-.66.33-1,.57s-.76.48-1.16.79a13.71,13.71,0,0,0-1.23,1,15.17,15.17,0,0,0-4,6.11,13.22,13.22,0,0,0-.45,1.55,11.26,11.26,0,0,0-.25,1.38,10.53,10.53,0,0,0-.11,1.15,6.45,6.45,0,0,0,0,.87,3.33,3.33,0,0,0,.05.74c.06,0,0-1.06.26-2.73.08-.42.15-.88.28-1.36a15.17,15.17,0,0,1,.47-1.51,16.13,16.13,0,0,1,1.63-3.24,16.7,16.7,0,0,1,2.33-2.77,15.59,15.59,0,0,1,1.2-1c.39-.32.78-.57,1.13-.81C411.23,368,412.21,367.59,412.18,367.54Z" style="fill:#263238"></path></g><g id="freepik--Mushroom--inject-36"><path d="M114.57,430.48a6.06,6.06,0,0,1,2.49-3.66,28.77,28.77,0,0,0,3.83-2.83c.72-.77,1.52-2.72,3.74-2.86s3,1.91,4.18,3,3.18,2.1,4.54,3.7,1.42,2.61,1.42,2.61Z" style="fill:#FF725E"></path><ellipse cx="124.59" cy="430.48" rx="10.1" ry="1.19" style="fill:#FF725E"></ellipse><ellipse cx="124.59" cy="430.48" rx="10.1" ry="1.19" style="opacity:0.30000000000000004"></ellipse><path d="M125.76,429.09h-2a44.81,44.81,0,0,1-.69,5.83,17.76,17.76,0,0,1-1.77,4.39h3.93a20.38,20.38,0,0,0,.84-6.27A15.61,15.61,0,0,0,125.76,429.09Z" style="fill:#FF725E"></path><path d="M117,429.76s-.11.32-.18.72-.08.74-.1.74a.88.88,0,0,1,0-.22,4.28,4.28,0,0,1,.06-.53,3.29,3.29,0,0,1,.14-.51A.61.61,0,0,1,117,429.76Z" style="fill:#263238"></path><path d="M119.44,429.41s0,.45-.1,1a10.21,10.21,0,0,1-.16,1s0-.46.11-1S119.43,429.41,119.44,429.41Z" style="fill:#263238"></path><path d="M122,429.43a2.2,2.2,0,0,1,0,.31c0,.2-.07.46-.11.74s-.08.54-.1.75a1.39,1.39,0,0,1-.06.3s0-.12,0-.31,0-.45.09-.75.09-.55.12-.74S122,429.43,122,429.43Z" style="fill:#263238"></path><path d="M127.66,431.54a9.91,9.91,0,0,1-.19-1.1c-.1-.61-.16-1.1-.15-1.1a10,10,0,0,1,.19,1.09C127.61,431,127.67,431.53,127.66,431.54Z" style="fill:#263238"></path><path d="M130.37,431.48s-.13-.46-.27-1a9.08,9.08,0,0,1-.21-1s.13.46.26,1S130.38,431.48,130.37,431.48Z" style="fill:#263238"></path><path d="M132.73,431.32s0-.09,0-.24-.07-.36-.12-.59-.11-.44-.15-.58-.07-.24-.07-.24.05.08.1.23.11.35.17.58.08.44.1.59A.7.7,0,0,1,132.73,431.32Z" style="fill:#263238"></path><path d="M134.69,430.44a.4.4,0,0,0-.13-.15,1.73,1.73,0,0,0-.54-.24,12.14,12.14,0,0,0-2.13-.4,62,62,0,0,0-7.17-.33c-2.81,0-5.35.14-7.18.33a16.86,16.86,0,0,0-2.15.33,3.72,3.72,0,0,0-.56.18l-.13.08,0,0,0,0,.14-.07a3.36,3.36,0,0,1,.56-.2,16,16,0,0,1,2.15-.35c1.83-.2,4.37-.32,7.18-.34a61.73,61.73,0,0,1,7.17.34A13,13,0,0,1,134,430a1.88,1.88,0,0,1,.53.25l.11.12Z" style="fill:#263238"></path><path d="M122,413.35s1.23-2.75-3.73-8.6-5.75-9.53-9.41-9.53c-4.21,0-13.36,15.24-13.08,18.61.19,2.34,10.66,1.8,13.73,1.74C112.2,415.52,121.25,415.34,122,413.35Z" style="fill:#FF725E"></path><path d="M95.81,413.94c0,1.38,5.93,2.34,13.16,2.14s13.07-1.46,13-2.84-5.93-2.33-13.17-2.14S95.77,412.56,95.81,413.94Z" style="fill:#FF725E"></path><path d="M95.81,413.94c0,1.38,5.93,2.34,13.16,2.14s13.07-1.46,13-2.84-5.93-2.33-13.17-2.14S95.77,412.56,95.81,413.94Z" style="opacity:0.30000000000000004"></path><path d="M110.66,411.09c-1.2,0-2.56,0-4,.1,0,0,.75,9.88.36,13.95s-2.82,14-2.82,14h5.71s-.47-1.41.3-6.85S110.65,411.21,110.66,411.09Z" style="fill:#FF725E"></path><path d="M121.9,412.93l-.06,0a1.16,1.16,0,0,0-.15-.13,3.92,3.92,0,0,0-.68-.4,10.87,10.87,0,0,0-2.76-.79,33.56,33.56,0,0,0-4.25-.43c-1.61-.07-3.38-.08-5.24,0s-3.63.19-5.23.35c-.8.09-1.56.18-2.27.28a18.89,18.89,0,0,0-2,.34,9.7,9.7,0,0,0-1.57.5,8.2,8.2,0,0,0-1.09.58,5.07,5.07,0,0,0-.61.49l-.15.14,0,0,0,0,.15-.14a5,5,0,0,1,.61-.5,6.29,6.29,0,0,1,1.09-.59,8.78,8.78,0,0,1,1.57-.51,18.66,18.66,0,0,1,2-.36c.71-.09,1.47-.19,2.27-.27,1.61-.18,3.37-.31,5.24-.37s3.63,0,5.24,0a33.43,33.43,0,0,1,4.26.45,10.58,10.58,0,0,1,2.77.81,3.53,3.53,0,0,1,.66.41,1.31,1.31,0,0,1,.16.14Z" style="fill:#263238"></path><path d="M97.91,412.53s0,.15-.1.37a8.09,8.09,0,0,0-.19.9,6.65,6.65,0,0,0-.07.91,3.39,3.39,0,0,1,0,.38.5.5,0,0,1,0-.11c0-.06,0-.16,0-.27a5.4,5.4,0,0,1,.06-.92,6,6,0,0,1,.21-.9l.09-.26C97.89,412.57,97.9,412.53,97.91,412.53Z" style="fill:#263238"></path><path d="M102.43,415.79s0-.06,0-.17,0-.26,0-.46c0-.38,0-.92,0-1.51s0-1.13.08-1.51c0-.2,0-.35,0-.46s0-.17,0-.17,0,.06,0,.17l0,.46c0,.39,0,.92-.06,1.51s0,1.12,0,1.51v.46C102.44,415.73,102.44,415.79,102.43,415.79Z" style="fill:#263238"></path><path d="M105.79,416.11s-.12-1.08-.22-2.43-.18-2.43-.16-2.43.12,1.09.22,2.43S105.81,416.11,105.79,416.11Z" style="fill:#263238"></path><path d="M113.2,415.89l0-.19-.08-.53c-.06-.44-.15-1.05-.26-1.73s-.23-1.28-.32-1.72l-.1-.52c0-.12,0-.19,0-.19s0,.06.05.19.08.29.12.51c.1.44.23,1.05.34,1.72s.2,1.29.25,1.74c0,.22,0,.4,0,.53A.69.69,0,0,1,113.2,415.89Z" style="fill:#263238"></path><path d="M116.81,415.27a1.37,1.37,0,0,1,0-.17l-.09-.45a15,15,0,0,0-.37-1.47,14.72,14.72,0,0,0-.51-1.43l-.18-.42-.06-.16s0,.05.09.15.11.24.19.42a11.23,11.23,0,0,1,.53,1.42,12.36,12.36,0,0,1,.36,1.48c0,.19.06.35.07.46A.56.56,0,0,1,116.81,415.27Z" style="fill:#263238"></path><path d="M119.89,414.38s-.07-.17-.17-.43-.25-.63-.43-1-.38-.74-.52-1a2.7,2.7,0,0,1-.22-.4l.07.1a2.19,2.19,0,0,1,.19.28,11.06,11.06,0,0,1,.54,1,10.35,10.35,0,0,1,.41,1c0,.14.08.25.1.32Z" style="fill:#263238"></path><path d="M64.38,422.5a8,8,0,0,1,3.28-4.83c2.83-2,4.09-2.72,5-3.73s2-3.58,4.92-3.76,4,2.52,5.52,4,4.18,2.76,6,4.87S91,422.47,91,422.47Z" style="fill:#FF725E"></path><ellipse cx="77.57" cy="422.49" rx="13.3" ry="1.57" style="fill:#455a64"></ellipse><ellipse cx="77.57" cy="422.49" rx="13.3" ry="1.57" style="fill:#FF725E"></ellipse><path d="M67.6,421.55s-.14.42-.24.95-.1,1-.12,1a1,1,0,0,1,0-.29,5.63,5.63,0,0,1,.08-.69,4.83,4.83,0,0,1,.18-.67A1,1,0,0,1,67.6,421.55Z" style="fill:#455a64"></path><path d="M70.79,421.08a11.79,11.79,0,0,1-.14,1.34,12.31,12.31,0,0,1-.2,1.32s0-.6.14-1.33A12.25,12.25,0,0,1,70.79,421.08Z" style="fill:#455a64"></path><path d="M74.22,421.11a2.27,2.27,0,0,1,0,.4l-.14,1-.14,1a1.86,1.86,0,0,1-.07.4,3.81,3.81,0,0,1,0-.41c0-.25.06-.6.12-1s.11-.73.16-1A1.57,1.57,0,0,1,74.22,421.11Z" style="fill:#455a64"></path><path d="M81.61,423.88s-.13-.64-.25-1.44-.2-1.45-.19-1.45.13.64.25,1.44S81.63,423.88,81.61,423.88Z" style="fill:#455a64"></path><path d="M85.19,423.81a13.17,13.17,0,0,1-.35-1.36,12.83,12.83,0,0,1-.29-1.37s.17.6.35,1.36S85.2,423.8,85.19,423.81Z" style="fill:#455a64"></path><path d="M88.3,423.6a1.62,1.62,0,0,1-.06-.32c0-.2-.09-.48-.16-.78s-.14-.57-.2-.76a2.9,2.9,0,0,1-.08-.32,1.39,1.39,0,0,1,.13.3c.06.2.15.47.21.77a6.57,6.57,0,0,1,.14.78A1.62,1.62,0,0,1,88.3,423.6Z" style="fill:#455a64"></path><path d="M90.88,422.45a.75.75,0,0,0-.18-.21,2.59,2.59,0,0,0-.7-.32,17,17,0,0,0-2.82-.52,82,82,0,0,0-9.44-.44c-3.7,0-7,.19-9.45.43a21.62,21.62,0,0,0-2.83.45,3.76,3.76,0,0,0-.74.24.74.74,0,0,0-.18.09l-.06,0,.06,0,.18-.1a5.89,5.89,0,0,1,.73-.25,21.34,21.34,0,0,1,2.83-.46c2.41-.26,5.76-.43,9.46-.45a77.69,77.69,0,0,1,9.45.45,15.23,15.23,0,0,1,2.81.55,2.25,2.25,0,0,1,.71.33.88.88,0,0,1,.14.15Z" style="fill:#263238"></path><ellipse cx="77.57" cy="422.49" rx="13.3" ry="1.57" style="opacity:0.30000000000000004"></ellipse><path d="M76.51,421a56.59,56.59,0,0,1-.91,7.35c-1.62,6.35-3.95,6.58-4,10.58l5,.12s.8-2.25,1.6-5a26.59,26.59,0,0,0,1.43-8.22,19.26,19.26,0,0,0-.36-4.88Z" style="fill:#FF725E"></path><path d="M102.45,432.52a1.37,1.37,0,0,0-.58-1.23c-.37-.3-.81-.5-1.18-.79a6,6,0,0,1-1.75-3.11,6.53,6.53,0,0,0-1.66-3.16,3.39,3.39,0,0,0-2.67-.75,3.89,3.89,0,0,0-2.42,1.41c-.86,1.09-1.11,2.55-1.9,3.69a24.75,24.75,0,0,1-2.56,2.56,2.28,2.28,0,0,0-.48.71.92.92,0,0,0,.08.84Z" style="fill:#FF725E"></path><ellipse cx="94.9" cy="432.58" rx="7.56" ry="1.16" style="fill:#FF725E"></ellipse><path d="M99.27,431.63h-.11l-.3,0-1.11-.09c-.47,0-1-.07-1.65-.09s-1.3,0-2,0c-1.43,0-2.73.15-3.66.25l-1.11.14-.3,0h-.1l.1,0,.3-.06c.26,0,.64-.1,1.1-.15.94-.12,2.23-.24,3.67-.28.72,0,1.4,0,2,0s1.19.06,1.65.1l1.11.11.3.05Z" style="fill:#263238"></path><path d="M89.86,431.65s-.14.39-.25.87-.13.89-.15.89a.73.73,0,0,1,0-.27,5.09,5.09,0,0,1,.09-.64,4.86,4.86,0,0,1,.2-.61Z" style="fill:#455a64"></path><path d="M92.27,431.56a1.19,1.19,0,0,1-.08.3c0,.22-.12.47-.2.74s-.14.52-.19.74a1.2,1.2,0,0,1-.1.3,2.8,2.8,0,0,1,0-.31c0-.2.1-.46.18-.75a6.66,6.66,0,0,1,.22-.73A.84.84,0,0,1,92.27,431.56Z" style="fill:#455a64"></path><path d="M97.08,433.81a2.73,2.73,0,0,1,0-.35c0-.21,0-.51,0-.84s0-.62,0-.83a1.83,1.83,0,0,1,0-.35,1.19,1.19,0,0,1,.06.34,11.81,11.81,0,0,1,.08,1.68A1.19,1.19,0,0,1,97.08,433.81Z" style="fill:#455a64"></path><path d="M99.66,433.43a7.12,7.12,0,0,0-.09-.89c-.1-.48-.28-.84-.26-.85a1,1,0,0,1,.13.23,3.1,3.1,0,0,1,.2.61,2.47,2.47,0,0,1,0,.63A.68.68,0,0,1,99.66,433.43Z" style="fill:#455a64"></path><ellipse cx="94.9" cy="432.58" rx="7.56" ry="1.16" style="opacity:0.30000000000000004"></ellipse><path d="M91,439.14a13.78,13.78,0,0,0,2.37-3.92,16,16,0,0,0,.81-3.79h1.61a26.46,26.46,0,0,1-1.8,7.71Z" style="fill:#FF725E"></path><path d="M111.58,437.66a25.73,25.73,0,0,1-.65-6.25,8.62,8.62,0,0,0-2.44,6.35l-3.83-5.5c0,2.72-.62,4.45.55,6.9l10.17-.13,1.56-7.09A21.79,21.79,0,0,0,111.58,437.66Z" style="fill:#455a64"></path><path d="M144.09,439c0,.14-17.19.26-38.38.26s-38.38-.12-38.38-.26,17.18-.26,38.38-.26S144.09,438.9,144.09,439Z" style="fill:#263238"></path></g><g id="freepik--rock-2--inject-36"><path d="M138.14,448c.25-.73,16.5-29.55,16.5-29.55l53.69-24.87,19.21,6.15,19.56,36v12.4Z" style="fill:#f5f5f5"></path><polygon points="154.5 418.4 208.19 393.53 162.92 420.85 158.55 448.04 138 447.95 154.5 418.4" style="fill:#e0e0e0"></polygon><polygon points="231.27 407.17 218.72 409.66 189.3 405.33 186.87 403.18 183.24 404.79 187.28 406.15 219.01 413.52 233.54 411.55 231.27 407.17" style="fill:#e0e0e0"></polygon><polygon points="246.96 435.55 218.13 428.54 161.72 433.96 149.32 427.68 147.11 431.54 160.29 437.2 218.13 430.74 246.96 441.06 246.96 435.55" style="fill:#e0e0e0"></polygon><path d="M247.11,448.06s0-.07,0-.21l0-.62-.06-2.42c0-2.16-.1-5.28-.17-9.26v.06c-4.46-8.2-11.32-20.79-19.51-35.81l.14.12-19.36-6.15h.19l-8.8,4.08-44.91,20.75.09-.09c-5,9-9.19,16.33-12.09,21.48l-3.37,5.92-.89,1.54c-.21.34-.33.51-.33.51s.08-.19.27-.54l.84-1.57,3.27-6,11.94-21.57,0-.06.06,0,44.87-20.84,8.8-4.08.09,0,.1,0,19.35,6.17.09,0,0,.09,19.32,35.91,0,0v0c0,4,0,7.11,0,9.27,0,1,0,1.85,0,2.42,0,.26,0,.46,0,.62A1.66,1.66,0,0,1,247.11,448.06Z" style="fill:#263238"></path><path d="M256.67,448c0,.14-27.31.26-61,.26s-61-.12-61-.26,27.3-.26,61-.26S256.67,447.89,256.67,448Z" style="fill:#263238"></path></g><g id="freepik--rock-1--inject-36"><polygon points="26.51 366.64 42.79 355.09 45.16 339.4 53.57 333.48 58.23 321.04 66.8 312.61 97.7 313.56 109.11 332 117.57 352.2 129.5 360.39 138.71 384.4 19.41 384.4 26.51 366.64" style="fill:#f5f5f5"></polygon><path d="M26.51,366.64l-.45,1.16-1.36,3.42-5.25,13.2,0-.07,119.3-.05-.09.14c-2.74-7.14-5.61-14.63-8.54-22.25l-.67-1.77,0,.05-11.93-8.18,0,0v0Q113.15,341.91,109,332h0q-5.86-9.51-11.4-18.44l.08,0-30.9-1,.06,0-8.57,8.42v0c-1.65,4.41-3.2,8.54-4.67,12.44v0h0l-8.41,5.91,0,0c-.92,6.08-1.71,11.26-2.38,15.69v0h0L30.7,363.69l-3.12,2.21-1.07.74,1-.76,3.11-2.22,12.1-8.61,0,0c.66-4.43,1.44-9.61,2.35-15.7v0l0,0,8.4-5.92,0,0c1.45-3.9,3-8,4.65-12.45h0v0l8.56-8.43,0,0h0l30.9.94h0l0,0L109.19,332h0q4.14,9.85,8.47,20.21l0-.05,11.93,8.18,0,0v0l.68,1.77,8.53,22.25,0,.13h-.14l-119.3-.05h-.07l0-.07c2.31-5.75,4.1-10.18,5.3-13.19l1.38-3.4C26.35,367,26.51,366.64,26.51,366.64Z" style="fill:#263238"></path><path d="M45,381.76c0-.42,7.22-16.13,7.22-16.13L72.85,354l24,5.94-22.53-3.39L55.12,367.7Z" style="fill:#fafafa"></path><path d="M94.69,359.45l-.11,0-.31-.07-1.21-.28L88.53,358l-15.7-3.86h.07l-9.57,5.39-11.06,6.21,0,0-6.48,13.5c-.79,1.65-1.43,3-1.87,3.86-.21.44-.38.78-.5,1l-.13.26,0,.09,0-.09.12-.27c.12-.24.28-.59.48-1,.43-.91,1.05-2.22,1.82-3.88,1.58-3.32,3.8-8,6.41-13.53l0,0,0,0,11-6.22L72.8,354l0,0h0l15.69,3.93L93.07,359l1.2.31.31.08Z" style="fill:#263238"></path></g><g id="freepik--Birds--inject-36"><path d="M687.19,101a3.86,3.86,0,0,1,3,2.57,17.08,17.08,0,0,1,.78,4.11,23.58,23.58,0,0,0,5.14,11.72,2.16,2.16,0,0,1-2-.55,6.49,6.49,0,0,1-1.26-1.83,10.8,10.8,0,0,0,1.86,5.77,3.94,3.94,0,0,1-2.83-2.32,11.43,11.43,0,0,1-.87-3.7,23.07,23.07,0,0,0,.58,8.19c-1.57.21-2.47-1.15-3-5.73,0-.22-.08-.74-.11-1-.1-.67-.39-1-.5-.79a8.8,8.8,0,0,0-.24,1.06,23.45,23.45,0,0,0-.21,7.19,5.9,5.9,0,0,1-2.16-3.94,20,20,0,0,1-.06-4.15A13,13,0,0,0,684,124.3c-.86-.11-1.36-1-1.51-1.89a8.26,8.26,0,0,0-.51-2.54,7.21,7.21,0,0,0-1.1-1.31c-1.79-1.93-2.41-4.64-3-7.21l-1.65-7.25Z" style="fill:#263238"></path><path d="M658.37,101.89c-.45.15-6.94,3.09-6.94,3.09l2.49,1.06-2.87,1.36,1.29.83,8.75-1.14Z" style="fill:#263238"></path><path d="M652.38,107.23c0-.1-4.46.19-10,.65s-9.93.9-9.92,1,4.46-.19,10-.64S652.39,107.33,652.38,107.23Z" style="fill:#263238"></path><path d="M655.53,105.58c0-.1-5.06.53-11.27,1.4S633,108.64,633,108.74s5.06-.53,11.28-1.4S655.54,105.68,655.53,105.58Z" style="fill:#263238"></path><path d="M635.77,107.21a13.14,13.14,0,0,0-3.13.12.45.45,0,0,0-.51.49c-.07.86-.15,1.71-.22,2.56a12.65,12.65,0,0,0,6.63-1.82A4.38,4.38,0,0,0,635.77,107.21Z" style="fill:#263238"></path><path d="M693.38,98c-.33-.08-9.13-5-12.38-4.48s-5.63,8.47-5.63,8.47l2.53,3.43s6.27-1.47,8.72-3.35l2.44-1.87s12.39-.85,14.18-.75-.25.67,2.77.91a18.25,18.25,0,0,0,5.37-.4c.25,0,4.65.49,4.65.49l-4.48-1s-2.36-2.26-3.42-2.35S693.38,98,693.38,98Z" style="fill:#e0e0e0"></path><path d="M664.13,124.42a3.45,3.45,0,0,1-.94-3.71,2.32,2.32,0,0,1-.87-3.17,2.4,2.4,0,0,1-1.14-3.31c-.75-2-1.5-4-2.24-5.92s-1.47-4.4-.59-6.42c.07,0,14.26-6.32,16.78-7.54a12.21,12.21,0,0,1,5.87-.81l-2.85,2.85c-.41.08-.23,2.64-.26,4a14.55,14.55,0,0,0,.82,4c1,3.76.49,7.72,0,11.57a50.58,50.58,0,0,1-1.92,9.86l-1.1-1.83a5,5,0,0,1-1,2.93c-.7.78-1.42-.63-2.37-1.51.53.78-.69,4.16-1.21,4.12-.95-.09-1.72-2.11-2-3,.19,1-.58,4-1.57,4-.8,0-1.32-3.25-1.16-4-.23.42-.61,3.19-1,3.47h0a1.08,1.08,0,0,1-1.66-1Z" style="fill:#263238"></path><path d="M661,100.68c-.41,1.27.69,3.17,2,2.85a2.23,2.23,0,0,0,1.28,3.91,2.68,2.68,0,0,0,4.38,2.37,2.35,2.35,0,0,0,4.46,1.17,2.27,2.27,0,0,0,1,1.85,1.45,1.45,0,0,0,1.93-.43,1.7,1.7,0,0,0,2.18,1.74l.79-.75s.21-2.89.25-4.8a31,31,0,0,0-.74-5.09c-.15-1.31-.65-3.52,0-5.46a19.14,19.14,0,0,1,2.87-4.56,17.72,17.72,0,0,0-5.7.49C670.85,95.77,661,100.68,661,100.68Z" style="fill:#e0e0e0"></path><path d="M680.36,95s-.15.08-.37.28a5.84,5.84,0,0,0-.81,1,8.48,8.48,0,0,0-1.19,4,13.62,13.62,0,0,0,.55,4.17,8.44,8.44,0,0,0,.52,1.66,7.47,7.47,0,0,0-.27-1.71,16.25,16.25,0,0,1-.44-4.1,9.12,9.12,0,0,1,1-3.93C679.91,95.49,680.41,95,680.36,95Z" style="fill:#263238"></path><path d="M706.57,97.13a4.91,4.91,0,0,1,1.2-.06,2.08,2.08,0,0,1,1.06.26,9.44,9.44,0,0,1,1.5,1c.79.65,1.22,1.09,1.22,1.09l-.67.19.42.39,0,0h0a24,24,0,0,1-3.52.36h0v0c-.1-.46.38-.73.54-1.07.05-.19-.22-.3-.39-.39a4.8,4.8,0,0,1-.6-.3,1.42,1.42,0,0,1-.5-.69,6.29,6.29,0,0,1-.24-.78v0Z" style="fill:#263238"></path><path d="M709,98.51a.29.29,0,0,1-.28.28.28.28,0,0,1,0-.56A.29.29,0,0,1,709,98.51Z" style="fill:#455a64"></path><polygon points="711.55 99.47 710.85 99.65 711.29 100.06 716.2 100.5 711.55 99.47" style="fill:#FF725E"></polygon><path d="M585.39,51.29s3.61,7.31,4.06,9.19a6,6,0,0,1-.86,4s-5.17,4.29-4.54,9.67l-1.55,1.45-4.06-2.29-3.8-8.17L576,62s.15-2.13.65-2.54a7.15,7.15,0,0,1,2.44-.56s-2.18-.71-1.78-1.22,3-.35,3-.35-1.93-1-1.27-1.47,3.45.3,3.45.3-1.67-1.06-1-1.32,2.23.87,2.23.87-1-1.48-.41-1.68,1.78.66,1.78.66S583.82,51.8,585.39,51.29Z" style="fill:#263238"></path><path d="M582.94,60.45a8.67,8.67,0,0,0-4.19,4.13c-.55-.21-1.06.38-1.32.91a11.4,11.4,0,0,0-1,3.36l2.05,4.41,2,1.15,3.14.09.43-.4c-.63-5.38,4.54-9.67,4.54-9.67a6,6,0,0,0,.88-3.85L588.8,60A8.58,8.58,0,0,0,582.94,60.45Z" style="fill:#e0e0e0"></path><path d="M564.94,75.85c-.35.12-5.27,2.35-5.27,2.35l1.89.8-2.18,1,1,.63L567,79.8Z" style="fill:#263238"></path><path d="M561.6,80c0-.1-3.86.14-8.61.54s-8.59.79-8.58.89,3.86-.14,8.61-.53S561.61,80.05,561.6,80Z" style="fill:#263238"></path><path d="M562.48,77.69c0-.1-3.82.64-8.47,1.65s-8.41,1.9-8.39,2,3.81-.64,8.47-1.65S562.5,77.79,562.48,77.69Z" style="fill:#263238"></path><path d="M550.05,81a3.31,3.31,0,0,0-2.1-1,10,10,0,0,0-2.38.09.49.49,0,0,0-.32.13.51.51,0,0,0-.07.24c0,.65-.11,1.3-.16,1.95a9.44,9.44,0,0,0,5-1.41" style="fill:#263238"></path><path d="M592.25,80.08c-.34-.26-6.18-5.17-7.54-5.85a15.83,15.83,0,0,0-4.24-.93s-4.94-13.61-6.19-14.66c-3-2.53-20-14.41-20-14.41a6.14,6.14,0,0,0,1.1,2c.6.51,6.36,5,6.36,5s-5.34-3.13-9.32-3a14.11,14.11,0,0,1,1.3.7c.39.26,6.54,2.68,6.54,2.81s-.36.33-.36.33a23.39,23.39,0,0,0-8.28-1.81l-.68.06.13.23a.88.88,0,0,0,.69.48,35,35,0,0,1,5.1,1A16.46,16.46,0,0,1,559,53l-.84.29A75.33,75.33,0,0,0,550.46,52l.28.61a44.75,44.75,0,0,1,6,1.46l-7.18-.45.36.49s3.65.67,4.33,1.18,5,5.05,5,5.05,1.48,8.7,2.65,11.1a10.87,10.87,0,0,0,2.16,3.26s.26,3.33,1.37,4.57c0,0,6.27,4.16,11.36,3.14s5.42-3.22,7.54-3.14,5.51,2,7.63,2.12,6.61-.08,6.61-.08V80.16S592.59,80.33,592.25,80.08Z" style="fill:#e0e0e0"></path><path d="M598.61,80.16s3.79-.84,5.06-.6,1.62,1.14,2.53,1.46,2.8.12,3.59,1l-11.18-.66Z" style="fill:#263238"></path><path d="M584.4,74.09a2.24,2.24,0,0,0-.9-.45,12.47,12.47,0,0,0-2.68-.5l.13.09c-.62-1.53-1.44-3.5-2.34-5.64-1.05-2.5-2-4.75-2.75-6.37-.36-.81-.65-1.47-.87-1.92a3.6,3.6,0,0,0-.36-.68,3.44,3.44,0,0,0,.23.74c.18.46.44,1.13.77,2,.66,1.65,1.59,3.91,2.65,6.41.9,2.14,1.74,4.1,2.41,5.61l0,.08h.09a14.68,14.68,0,0,1,2.65.38C584.08,74,584.39,74.12,584.4,74.09Z" style="fill:#263238"></path><path d="M566.58,52.77l.21.08c-5.68-4-12.51-8.62-12.51-8.62a6.14,6.14,0,0,0,1.1,2c.6.51,6,4.69,6,4.69s-4.94-2.82-8.92-2.65a14.11,14.11,0,0,1,1.3.7c.39.26,6.54,2.68,6.54,2.81s-.36.33-.36.33a23.39,23.39,0,0,0-8.28-1.81l-.68.06.13.23a.88.88,0,0,0,.69.48,35,35,0,0,1,5.1,1A16.46,16.46,0,0,1,559,53l-.84.29A75.33,75.33,0,0,0,550.46,52l.28.61A37.37,37.37,0,0,1,556.26,54l-6.71-.33.36.49s3.65.67,4.33,1.18,5,5.05,5,5.05,1.48,8.7,2.65,11.1a15.92,15.92,0,0,0,.89,1.61c2.23.24,4.86.39,8,.46C570.88,72.06,577,63.14,566.58,52.77Z" style="fill:#263238"></path><path d="M605.82,81.77l4,.24a1.81,1.81,0,0,0-1.33-.63c-1-.15-2.38-.41-2.38-.41s.21.38.06.52Z" style="fill:#FF725E"></path><path d="M604.3,80.5a.26.26,0,0,1-.26.26.27.27,0,1,1,0-.53A.26.26,0,0,1,604.3,80.5Z" style="fill:#455a64"></path></g><g id="freepik--Sun--inject-36"><circle cx="371.66" cy="72.63" r="25.5" transform="translate(216.46 418.06) rotate(-76.86)" style="fill:#FF725E"></circle><circle cx="371.66" cy="72.63" r="25.5" transform="translate(216.46 418.06) rotate(-76.86)" style="fill:#fff;opacity:0.9"></circle><circle cx="371.66" cy="72.63" r="22.74" style="fill:#FF725E"></circle><circle cx="371.66" cy="72.63" r="22.74" style="fill:#fff;opacity:0.6000000000000001"></circle><circle cx="371.66" cy="72.63" r="18.92" style="fill:#FF725E"></circle><circle cx="371.66" cy="72.63" r="18.92" style="fill:#fff;opacity:0.30000000000000004"></circle><circle cx="371.66" cy="72.63" r="15.15" transform="translate(264.28 435.78) rotate(-84.58)" style="fill:#FF725E"></circle></g><g id="freepik--character-2--inject-36"><path d="M454.26,422.62l-1.34,19.6s19.47,7.94,19.57,11.58l-38.08-1.23.83-30.61Z" style="fill:#263238"></path><g style="opacity:0.6000000000000001"><path d="M434.41,452.57l.2-3.08,36.44,2.33s1.67.79,1.44,2Z" style="fill:#455a64"></path></g><path d="M453.54,442c0,.19-.94.24-1.88.81s-1.44,1.34-1.61,1.26.14-1.15,1.29-1.82S453.59,441.87,453.54,442Z" style="fill:#e0e0e0"></path><path d="M457.49,443.82c0,.18-.78.47-1.44,1.24s-.87,1.59-1.05,1.58-.27-1.07.56-2S457.49,443.65,457.49,443.82Z" style="fill:#e0e0e0"></path><path d="M459.6,448.68c-.17,0-.4-.91.11-1.91s1.39-1.38,1.47-1.22-.48.68-.89,1.51S459.78,448.66,459.6,448.68Z" style="fill:#e0e0e0"></path><path d="M453.35,437.54c-.08.17-.93-.11-2-.08s-1.88.35-2,.18.71-.8,2-.82S453.45,437.4,453.35,437.54Z" style="fill:#263238"></path><path d="M512.5,423l-.91,19.62s19.63,7.52,19.81,11.16l-38.1-.41.17-30.62Z" style="fill:#263238"></path><path d="M493.3,453.37l.14-3.08,36.48,1.54s1.69.76,1.48,1.95Z" style="fill:#455a64"></path><path d="M512.21,442.43c0,.19-.94.26-1.86.85s-1.42,1.37-1.59,1.29.12-1.15,1.24-1.84S512.25,442.26,512.21,442.43Z" style="fill:#e0e0e0"></path><path d="M516.19,444.13c0,.18-.77.49-1.41,1.27s-.84,1.61-1,1.6-.29-1.07.52-2S516.18,444,516.19,444.13Z" style="fill:#e0e0e0"></path><path d="M518.4,448.93c-.17,0-.41-.89.07-1.9s1.37-1.41,1.44-1.26-.46.7-.85,1.54S518.59,448.92,518.4,448.93Z" style="fill:#e0e0e0"></path><path d="M511.92,437.94c-.08.17-.93-.1-2,0s-1.88.38-2,.22.7-.81,2-.87S512,437.79,511.92,437.94Z" style="fill:#263238"></path><path d="M444.05,283.2c-4.85,8.86-8.33,16.64-7.77,26.59.29,5.17,4.79,12.33,5.05,18.21.55,12.61-.48,35.37-1.2,38.4a204.7,204.7,0,0,0-6.32,44.41c-.51,21-.31,27.9-.31,27.9l21.79.53s2.49-39.92,9.78-62.86c6.77-21.32,14.76-53.78,15.11-67.95s.47-19.19.47-19.19l-36.6-6Z" style="fill:#263238"></path><path d="M490.87,287.13s25.77,65.35,25.33,83.17c-.1,4.13-3.61,69-3.61,69l-20.09-.49c-.28-26-3.35-37.66-1.24-62.05l-20.54-45.6L472,279.42l15.87-1.8Z" style="fill:#263238"></path><path d="M409.66,196.57c2-1.22,4.57-1.15,6.86-1.82,4.29-1.24,7.27-5,8.71-8.84s1.68-7.95,2.44-11.94,1-7.53,4.17-11.24c5.55-6.56,17-7.22,18.68.06l-3.35,6.83a44.84,44.84,0,0,1,3.25,30.61c-.5,2-1.25,4.2-3,5.57s-4.91,1.46-6-.33c-2,3-4.12,6.09-7.16,8.31S427,217.24,423.43,216s-5.61-5.42-3.52-8.4c-3.78.89-8.12.52-10.8-1.89S406.39,198.57,409.66,196.57Z" style="fill:#263238"></path><path d="M463.75,148.4c-4.72-.88-8.91.88-12.94,3.49a24.37,24.37,0,0,0-10,25.88,18.77,18.77,0,0,0,9.06,11.64c6.11,3.22,14,2.26,19.57-1.82s8.82-10.91,9.2-17.81a22.85,22.85,0,0,0-3.4-13.61,17.41,17.41,0,0,0-11.48-7.77" style="fill:#263238"></path><path d="M450,164.28c.72-1.8.48-3.82.79-5.74.67-4.21,2.29-8,6.25-9.61,3.69-1.47,10-.59,14.38.9a16.9,16.9,0,0,1,7.81,5.27,13.28,13.28,0,0,1,2.25,12L460,163.56a23.93,23.93,0,0,1-6.61,4.21,4.45,4.45,0,0,1-2.27.32,2,2,0,0,1-1.66-1.41A4.33,4.33,0,0,1,450,164.28Z" style="fill:#263238"></path><path d="M449.14,203.75l.41-40.84a3.53,3.53,0,0,1,3.35-3.4l18.93-3.7c6-.31,9.59,7.27,9.64,13.3.06,6.69-.14,14.86-1.2,19.79-2.13,9.92-9.87,10.78-9.87,10.78s0,.38-.26,4c0,0,2.58,8.31-5.83,7.34C458.84,210.4,449.14,203.75,449.14,203.75Z" style="fill:#ffbf9d"></path><path d="M478.56,177.11a1.29,1.29,0,0,1-1.31,1.23,1.24,1.24,0,0,1-1.26-1.23,1.29,1.29,0,0,1,1.31-1.23A1.22,1.22,0,0,1,478.56,177.11Z" style="fill:#263238"></path><path d="M479.47,173.25c-.17.16-1.1-.61-2.48-.68s-2.43.56-2.57.38.1-.37.56-.67a3.6,3.6,0,0,1,2.07-.51,3.44,3.44,0,0,1,2,.75C479.42,172.87,479.55,173.18,479.47,173.25Z" style="fill:#263238"></path><path d="M467.1,176.39c-.17.16-1.1-.62-2.48-.69s-2.43.57-2.57.39.1-.37.56-.67a3.52,3.52,0,0,1,2.07-.52,3.45,3.45,0,0,1,2,.76C467.05,176,467.18,176.32,467.1,176.39Z" style="fill:#263238"></path><path d="M470.34,183.28a8.9,8.9,0,0,1,2.26-.28c.35,0,.69-.07.76-.31a1.8,1.8,0,0,0-.17-1.05c-.29-.87-.59-1.79-.9-2.74-1.24-3.91-2.12-7.11-2-7.16a46.73,46.73,0,0,1,2.53,7c.3,1,.58,1.88.85,2.76a2,2,0,0,1,.11,1.39.86.86,0,0,1-.61.48,2.2,2.2,0,0,1-.6.05A8.88,8.88,0,0,1,470.34,183.28Z" style="fill:#263238"></path><path d="M470.4,199.68a25.56,25.56,0,0,1-13.21-4.31s3,7.11,13.06,6.72Z" style="fill:#ff9a6c"></path><path d="M469.57,186.58a2.52,2.52,0,0,0-2.18-1.05,2.3,2.3,0,0,0-1.61.76,1.42,1.42,0,0,0-.2,1.64,1.67,1.67,0,0,0,1.78.56,5.4,5.4,0,0,0,1.82-1,1.43,1.43,0,0,0,.42-.39.47.47,0,0,0,0-.51" style="fill:#ff9a6c"></path><path d="M466.22,184c.22,0,.15,1.5,1.37,2.63s2.83,1,2.83,1.26-.37.28-1.05.26a3.78,3.78,0,0,1-2.36-1A3.29,3.29,0,0,1,466,185C465.93,184.37,466.12,184,466.22,184Z" style="fill:#263238"></path><path d="M467.23,171.62c-.16.36-1.53.11-3.16.22s-3,.48-3.16.13c-.08-.17.16-.51.71-.84a5.5,5.5,0,0,1,4.81-.27C467,171.13,467.3,171.44,467.23,171.62Z" style="fill:#263238"></path><path d="M479.4,167.19c-.26.3-1.2-.07-2.34-.15s-2.12.09-2.33-.25c-.09-.16.08-.47.52-.74a3.4,3.4,0,0,1,3.76.32C479.4,166.71,479.51,167.05,479.4,167.19Z" style="fill:#263238"></path><path d="M446.63,161.31c2-5.71,10.71-13.41,16.74-12.77l9.46,6.14a9.32,9.32,0,0,1-6.58,6.91c-1.73.46-3.79.53-4.86,2s-.56,3.67-1.58,5.19c-1.42,2.09-5.07,1.86-6.16,4.15-.47,1-.29,2.21-.78,3.2-.65,1.32-4.11,2.9-5.49,2.4s-1.31-2.88-1.72-4.15a6.62,6.62,0,0,1-.05-4.45C446.32,167.09,445.65,164,446.63,161.31Z" style="fill:#263238"></path><path d="M451.47,179.82c0-.74-.72-2.54-1.45-2.7-1.95-.41-5.5-.45-5.81,4.54-.41,6.82,6.52,5.83,6.54,5.64S451.34,182.4,451.47,179.82Z" style="fill:#ffbf9d"></path><path d="M448.83,184.59s-.13.07-.33.15a1.2,1.2,0,0,1-.89,0,2.94,2.94,0,0,1-1.2-2.72,4,4,0,0,1,.44-1.69,1.35,1.35,0,0,1,.95-.85.61.61,0,0,1,.68.37c.08.19,0,.33.06.34s.15-.11.12-.39a.72.72,0,0,0-.25-.44.86.86,0,0,0-.64-.22,1.7,1.7,0,0,0-1.31,1,4.21,4.21,0,0,0-.53,1.88,3.09,3.09,0,0,0,1.56,3.05,1.3,1.3,0,0,0,1.09-.11C448.81,184.75,448.85,184.6,448.83,184.59Z" style="fill:#ff9a6c"></path><path d="M470.88,152.59c.59,2.78,4.75,6.41,6.57,8.6,3.48,4.19,4.15,5.57,4,14.79,1.72-3.16,3.05-6.26,3-9.86a14.86,14.86,0,0,0-3.8-9.84,11.59,11.59,0,0,0-9.72-3.69" style="fill:#263238"></path><path d="M444.7,184.74a4.5,4.5,0,0,1-.67-.85,9.81,9.81,0,0,1-.69-1.08,13.46,13.46,0,0,1-.79-1.49,21.68,21.68,0,0,1-1.52-4.13,26.24,26.24,0,0,1-.75-5.34,25.91,25.91,0,0,1,.48-5.37,21.24,21.24,0,0,1,1.3-4.21,12.25,12.25,0,0,1,.72-1.53,7.52,7.52,0,0,1,.63-1.1,4.35,4.35,0,0,1,.62-.89c.1.05-.75,1.35-1.63,3.66a24.19,24.19,0,0,0-1.17,4.16,27.3,27.3,0,0,0-.43,5.27,27,27,0,0,0,.7,5.24,25,25,0,0,0,1.38,4.09C443.88,183.43,444.79,184.68,444.7,184.74Z" style="fill:#455a64"></path><path d="M480.64,306.09a7,7,0,0,1-.12,1.4c-.14,1-.31,2.26-.52,3.78-.47,3.2-1.15,7.61-1.93,12.47S476.55,333,476,336.19c-.28,1.51-.51,2.77-.69,3.76a9,9,0,0,1-.32,1.37,7,7,0,0,1,.12-1.41c.14-1,.31-2.26.52-3.79.47-3.19,1.15-7.6,1.93-12.46s1.52-9.26,2.08-12.44l.69-3.77A8.64,8.64,0,0,1,480.64,306.09Z" style="fill:#455a64"></path><path d="M509.21,170.13s-.18-1.3-.82-1.31a2.26,2.26,0,0,0-2.05,1.24C505.89,171,509.21,170.13,509.21,170.13Z" style="fill:#ffbf9d"></path><path d="M503.05,188.28s-4.05-11-4.05-12c0-1.21,2.12-5.39,3.17-5.81s1.5.75,1.5.75a7,7,0,0,1,2.7-1.94,1.71,1.71,0,0,1,2.16.85,3.36,3.36,0,0,1,2.29-1c.67-.06,1.72.86,1.72.86s1.39-1.12,2.34-.63a3.92,3.92,0,0,1,1.63,2.22,4.89,4.89,0,0,0-2.55,1.68,64,64,0,0,1,1.07,7.53c.07,2.58-2.5,6.92-2.63,7.26l1.65,8.34-10.89-2.1Z" style="fill:#ff9a6c"></path><path d="M463.82,230.06c-.36-.21,37.65,10,46.25,9,7.34-.85,8.9-7.92,8.61-13.76-.57-11.8-6.28-37.31-6.28-37.31l-9.3,2.29-.44,29.79s-29.1-10.81-32-11.28S458,204.38,455,214.86C451.7,226.47,463.82,230.06,463.82,230.06Z" style="fill:#ff9a6c"></path><path d="M495,217l-4,20.67s-24.63-6-28.88-7.69-11.59-7.93-8.54-15.11,11.32-9.84,20.21-7.11S495,217,495,217Z" style="fill:#FF725E"></path><path d="M481.64,255.61s10.4-8.52,7.2-18.3c-1.31-4-23.16-31-23.53-31.23l-18.05-1.32-5.42,10.84c-5.42,10.84-6.8,29-5.43,50.08s7.12,26.16,7.12,26.16c13.21,3.33,30.62,2.41,49.5,0Z" style="fill:#FF725E"></path><path d="M445.05,240.8s13.6.46,19.37-6.2a48.62,48.62,0,0,0,8.47-15.32l7.43,4s-7.08,11.09-11.61,16.11-22.08,10.26-22.08,10.26Z" style="fill:#263238"></path><path d="M442.86,204.94a16.72,16.72,0,0,1,9.89-1.95,80.46,80.46,0,0,1,12.71,3.09s-8.53-.12-13.65,6.14-4.13,10.37-4,14.91,1.71,25.15,1.71,25.15l32.09,3.33c1.91,3.4,3.27,8.12,4.29,13.67L450.09,271l-6.2,20-3.06-31.35-.35-48.29Z" style="fill:#455a64"></path><path d="M400.7,273.84a146.06,146.06,0,0,1,4.74-38.22c.68.12,2.12.61,2.8.73-1.37,13.15-3.77,25.85-4.69,39" style="fill:#263238"></path><rect x="405.18" y="232.81" width="4.06" height="3.29" transform="translate(68.91 560.56) rotate(-73.88)" style="fill:#e0e0e0"></rect><path d="M395,315l4,3.25A38,38,0,0,0,405.83,301l-3.34-8.65A33.72,33.72,0,0,1,395,315Z" style="fill:#263238"></path><path d="M404,271.83a8.35,8.35,0,0,0-5.78,5.09,21.5,21.5,0,0,0-1.38,7.85c-.18,4.61,0,9.37,1.82,13.59s6.88,7.1,11.49,7.32l4.41-11.25Z" style="fill:#455a64"></path><g style="opacity:0.30000000000000004"><path d="M396.82,287.81c0-.19,6.14-1.32,6.14-1.32l9.69,19.6s-5.29-.33-8.47-2.12c-3.69-2.08-4.7-3.68-6-7C396.67,293.31,396.82,287.81,396.82,287.81Z"></path></g><path d="M442.86,204.94s-14.29-4.45-21.29-4-20.8,17-18.77,24.2c2.14,7.57,6.24,10.29,6.24,10.29s-7.78,39.6-5.55,51.8c2.4,13.12,5.43,17.21,7.24,19,5.83,5.83,16.95,3.71,25-.77s8-11.72,8-11.72-1.09-38.59-1.51-46.18S442.86,204.94,442.86,204.94Z" style="fill:#455a64"></path><rect x="421.33" y="218.19" width="16.25" height="14.56" rx="5.3" transform="translate(9.13 -16.59) rotate(2.24)" style="fill:#FF725E"></rect><path d="M419.32,228.23c.11.59-1.48,22.67-.44,28.29.69,3.72,1.09,7.21,7.08,7.65a46.72,46.72,0,0,0,6.62,0,5.92,5.92,0,0,0,5.47-5.54c.51-8.42,1.43-25.13,1-29.59Z" style="fill:#263238"></path><rect x="427.18" y="214.78" width="5.78" height="4.41" transform="translate(8.8 -16.63) rotate(2.24)" style="fill:#FF725E"></rect><rect x="426.2" y="212.53" width="7.75" height="3.96" transform="translate(8.71 -16.64) rotate(2.24)" style="fill:#e0e0e0"></rect><path d="M419.32,228.23a5.34,5.34,0,0,1,1.4-.07c.9,0,2.19,0,3.8,0,3.21.07,7.64.2,12.54.4l2.17.08.33,0,0,.32c-.18,4.39-.37,8.28-.54,11.07-.09,1.28-.16,2.37-.22,3.28a4.71,4.71,0,0,1-.17,1.19,5,5,0,0,1-.07-1.2c0-.91,0-2,0-3.29.05-2.79.16-6.68.32-11.07l.32.33-2.18-.08c-4.89-.19-9.32-.4-12.53-.59-1.6-.09-2.9-.17-3.79-.25A5.9,5.9,0,0,1,419.32,228.23Z" style="fill:#455a64"></path><path d="M433.31,218.34s0,0,.07-.06v.13a12.6,12.6,0,0,1-3.23.14c-1.82-.08-3.29-.28-3.28-.46s1.49-.27,3.3-.2a12.55,12.55,0,0,1,3.21.39v.13C433.33,218.39,433.31,218.36,433.31,218.34Z" style="fill:#263238"></path><path d="M433.38,216.62s0,0,.07-.06v.13a12.52,12.52,0,0,1-3.23.14c-1.81-.07-3.28-.28-3.27-.46s1.48-.27,3.3-.2a13.05,13.05,0,0,1,3.21.39v.13S433.38,216.65,433.38,216.62Z" style="fill:#263238"></path><g style="opacity:0.30000000000000004"><path d="M402.8,225.12s12.07-3.87,12.07-3.87L409,235.41S404.81,232.42,402.8,225.12Z"></path></g><g style="opacity:0.30000000000000004"><path d="M409.37,275.73s.2,22.72,8.19,26.71,18.77-1.12,21-6.22.19-21.06.19-21.06Z"></path></g><path d="M414.84,221.16c.06.17-2.59,1.22-5.9,2.33s-6.05,1.89-6.11,1.72,2.58-1.22,5.9-2.34S414.78,221,414.84,221.16Z" style="fill:#263238"></path><path d="M420.92,201.28c.08.05-.59,1.23-1.47,3.23a36.56,36.56,0,0,1-4,7.65,11.63,11.63,0,0,1-3.62,3.18,12.25,12.25,0,0,1-3.75,1.18,24.25,24.25,0,0,1-2.61.25,2.91,2.91,0,0,1-1,0c0-.11,1.36-.24,3.49-.66a12.9,12.9,0,0,0,3.55-1.26,11.79,11.79,0,0,0,3.4-3.05,47,47,0,0,0,4.12-7.45A12,12,0,0,1,420.92,201.28Z" style="fill:#263238"></path><path d="M441.43,277.94s4.86-2.8,9.07-5.55c2.6-1.69,5.74-2.87,7.2-5.6,1.1-2.07,1.21-4.5,1.31-6.84.07-1.59.07-3.35-1-4.55a6.36,6.36,0,0,0-2.89-1.59l-15.47-5.24" style="fill:#455a64"></path><path d="M439.68,248.57a12.34,12.34,0,0,1,1.95.53l5.25,1.66,7.75,2.56a17.62,17.62,0,0,1,2.24.83,4,4,0,0,1,1.91,1.79c.82,1.67.55,3.51.5,5.25a14.86,14.86,0,0,1-1,5.16A8.59,8.59,0,0,1,455,270c-1.3.88-2.61,1.53-3.77,2.23L448,274.21,443.22,277a13.13,13.13,0,0,1-1.79.95,11.58,11.58,0,0,1,1.66-1.17l4.63-2.95,3.22-2c1.17-.73,2.47-1.41,3.71-2.27a8,8,0,0,0,3-3.43,14.38,14.38,0,0,0,1-4.94c.06-1.75.28-3.54-.42-4.93s-2.36-1.84-3.78-2.34l-7.7-2.69-5.18-1.86A13.13,13.13,0,0,1,439.68,248.57Z" style="fill:#263238"></path><path d="M414.3,223.13a12.79,12.79,0,0,1,.09,2c0,1.27,0,3.11-.12,5.38-.21,4.54-.78,10.8-1.74,17.67-.47,3.43-1,6.69-1.45,9.65-.24,1.48-.47,2.88-.69,4.21a25.8,25.8,0,0,1-.79,3.66,7.87,7.87,0,0,1-3.13,4.38,6.25,6.25,0,0,1-1.32.67,1.66,1.66,0,0,1-.49.14c0-.06.66-.28,1.66-1a7.84,7.84,0,0,0,2.84-4.31c.59-2.14.84-4.86,1.32-7.82s.91-6.24,1.4-9.65c1-6.85,1.6-13.08,1.92-17.6.14-2.18.25-4,.33-5.36A11.26,11.26,0,0,1,414.3,223.13Z" style="fill:#263238"></path><path d="M425.37,200.94a19.11,19.11,0,0,1-1.46,3.08c-1.08,2-2.37,4.53-3.8,7.27l-3.74,7.29a18.64,18.64,0,0,1-1.67,3,16.55,16.55,0,0,1,1.25-3.17c.86-1.92,2.11-4.55,3.58-7.4s2.9-5.38,4-7.19A16.37,16.37,0,0,1,425.37,200.94Z" style="fill:#263238"></path><path d="M403.89,272.4c.12,0-.28,2-.51,5.3a51.83,51.83,0,0,0,.73,12.76,37.69,37.69,0,0,0,4.3,12c1.66,2.82,3.12,4.28,3,4.37a6.55,6.55,0,0,1-1-1,11.35,11.35,0,0,1-1.09-1.29l-.64-.85c-.21-.31-.42-.65-.64-1a34.33,34.33,0,0,1-4.55-12.1,45.94,45.94,0,0,1-.55-12.92,32.82,32.82,0,0,1,.6-3.87A6.45,6.45,0,0,1,403.89,272.4Z" style="fill:#263238"></path><path d="M439,280.44c.11.15-5.51,4.25-12.54,9.17s-12.82,8.79-12.93,8.64,5.52-4.25,12.55-9.17S438.94,280.29,439,280.44Z" style="fill:#263238"></path><path d="M438.6,295.68a5.08,5.08,0,0,1-1.24-.25c-.78-.2-1.9-.54-3.28-1a88.43,88.43,0,0,1-20.31-9.82c-1.21-.8-2.17-1.47-2.81-2a5.39,5.39,0,0,1-1-.81,43.63,43.63,0,0,1,4,2.37c2.46,1.49,5.92,3.46,9.88,5.37s7.64,3.4,10.34,4.41A43.29,43.29,0,0,1,438.6,295.68Z" style="fill:#263238"></path><path d="M438.91,279.67c0,.18-6.52.36-14.57.4s-14.57-.07-14.57-.25,6.52-.36,14.57-.4S438.91,279.49,438.91,279.67Z" style="fill:#263238"></path><path d="M461.23,230.06c-.36-.21,37.65,10,46.25,9,7.34-.85,8.9-7.92,8.62-13.76-.58-11.8-6.2-35.37-6.2-35.37l-9.39.35-.44,29.79s-29.1-10.81-32-11.28-12.73-4.39-15.71,6.09C449.11,226.47,461.23,230.06,461.23,230.06Z" style="fill:#ffbf9d"></path><path d="M492.36,217l-4,20.67s-24.63-6-28.88-7.69-11.59-7.93-8.54-15.11,9.8-10.77,18.69-8S492.36,217,492.36,217Z" style="fill:#FF725E"></path><rect x="483.64" y="175.16" width="7.97" height="7.2" transform="translate(972.15 365.8) rotate(-179.02)" style="fill:#263238"></rect><polygon points="529.61 169.82 529.32 186.84 489.18 185.34 489.39 173.06 529.61 169.82" style="fill:#263238"></polygon><path d="M529.32,186.84s-8-9.64.29-17Z" style="fill:#455a64"></path><path d="M519.69,186.28a6,6,0,0,1-1.43-2,14.23,14.23,0,0,1-.55-11.5,6.33,6.33,0,0,1,1.22-2.11c.08,0-.39.84-.87,2.24a15.52,15.52,0,0,0-.76,5.66,15.15,15.15,0,0,0,1.3,5.55C519.2,185.49,519.77,186.22,519.69,186.28Z" style="fill:#455a64"></path><rect x="483.08" y="173.97" width="2.6" height="9.34" transform="matrix(-1, -0.02, 0.02, -1, 965.67, 365.48)" style="fill:#455a64"></rect><path d="M492.38,172.82a15.21,15.21,0,0,1-3,.56l.17-.18c0,1.74,0,4.13,0,6.76,0,2-.08,3.85-.14,5.39l-.2-.23a29.75,29.75,0,0,1,4.37.47,30,30,0,0,1-4.4,0H489v-.21c0-1.54,0-3.4.05-5.39.05-2.63.12-5,.19-6.76V173l.16,0A17.13,17.13,0,0,1,492.38,172.82Z" style="fill:#455a64"></path><path d="M489.23,182.39a18.75,18.75,0,0,1-3.71,0h-.22v-.23c0-1.09,0-2.27,0-3.52s.07-2.44.09-3.53v-.23h.23a19.17,19.17,0,0,1,3.7.29,19.35,19.35,0,0,1-3.71.17l.23-.23c0,1.09,0,2.27,0,3.53s-.07,2.43-.1,3.52l-.21-.23A18.92,18.92,0,0,1,489.23,182.39Z" style="fill:#455a64"></path><path d="M505.41,170.13s-.18-1.3-.82-1.31a2.25,2.25,0,0,0-2,1.24C502.09,171,505.41,170.13,505.41,170.13Z" style="fill:#ffbf9d"></path><path d="M500.34,188.28s-4-11-4-12c0-1.21,2.12-5.39,3.17-5.81s1.51.75,1.51.75a7,7,0,0,1,2.7-1.94,1.71,1.71,0,0,1,2.16.85,3.35,3.35,0,0,1,2.28-1c.67-.06,1.72.86,1.72.86s1.39-1.12,2.35-.63a4,4,0,0,1,1.63,2.22,4.89,4.89,0,0,0-2.56,1.68,61.85,61.85,0,0,1,1.07,7.53c.07,2.58-2.5,6.92-2.62,7.26l1.65,8.34-10.9-2.1Z" style="fill:#ffbf9d"></path><path d="M499.47,176.28a4.88,4.88,0,0,1,2-5.62A19.18,19.18,0,0,0,500,173.3,18.56,18.56,0,0,0,499.47,176.28Z" style="fill:#ff9a6c"></path><path d="M504.41,174.68a3,3,0,0,1-.33-2.78,3.14,3.14,0,0,1,1.15-1.69c.43-.31.76-.36.79-.3a5.34,5.34,0,0,0-1.43,2.14A12.55,12.55,0,0,0,504.41,174.68Z" style="fill:#ff9a6c"></path><path d="M508,173.29a2.61,2.61,0,0,1,.49-2.24c.71-1.14,1.76-1.56,1.81-1.43s-.74.7-1.36,1.7S508.11,173.3,508,173.29Z" style="fill:#ff9a6c"></path><path d="M470.28,207a1.55,1.55,0,0,1,.44.15l1.23.51,4.59,2,15.92,7.07.18.08,0,.19c-.73,3.9-1.53,8.17-2.36,12.62-.52,2.75-1,5.42-1.51,8l-.05.26-.26-.06-20.16-4.66-5.9-1.41-1.58-.4a2.32,2.32,0,0,1-.54-.17,2.85,2.85,0,0,1,.55.08l1.6.32,5.94,1.26,20.21,4.49-.31.2c.48-2.55,1-5.23,1.49-8l2.4-12.62.14.27L476.42,210l-4.53-2.12-1.2-.59A2.56,2.56,0,0,1,470.28,207Z" style="fill:#263238"></path><path d="M442.61,204.65c.14,0,.26,10,.26,22.36s-.12,22.37-.26,22.37-.26-10-.26-22.37S442.46,204.65,442.61,204.65Z" style="fill:#263238"></path></g><g id="freepik--character-1--inject-36"><path d="M294.83,213.11l-20.12-37c-4.71-9.37-14.08-14.44-23.31-9.47l-.83.51a18.73,18.73,0,0,0-6.87,24.46c4.12,8.09,8.78,17,11.38,21.08,5.37,8.5,14.76,4.56,14.76,4.56s3,5.31,4.48,7.88l7.9,4.46,12-2.28Z" style="fill:#ffbf9d"></path><path d="M269.84,217.27A24.26,24.26,0,0,0,279,207.11s1.28,8.09-7.74,12.58Z" style="fill:#ff9a6c"></path><path d="M251.39,198.48a1.44,1.44,0,0,0,1.94.51,1.37,1.37,0,0,0,.58-1.88,1.43,1.43,0,0,0-1.94-.51A1.38,1.38,0,0,0,251.39,198.48Z" style="fill:#263238"></path><path d="M247.85,194.29c.25.06.75-1.19,2.07-2s2.69-.74,2.73-1-.31-.31-.92-.36a3.9,3.9,0,0,0-2.3.6,3.82,3.82,0,0,0-1.53,1.79C247.69,193.89,247.73,194.26,247.85,194.29Z" style="fill:#263238"></path><path d="M262.62,191.62a1.43,1.43,0,0,0,1.94.51,1.38,1.38,0,0,0,.58-1.88,1.44,1.44,0,0,0-1.94-.51A1.37,1.37,0,0,0,262.62,191.62Z" style="fill:#263238"></path><path d="M260.93,186.65c.25.07.76-1.19,2.08-2s2.68-.75,2.73-1-.31-.3-.92-.35a3.9,3.9,0,0,0-2.3.6,3.74,3.74,0,0,0-1.53,1.78C260.78,186.25,260.82,186.63,260.93,186.65Z" style="fill:#263238"></path><path d="M262.44,199.67a9.93,9.93,0,0,0-2.38.93c-.36.17-.72.3-.91.11a2.06,2.06,0,0,1-.39-1.14c-.19-1-.38-2.06-.58-3.17-.86-4.49-1.71-8.1-1.89-8.07s.37,3.71,1.23,8.2c.22,1.11.43,2.16.64,3.16a2.25,2.25,0,0,0,.63,1.43,1,1,0,0,0,.86.15,2.56,2.56,0,0,0,.62-.27A10,10,0,0,0,262.44,199.67Z" style="fill:#263238"></path><path d="M258,182.8c.39.22,1.45-.92,3-1.91s3-1.54,2.93-2c0-.2-.49-.34-1.2-.28a5.85,5.85,0,0,0-2.59,1,6,6,0,0,0-1.91,2C257.84,182.22,257.8,182.69,258,182.8Z" style="fill:#263238"></path><path d="M245.4,190.45c.46.14,1.35-.81,2.65-1.6s2.52-1.23,2.58-1.7c0-.21-.33-.41-1-.41a5.12,5.12,0,0,0-4.21,2.66C245.16,190,245.19,190.38,245.4,190.45Z" style="fill:#263238"></path><path d="M277.91,182.9c.11-.16,4.81-5.36,8.23.6s-3.28,8.17-3.39,8S277.91,182.9,277.91,182.9Z" style="fill:#ffbf9d"></path><path d="M283.28,188.2s.15,0,.37,0a1.21,1.21,0,0,0,.78-.43,3,3,0,0,0-.13-3,3.83,3.83,0,0,0-1.14-1.33,1.41,1.41,0,0,0-1.24-.35.62.62,0,0,0-.45.64c0,.21.12.31.1.34s-.19,0-.28-.3a.75.75,0,0,1,0-.51.89.89,0,0,1,.49-.48,1.67,1.67,0,0,1,1.61.3,4.17,4.17,0,0,1,1.32,1.46,3.12,3.12,0,0,1-.05,3.45,1.26,1.26,0,0,1-1,.38C283.37,188.34,283.27,188.23,283.28,188.2Z" style="fill:#ff9a6c"></path><path d="M227.16,190.51a1.72,1.72,0,0,1,.19-1.21,5,5,0,0,1,2-1.64,14.44,14.44,0,0,0,4.66-4.51,7.11,7.11,0,0,1-2.25-.2,4.31,4.31,0,0,1-3.21-3.1.92.92,0,0,1,.14-.84c.31-.34.87-.16,1.32,0a3.73,3.73,0,0,0,3.77-.46,6.28,6.28,0,0,0,1.88-2l0-.13c.12-.5.25-1,.38-1.45h0c1-3.51,2-6.16,3.53-8.1A23.34,23.34,0,0,1,250,159.82c3.49-.95,7.63-.06,9.84,2.81.88-2.42,3.44-3.87,6-4.23l0-.06c2.78-.5,5.5,1.18,7.53,3.15l.33.33a10.4,10.4,0,0,0,4.85,1.24c.3,0,.65,0,.82.26a.85.85,0,0,1,0,.84A5.16,5.16,0,0,1,277.9,166a12,12,0,0,0,1.7,1.19c.51.29,1.13.64,1.16,1.23a1.13,1.13,0,0,1-.76,1,3.28,3.28,0,0,1-1.36.13l1.84,1.4a6.26,6.26,0,0,1-2.61,1.28c.78,2.49,2.75,6.78,3,8.59-1.56.94-2.05,1-2.69,1.71-.84.94.61,2.54-1,2.8-.83.12-3.37-1.86-4-2.43a39.21,39.21,0,0,1-9.76-13.56,12.7,12.7,0,0,0-4.78-.5l.15,0c-2.92.56-6.16,1.31-7.82,3.78-1.28,1.92-1.26,4.39-1.75,6.65a14.38,14.38,0,0,1-6.64,9.78c1.18,2.83,3.55,7.19,4.83,9.72l-4.92-3.71v0c-.34-.19-.64-.4-.95-.61l-.09-.06v0c-.48-.34-1-.69-1.49-1v0a1.77,1.77,0,0,1-3.43-.76,4.05,4.05,0,0,1,.32-1.18,2.8,2.8,0,0,1-2,1.93,2.19,2.19,0,0,1-2.43-1.11,1.84,1.84,0,0,1,.22-1.85,6.31,6.31,0,0,1-3.51,1.1C228.33,191.63,227.4,191.4,227.16,190.51Z" style="fill:#263238"></path><path d="M257.63,165.21a8,8,0,0,1,1.34.3,7.25,7.25,0,0,1,3,2.13,12.08,12.08,0,0,1,1.5,2.09c.47.8.9,1.69,1.36,2.64a27,27,0,0,0,1.58,2.9,10.65,10.65,0,0,0,1.06,1.39,3.6,3.6,0,0,0,1.46,1.11,1.5,1.5,0,0,0,1.47-.29,2.26,2.26,0,0,0,.75-1.26,5.33,5.33,0,0,0-.44-2.71l-.17.13a8.38,8.38,0,0,0,2.12,1.22,3,3,0,0,0,2.22-.05,1.93,1.93,0,0,0,.81-.68,1.66,1.66,0,0,0,.27-.95,1.74,1.74,0,0,0-.26-.88,1.26,1.26,0,0,0-.67-.52l0,.14a6.61,6.61,0,0,0,2.69.33c.31,0,.55-.08.71-.11a1,1,0,0,0,.24-.07.77.77,0,0,0-.25,0c-.16,0-.4.05-.71.07a6.72,6.72,0,0,1-2.63-.39l0,.14a1.29,1.29,0,0,1,.8,1.26,1.46,1.46,0,0,1-.25.85,1.63,1.63,0,0,1-.74.6,2.76,2.76,0,0,1-2.08,0,8.5,8.5,0,0,1-2.05-1.2l-.28-.21.11.34a5.07,5.07,0,0,1,.42,2.58,2.06,2.06,0,0,1-.67,1.13,1.29,1.29,0,0,1-1.25.25,3.42,3.42,0,0,1-1.35-1,12.16,12.16,0,0,1-1-1.37,28.28,28.28,0,0,1-1.58-2.87c-.46-.94-.9-1.84-1.38-2.64a12.78,12.78,0,0,0-1.54-2.11,7.27,7.27,0,0,0-3.1-2.1A4.25,4.25,0,0,0,257.63,165.21Z" style="fill:#455a64"></path><path d="M235.52,189.22l.1,0,.31,0a3.86,3.86,0,0,0,.51,0,5.6,5.6,0,0,0,.69,0,8.94,8.94,0,0,0,4.12-1.48,11.46,11.46,0,0,0,4.15-5,19.93,19.93,0,0,0,1.53-7.82c0-1.42-.08-2.8-.09-4.13a13.62,13.62,0,0,1,.42-3.78,6.94,6.94,0,0,1,1.64-3,5.11,5.11,0,0,1,1.24-.92,5.39,5.39,0,0,1,1.35-.46,5.87,5.87,0,0,1,2.45.05,5.64,5.64,0,0,1,1.72.71,6.9,6.9,0,0,1,1.2,1.05l-.06-.09c-.05-.06-.12-.14-.19-.24a5.59,5.59,0,0,0-.9-.8,5.89,5.89,0,0,0-1.74-.76,5.79,5.79,0,0,0-2.51-.08,5.46,5.46,0,0,0-1.4.46,5.06,5.06,0,0,0-1.3.94,7.12,7.12,0,0,0-1.7,3,13.35,13.35,0,0,0-.45,3.84c0,1.34.11,2.72.08,4.13a19.8,19.8,0,0,1-1.49,7.73,11.31,11.31,0,0,1-4,4.92,9,9,0,0,1-4,1.52A12.08,12.08,0,0,1,235.52,189.22Z" style="fill:#455a64"></path><path d="M232.52,185.85a1.67,1.67,0,0,0,.44,0,6.75,6.75,0,0,0,1.19-.06,9.74,9.74,0,0,0,1.75-.36,12.33,12.33,0,0,0,2-.83,12.12,12.12,0,0,0,1.81-1.21,11,11,0,0,0,1.28-1.25,8.39,8.39,0,0,0,.71-1,2,2,0,0,0,.22-.39s-.38.51-1.06,1.24a12.82,12.82,0,0,1-1.28,1.19,13.2,13.2,0,0,1-1.79,1.17,12,12,0,0,1-2,.83,12.12,12.12,0,0,1-1.7.41C233.14,185.81,232.52,185.8,232.52,185.85Z" style="fill:#455a64"></path><path d="M269.59,199.62a1.54,1.54,0,0,0-1.13-1.05c-.63-.06-1.15.48-1.53,1a36.56,36.56,0,0,0-2.11,3.28l.18.69a3.19,3.19,0,0,0,4.59-3.91Z" style="fill:#ff9a6c"></path><path d="M267.8,204a6.25,6.25,0,0,0,1.2-1.34,3.06,3.06,0,0,0,.37-1.81,3.13,3.13,0,0,0-1-2c-.33-.27-.47-.27-.72,0s-.45.65-.66,1c-.37.59-.74,1.15-1.08,1.69a8.19,8.19,0,0,1-1.05,1.55,5.79,5.79,0,0,1,.72-1.73c.26-.52.6-1.12,1-1.77.21-.33.4-.66.67-1a1,1,0,0,1,.7-.42,1.08,1.08,0,0,1,.77.32,3.49,3.49,0,0,1,1.16,2.33,3.23,3.23,0,0,1-.53,2C268.61,203.88,267.8,204.05,267.8,204Z" style="fill:#263238"></path><path d="M330.85,333.56l-20.48,20.07s11.68,66.68,9.91,66.84l-25,2.33s-16.94-72.1-15.91-76.66S316.21,300,316.21,300l.31-6.14,10.37-1.6Z" style="fill:#263238"></path><path d="M369.57,305.87c-1.91,4.56-5.17,10-5.76,14.51l-11.69,46.06,46.71,53.39-19.89,17.22s-56.09-57-58.17-64.11c-1.65-5.69,3.12-63.36,3.12-63.36l-2.39-16.37,41-18.55,3.73,6.74C370.28,289.11,372.94,297.86,369.57,305.87Z" style="fill:#263238"></path><path d="M368,421.93l15.05,16.34s-10.86,19.87-8.36,23.15l31.4-26.3-22.45-26.36Z" style="fill:#263238"></path><path d="M391.57,428.73a1.78,1.78,0,0,1,2.19.78,1.57,1.57,0,0,1-.64,2.13,1.89,1.89,0,0,1-2.32-.83,1.63,1.63,0,0,1,.92-2.14" style="fill:#e0e0e0"></path><path d="M406.12,435.12l-2.37-2.57-29.21,26.17s-.86,1.8.18,2.7Z" style="fill:#455a64"></path><path d="M382.42,438.53c.15.16,1-.41,2.17-.53s2.17.22,2.26,0-.93-.91-2.38-.74S382.27,438.41,382.42,438.53Z" style="fill:#fff"></path><path d="M380.35,442.71c.1.18,1-.1,2.1.14s1.86.82,2,.69-.53-1.12-1.91-1.39S380.22,442.55,380.35,442.71Z" style="fill:#fff"></path><path d="M382,448.38c.17-.09-.31-1.06-1.45-1.61s-2.16-.29-2.11-.1.89.28,1.83.74S381.84,448.49,382,448.38Z" style="fill:#fff"></path><path d="M379.39,434.45c.19.09.7-.72,1.62-1.38s1.84-.95,1.8-1.15-1.17-.23-2.24.57S379.21,434.39,379.39,434.45Z" style="fill:#fff"></path><path d="M296,409.26l.8,22.46s-21.69,8.42-21.93,12.59l42-.11.13-35.05Z" style="fill:#263238"></path><path d="M309.74,429.8a1.78,1.78,0,0,1,1.19,2,1.64,1.64,0,0,1-1.92,1.24,1.88,1.88,0,0,1-1.25-2.15,1.7,1.7,0,0,1,2.14-1.07" style="fill:#e0e0e0"></path><path d="M316.79,444.2l-.12-3.53-40.18,1.42s-1.86.85-1.65,2.22Z" style="fill:#455a64"></path><path d="M296.09,431.5c0,.22,1,.31,2,1s1.55,1.58,1.74,1.49-.12-1.31-1.35-2.12S296.05,431.31,296.09,431.5Z" style="fill:#fff"></path><path d="M291.7,433.41c-.05.2.84.56,1.53,1.46s.9,1.85,1.11,1.84.33-1.21-.56-2.31S291.7,433.2,291.7,433.41Z" style="fill:#fff"></path><path d="M289.2,438.89c.19,0,.47-1-.05-2.19s-1.49-1.62-1.58-1.45.51.8.93,1.77S289,438.87,289.2,438.89Z" style="fill:#fff"></path><path d="M296.46,426.36c.08.19,1-.1,2.18,0s2.06.45,2.17.27-.76-.94-2.13-1S296.36,426.19,296.46,426.36Z" style="fill:#fff"></path><path d="M323.48,305.72a2,2,0,0,0-.1.6c-.05.45-.11,1-.18,1.72-.15,1.5-.32,3.66-.52,6.35-.39,5.36-.82,12.78-1.19,21s-.62,15.54-.83,21c-.09,2.63-.16,4.78-.21,6.36,0,.7,0,1.27,0,1.74a2.15,2.15,0,0,0,0,.6,2.36,2.36,0,0,0,.09-.6c0-.46.09-1,.14-1.72.1-1.59.24-3.74.4-6.36.3-5.37.64-12.79,1-21s.75-15.53,1-21c.14-2.62.25-4.77.33-6.36,0-.69.06-1.27.07-1.73A2.52,2.52,0,0,0,323.48,305.72Z" style="fill:#455a64"></path><path d="M268.71,248.48l-7.12,34.92L240.1,313.58l9.48,6.53,27.85-28.23a15.46,15.46,0,0,0,3.81-6.45l9.29-31.37Z" style="fill:#ffbf9d"></path><path d="M241.23,328.5s5.54-4.7,6.51-5.42,2.27-2.05,2.45-3,3.69-6,3.69-6l-8.36-7.27L242,312.87s-6.72,1.68-7.82,2.35-5.89,4.48-5.89,4.48l-1,2L219.46,330a1.37,1.37,0,0,0,1.14,1.28c1.15.28,6.85-3.78,6.85-3.78a2.82,2.82,0,0,0,2,1.46,2.64,2.64,0,0,0,2.13-.34s-.56,1,1.09,1.46a3,3,0,0,0,2.56-.2,1.64,1.64,0,0,0,2.1,1.1C238.56,330.77,241.23,328.5,241.23,328.5Z" style="fill:#ffbf9d"></path><path d="M241.62,320.7c0-.07-.82.41-2.28.8a9.29,9.29,0,0,1-5.91-.5l-.16-.07-.13.1-1.89,1.65,0,0,0,0c-.14.28-.32.58-.5.87a9.48,9.48,0,0,1-2.19,2.52,3.51,3.51,0,0,1-1.3.67,1,1,0,0,1-1.07-.32l0,.19c.46-1.65.84-3,1.08-4a7.09,7.09,0,0,0,.32-1.53,6.81,6.81,0,0,0-.57,1.46c-.32.94-.76,2.29-1.27,3.93l0,.1.05.08a1.51,1.51,0,0,0,1.56.57,3.92,3.92,0,0,0,1.52-.74,11.25,11.25,0,0,0,2.87-3.58l-.07.09,1.89-1.66-.29,0a9,9,0,0,0,6.22.35,7.88,7.88,0,0,0,1.67-.73C241.45,320.86,241.64,320.73,241.62,320.7Z" style="fill:#ff9a6c"></path><polygon points="273.65 223.75 268.15 235.34 264.82 257.5 289.83 262.48 295.46 235.34 273.65 223.75" style="fill:#FF725E"></polygon><path d="M373.7,242.61c-.61-4.83-3.28-9-5.88-13-7.6-11.65-15.43-23.55-26.3-31.55-3.57-2.64-7.59-4.86-11.9-5.06a22.7,22.7,0,0,0-9.16,1.91c-6.06,2.34-11.93,5.78-16.15,11.08l52,64.6a49.43,49.43,0,0,0,9.12-7.95C370.38,257.26,374.65,250.13,373.7,242.61Z" style="fill:#263238"></path><path d="M290,204.26s15.29-1.38,20.4,2c7.74,5.06,19.2,19.07,19.2,19.07l16.05,21.78,20.65,31.51-53.7,26.09c-3.53-1.58-1-.82-.86-6.94l-35-60.69-3.8-11.15C280.12,224.26,285,214.91,290,204.26Z" style="fill:#FF725E"></path><path d="M275,233.05s.13.14.32.44l.8,1.31,2.85,4.86,9.2,16.15c3.59,6.32,6.85,12,9.25,16.13,1.17,2,2.13,3.64,2.84,4.87l.76,1.33a2.63,2.63,0,0,1,.23.48s-.13-.14-.33-.42l-.85-1.28c-.72-1.12-1.75-2.75-3-4.78-2.49-4.06-5.81-9.74-9.4-16.05s-6.77-12.07-9.07-16.24L276,234.9l-.71-1.35A2.49,2.49,0,0,1,275,233.05Z" style="fill:#263238"></path><path d="M351.59,253c-9.87-.29-20.33-.91-30.17-4.53-5.24-1.93-12-5.54-15.34-10l-1.28,6.94a58.32,58.32,0,0,0,23,9.22A113.4,113.4,0,0,0,352.6,256C352.09,254.53,352.09,254.52,351.59,253Z" style="fill:#263238"></path><path d="M354.9,276.4a11.57,11.57,0,0,1-1.41,1.15c-.94.68-2.32,1.67-4.09,2.76-3.53,2.23-8.66,4.88-14.32,7.74s-10.57,5.88-14.43,7.54a31.46,31.46,0,0,1-4.65,1.67,12,12,0,0,1-1.31.3,1.38,1.38,0,0,1-.47.06,17.25,17.25,0,0,1,1.72-.56,38.5,38.5,0,0,0,4.55-1.83c3.77-1.73,8.64-4.83,14.34-7.67s10.8-5.45,14.36-7.59c1.8-1,3.2-2,4.18-2.6A11.89,11.89,0,0,1,354.9,276.4Z" style="fill:#263238"></path><path d="M297.92,237.4c-3.95-4.93-5.25-18.74-3.57-25.51,1.22-5,4.28-8.36,7.51-8.73,2.45-.28,5.29-.58,6.48,0s4,3.08,3.9,4.4c-.56-.38-1.62-1.25-5.74-.39s-3.67,2.13-6.7,5c-4,3.8-.92,14.32-2.54,19.58" style="fill:#263238"></path><path d="M278.8,239.54c-2.19-5.44-4.59-14.51-5.15-15.79-.95,1.19-2.91,3.06-2.91,5.52.48,2.37,3.09,6.75,4.28,8.85,2.17,3.81,4.83,5.17,6.61,6.77Z" style="fill:#263238"></path><path d="M311.65,321.18l.89-44.62S298.46,229.18,299.19,224c.84-6,3.06-15,13.91-15.33,9.68-.34,12.49,13.59,12.1,19.58-.47,7.27,7.38,40.24,6.94,50.5-.22,5.07-9.33,45.31-9.33,45.31Z" style="fill:#ffbf9d"></path><path d="M298.91,246.19c0,.07,30.71-3.27,30.71-3.27s-2.69-23.79-8.14-30.7-9.62-7.73-14.74-6.15-9.82,8.36-10.16,15.93S298.91,246.19,298.91,246.19Z" style="fill:#FF725E"></path><path d="M299.13,246.33a1.87,1.87,0,0,1-.08-.31q-.07-.36-.18-.93c-.15-.81-.36-2-.61-3.57-.5-3.11-1.2-7.62-1.71-13.24a35.37,35.37,0,0,1,.09-9.23,19.93,19.93,0,0,1,4.55-9.55,12.56,12.56,0,0,1,4.66-3.42,12.78,12.78,0,0,1,6-.88,10.32,10.32,0,0,1,3,.89,15,15,0,0,1,2.67,1.71,25.7,25.7,0,0,1,4.39,4.68,30.13,30.13,0,0,1,3.51,7.76c.86,2.65,1.49,5.29,2.08,7.85,1.15,5.15,2,10.06,2.56,14.58l0,.24-.24,0-22.25,2.56-6.23.67-1.65.14a4.91,4.91,0,0,1-.57,0l.56-.09,1.64-.22,6.22-.8,22.22-2.76-.21.27c-.61-4.5-1.44-9.39-2.6-14.52-.59-2.55-1.23-5.18-2.09-7.8a29.87,29.87,0,0,0-3.42-7.61,25.9,25.9,0,0,0-4.29-4.57,14.32,14.32,0,0,0-2.57-1.64,9.52,9.52,0,0,0-2.83-.85,11.75,11.75,0,0,0-10.19,4.1,19.56,19.56,0,0,0-4.48,9.29,35.53,35.53,0,0,0-.15,9.12c.46,5.6,1.1,10.12,1.53,13.24.22,1.52.39,2.73.51,3.58,0,.39.09.7.13.94A1.54,1.54,0,0,1,299.13,246.33Z" style="fill:#263238"></path><path d="M231.27,328.83c-.05-.06.44-.54,1.23-1.33a16.2,16.2,0,0,0,1.29-1.43,3.38,3.38,0,0,0,.94-1.95,1.28,1.28,0,0,0-1.38-1.14,3,3,0,0,0-1.65.66c-.84.68-1.36,1.18-1.42,1.11a5.27,5.27,0,0,1,1.18-1.4,3.15,3.15,0,0,1,1.88-.86,2,2,0,0,1,1.24.36,1.57,1.57,0,0,1,.68,1.26,3.7,3.7,0,0,1-1.09,2.28,13,13,0,0,1-1.42,1.39A5.68,5.68,0,0,1,231.27,328.83Z" style="fill:#ff9a6c"></path><path d="M235,330.12c-.05-.06.44-.54,1.23-1.33a18,18,0,0,0,1.29-1.43,3.38,3.38,0,0,0,.94-1.95,1.28,1.28,0,0,0-1.38-1.14,2.93,2.93,0,0,0-1.65.66c-.85.68-1.36,1.18-1.42,1.11a5.27,5.27,0,0,1,1.18-1.4,3.15,3.15,0,0,1,1.88-.86,2,2,0,0,1,1.24.36,1.57,1.57,0,0,1,.68,1.26,3.7,3.7,0,0,1-1.09,2.28,14,14,0,0,1-1.42,1.39A5.68,5.68,0,0,1,235,330.12Z" style="fill:#ff9a6c"></path><path d="M237.45,331a4.59,4.59,0,0,0,1.5-.87,13,13,0,0,0,1.48-1.22,5.67,5.67,0,0,0,.7-.86,2,2,0,0,0,.45-1c0-.67-.74-1.15-1.36-1.12a2.93,2.93,0,0,0-1.65.66c-.85.68-1.36,1.18-1.42,1.11a5.27,5.27,0,0,1,1.18-1.4,3.15,3.15,0,0,1,1.88-.86,2,2,0,0,1,1.25.36,1.49,1.49,0,0,1,.65,1.29,5.9,5.9,0,0,1-3,3.33,6.18,6.18,0,0,1-1.21.59,1.22,1.22,0,0,1-.38.06C237.46,331.09,237.42,331,237.45,331Z" style="fill:#ff9a6c"></path><path d="M311.59,320.85s-5,3.14-6.21,4.45-4.17,6.12-6.22,7.41a1.45,1.45,0,0,0,2.2,1.18,16.4,16.4,0,0,0,5.37-3.88c.92-1.15,1.69-.36,1.65.72s-1.62,8.23-1.62,8.23-3,7.84-2.46,8.8a1.47,1.47,0,0,0,2.29.31c.35-.39,3.5-6.89,3.5-6.89l1-3.6s-2.35,11.47-1.7,12.45a1.27,1.27,0,0,0,2,.27c.55-.41,1.54-5.49,1.54-5.49l1.8-6.73-1.39,13s0,1.24,1,1.37,1.75-1.23,1.75-1.23l2.6-13.31s-1.12,7.43-.65,7.87,1.25.46,1.52-.09a75.1,75.1,0,0,0,1.81-7.78l1.77-12.73,1-7.05-11.67-.91Z" style="fill:#ffbf9d"></path></g></svg>
